<svg id="svg" width="30" viewBox="0, 0, 400,1250">
              <g id="svgg">
                <path
                  id="path0"
                  d="M247.396 793.229 C 247.396 793.802,247.580 794.271,247.805 794.271 C 248.030 794.271,248.214 793.802,248.214 793.229 C 248.214 792.656,248.030 792.188,247.805 792.188 C 247.580 792.188,247.396 792.656,247.396 793.229 M213.041 798.698 C 212.593 801.027,212.597 801.153,213.106 800.644 C 213.399 800.351,213.527 799.676,213.391 799.144 C 213.254 798.612,213.097 798.411,213.041 798.698 M174.711 801.273 C 174.793 802.024,174.996 802.774,175.161 802.939 C 175.327 803.104,175.397 802.628,175.317 801.879 C 175.237 801.131,175.034 800.382,174.866 800.214 C 174.698 800.046,174.628 800.522,174.711 801.273 M175.618 807.218 C 175.683 808.078,175.923 808.667,176.150 808.527 C 176.743 808.161,176.659 806.371,176.031 805.983 C 175.705 805.782,175.545 806.261,175.618 807.218 M248.417 810.347 C 249.180 813.004,249.311 812.983,230.642 813.137 L 213.150 813.281 212.619 811.874 C 212.238 810.864,212.257 810.398,212.685 810.223 C 213.013 810.088,212.873 809.960,212.374 809.937 C 210.917 809.871,211.240 813.936,212.715 814.227 C 213.693 814.420,213.679 814.449,212.574 814.512 C 211.724 814.562,211.437 814.818,211.640 815.348 C 211.802 815.768,211.738 816.234,211.498 816.381 C 211.259 816.529,210.940 817.123,210.789 817.701 C 210.637 818.279,210.707 818.632,210.942 818.487 C 211.317 818.255,211.160 818.909,209.999 822.396 C 209.856 822.826,209.671 823.529,209.588 823.958 C 208.863 827.730,208.058 830.729,207.772 830.729 C 207.423 830.729,206.544 834.592,206.616 835.807 C 206.638 836.165,206.447 836.458,206.192 836.458 C 205.938 836.458,205.729 837.161,205.729 838.021 C 205.729 838.880,205.495 839.583,205.208 839.583 C 204.922 839.583,204.688 840.417,204.688 841.437 C 204.688 842.456,204.479 843.162,204.223 843.004 C 203.968 842.846,203.627 843.477,203.467 844.405 C 202.788 848.325,202.460 849.479,202.024 849.479 C 201.770 849.479,201.563 850.417,201.563 851.563 C 201.563 852.708,201.328 853.646,201.042 853.646 C 200.755 853.646,200.521 854.921,200.521 856.480 C 200.521 858.038,200.286 859.458,200.000 859.635 C 199.714 859.812,199.479 861.936,199.479 864.354 C 199.479 866.937,199.264 868.750,198.958 868.750 C 198.672 868.750,198.438 869.939,198.438 871.391 C 198.438 874.810,197.317 876.190,195.883 874.536 C 195.359 873.932,194.552 873.438,194.089 873.438 C 193.627 873.438,193.139 872.910,193.004 872.266 C 192.643 870.539,192.170 867.279,191.851 864.323 C 191.697 862.891,191.358 861.496,191.098 861.224 C 190.838 860.952,190.625 859.735,190.625 858.520 C 190.625 857.305,190.391 856.167,190.104 855.990 C 189.818 855.813,189.583 854.978,189.583 854.136 C 189.583 853.293,189.349 852.604,189.063 852.604 C 188.776 852.604,188.542 851.915,188.542 851.072 C 188.542 850.230,188.307 849.396,188.021 849.219 C 187.734 849.042,187.500 848.227,187.500 847.408 C 187.500 846.590,187.288 845.842,187.029 845.747 C 186.770 845.651,186.477 844.987,186.378 844.271 C 186.279 843.555,186.023 842.838,185.810 842.679 C 185.596 842.520,185.371 841.775,185.309 841.024 C 185.247 840.273,185.011 839.773,184.785 839.912 C 184.560 840.052,184.375 839.318,184.375 838.281 C 184.375 837.158,184.165 836.527,183.854 836.719 C 183.544 836.911,183.333 836.280,183.333 835.156 C 183.333 834.033,183.123 833.402,182.813 833.594 C 182.509 833.782,182.292 833.252,182.292 832.322 C 182.292 831.446,182.081 830.729,181.823 830.729 C 181.566 830.729,181.218 829.616,181.052 828.255 C 180.575 824.363,180.422 823.769,179.852 823.579 C 179.559 823.481,179.436 822.787,179.579 822.036 C 179.738 821.202,179.552 820.449,179.099 820.101 C 178.692 819.788,178.373 818.945,178.389 818.229 C 178.406 817.513,178.222 816.787,177.980 816.616 C 177.738 816.445,177.480 815.170,177.406 813.783 C 177.271 811.254,176.386 810.079,175.932 811.828 C 175.617 813.043,176.001 814.149,176.607 813.775 C 177.384 813.294,177.149 813.880,176.273 814.608 C 175.827 814.978,175.503 815.065,175.553 814.802 C 175.896 812.997,175.834 812.991,158.372 813.137 L 141.223 813.281 140.937 811.849 C 140.449 809.407,139.756 810.271,139.746 813.334 C 139.740 814.938,139.494 816.403,139.198 816.589 C 138.448 817.061,138.293 851.347,139.039 851.808 C 139.370 852.013,139.583 854.680,139.583 858.624 C 139.583 862.597,139.785 865.104,140.104 865.104 C 140.415 865.104,140.625 867.090,140.625 870.021 C 140.625 872.738,140.858 875.083,141.146 875.260 C 141.432 875.437,141.667 876.285,141.667 877.145 C 141.667 878.054,141.884 878.573,142.188 878.385 C 142.513 878.184,142.708 879.248,142.708 881.219 C 142.708 882.955,142.909 884.375,143.154 884.375 C 143.400 884.375,143.760 886.296,143.956 888.643 C 144.152 890.991,144.509 893.159,144.751 893.461 C 145.160 893.974,145.432 895.253,146.169 900.133 C 146.331 901.209,146.674 902.219,146.930 902.378 C 147.186 902.536,147.396 903.472,147.396 904.458 C 147.396 905.444,147.630 906.250,147.917 906.250 C 148.203 906.250,148.438 907.291,148.438 908.563 C 148.438 909.835,148.672 911.021,148.958 911.198 C 149.245 911.375,149.479 912.312,149.479 913.281 C 149.479 914.250,149.714 915.188,150.000 915.365 C 150.286 915.542,150.521 916.727,150.521 917.999 C 150.521 919.272,150.755 920.313,151.042 920.313 C 151.328 920.313,151.563 921.471,151.563 922.886 C 151.563 924.301,151.797 925.604,152.083 925.781 C 152.370 925.958,152.604 927.013,152.604 928.125 C 152.604 929.237,152.839 930.292,153.125 930.469 C 153.411 930.646,153.646 931.831,153.646 933.104 C 153.646 934.376,153.880 935.417,154.167 935.417 C 154.453 935.417,154.688 936.354,154.688 937.500 C 154.688 938.646,154.890 939.583,155.138 939.583 C 155.385 939.583,155.737 940.673,155.919 942.005 C 156.102 943.337,156.456 944.684,156.706 945.000 C 157.211 945.637,157.738 948.016,158.157 951.563 C 158.310 952.852,158.646 954.129,158.905 954.401 C 159.163 954.673,159.375 956.476,159.375 958.407 C 159.375 960.338,159.609 962.063,159.896 962.240 C 160.182 962.417,160.417 964.526,160.417 966.927 C 160.417 969.328,160.182 971.438,159.896 971.615 C 159.609 971.792,159.375 973.516,159.375 975.447 C 159.375 977.378,159.155 979.181,158.885 979.453 C 158.616 979.725,158.284 982.643,158.147 985.938 C 158.011 989.232,157.669 993.451,157.389 995.313 C 155.957 1004.807,155.633 1006.582,155.180 1007.415 C 154.909 1007.912,154.688 1009.026,154.688 1009.889 C 154.688 1010.752,154.453 1011.458,154.167 1011.458 C 153.877 1011.458,153.646 1012.847,153.646 1014.583 C 153.646 1016.319,153.414 1017.708,153.125 1017.708 C 152.800 1017.708,152.604 1020.823,152.604 1026.011 C 152.604 1030.984,152.395 1034.443,152.083 1034.635 C 151.781 1034.822,151.563 1037.679,151.563 1041.437 C 151.563 1045.410,151.361 1047.917,151.042 1047.917 C 150.755 1047.917,150.521 1049.206,150.521 1050.781 C 150.521 1052.357,150.286 1053.646,150.000 1053.646 C 149.714 1053.646,149.479 1054.001,149.479 1054.434 C 149.479 1054.868,149.264 1055.629,149.001 1056.127 C 147.704 1058.579,146.354 1062.077,146.354 1062.984 C 146.354 1063.544,146.120 1064.146,145.833 1064.323 C 145.547 1064.500,145.313 1065.701,145.313 1066.992 C 145.313 1068.283,145.080 1069.774,144.796 1070.305 C 144.512 1070.836,144.124 1074.336,143.934 1078.083 C 143.745 1081.830,143.391 1084.896,143.149 1084.896 C 142.907 1084.896,142.708 1088.294,142.708 1092.448 C 142.708 1097.135,142.511 1100.000,142.188 1100.000 C 141.857 1100.000,141.667 1103.906,141.667 1110.677 C 141.667 1117.448,141.857 1121.354,142.188 1121.354 C 142.507 1121.354,142.708 1123.872,142.708 1127.865 C 142.708 1131.445,142.909 1134.375,143.154 1134.375 C 143.399 1134.375,143.767 1137.819,143.971 1142.029 C 144.176 1146.239,144.561 1150.091,144.828 1150.589 C 145.094 1151.087,145.313 1153.502,145.313 1155.955 C 145.313 1158.582,145.527 1160.417,145.833 1160.417 C 146.120 1160.417,146.354 1161.692,146.354 1163.251 C 146.354 1164.809,146.589 1166.229,146.875 1166.406 C 147.185 1166.598,147.396 1169.884,147.396 1174.510 C 147.396 1179.351,147.593 1182.292,147.917 1182.292 C 148.214 1182.292,148.438 1183.857,148.438 1185.945 C 148.438 1187.954,148.672 1190.063,148.958 1190.632 C 149.245 1191.201,149.714 1192.132,150.000 1192.701 C 150.286 1193.270,150.521 1194.559,150.521 1195.566 C 150.521 1196.572,150.755 1197.396,151.042 1197.396 C 151.328 1197.396,151.563 1198.568,151.563 1200.000 C 151.563 1201.432,151.797 1202.604,152.083 1202.604 C 152.370 1202.604,152.604 1203.176,152.604 1203.876 C 152.604 1204.575,152.839 1205.292,153.125 1205.469 C 153.411 1205.646,153.646 1206.363,153.646 1207.062 C 153.646 1207.761,153.880 1208.333,154.167 1208.333 C 154.453 1208.333,154.688 1209.036,154.688 1209.896 C 154.688 1210.755,154.897 1211.458,155.153 1211.458 C 155.697 1211.458,156.819 1216.720,157.152 1220.833 C 157.279 1222.409,157.597 1223.921,157.858 1224.193 C 158.120 1224.465,158.333 1225.344,158.333 1226.146 C 158.333 1226.948,158.568 1227.604,158.854 1227.604 C 159.141 1227.604,159.375 1228.190,159.375 1228.906 C 159.375 1229.622,159.609 1230.208,159.896 1230.208 C 160.182 1230.208,160.417 1230.563,160.417 1230.997 C 160.417 1232.995,170.364 1241.667,172.656 1241.667 C 173.380 1241.667,174.379 1241.870,174.877 1242.118 C 176.077 1242.716,179.138 1243.789,180.599 1244.124 C 181.243 1244.272,181.771 1244.599,181.771 1244.852 C 181.771 1245.105,182.357 1245.313,183.073 1245.313 C 183.789 1245.313,184.375 1245.547,184.375 1245.833 C 184.375 1246.120,185.313 1246.354,186.458 1246.354 C 187.604 1246.354,188.542 1246.589,188.542 1246.875 C 188.542 1247.197,191.233 1247.396,195.573 1247.396 C 199.913 1247.396,202.604 1247.197,202.604 1246.875 C 202.604 1246.589,203.073 1246.354,203.646 1246.354 C 204.219 1246.354,204.688 1246.120,204.688 1245.833 C 204.688 1245.547,205.846 1245.313,207.261 1245.313 C 208.676 1245.313,209.979 1245.078,210.156 1244.792 C 210.333 1244.505,210.851 1244.271,211.307 1244.271 C 212.296 1244.271,217.894 1241.621,218.142 1241.035 C 218.238 1240.809,218.765 1240.625,219.314 1240.625 C 219.863 1240.625,220.313 1240.391,220.313 1240.104 C 220.313 1239.818,220.781 1239.583,221.354 1239.583 C 221.927 1239.583,222.396 1239.389,222.396 1239.151 C 222.396 1238.912,223.040 1238.385,223.828 1237.979 C 225.989 1236.864,227.604 1234.768,227.604 1233.080 C 227.604 1232.646,227.839 1232.292,228.125 1232.292 C 228.411 1232.292,228.646 1231.237,228.646 1229.948 C 228.646 1228.659,228.880 1227.604,229.167 1227.604 C 229.453 1227.604,229.688 1226.915,229.688 1226.072 C 229.688 1225.230,229.900 1224.409,230.160 1224.249 C 230.419 1224.088,230.793 1222.786,230.990 1221.354 C 231.187 1219.922,231.560 1218.750,231.820 1218.750 C 232.079 1218.750,232.292 1218.295,232.292 1217.739 C 232.292 1217.183,232.526 1216.583,232.813 1216.406 C 233.099 1216.229,233.333 1215.512,233.333 1214.813 C 233.333 1214.114,233.568 1213.542,233.854 1213.542 C 234.141 1213.542,234.375 1212.839,234.375 1211.979 C 234.375 1211.120,234.609 1210.417,234.896 1210.417 C 235.182 1210.417,235.417 1209.714,235.417 1208.854 C 235.417 1207.995,235.651 1207.292,235.938 1207.292 C 236.224 1207.292,236.458 1206.720,236.458 1206.020 C 236.458 1205.321,236.693 1204.604,236.979 1204.427 C 237.266 1204.250,237.500 1203.547,237.500 1202.865 C 237.500 1202.182,237.734 1201.479,238.021 1201.302 C 238.307 1201.125,238.542 1200.188,238.542 1199.219 C 238.542 1198.250,238.776 1197.312,239.063 1197.135 C 239.349 1196.958,239.583 1196.021,239.583 1195.052 C 239.583 1194.083,239.818 1193.146,240.104 1192.969 C 240.391 1192.792,240.625 1191.620,240.625 1190.365 C 240.625 1189.109,240.859 1187.937,241.146 1187.760 C 241.432 1187.583,241.667 1186.046,241.667 1184.344 C 241.667 1182.629,241.899 1181.250,242.188 1181.250 C 242.474 1181.250,242.708 1180.093,242.708 1178.680 C 242.708 1177.266,242.931 1175.524,243.203 1174.809 C 243.475 1174.093,243.860 1171.148,244.059 1168.264 C 244.257 1165.380,244.621 1163.021,244.866 1163.021 C 245.112 1163.021,245.313 1161.263,245.313 1159.115 C 245.313 1156.858,245.532 1155.208,245.833 1155.208 C 246.134 1155.208,246.354 1153.559,246.354 1151.302 C 246.354 1149.045,246.574 1147.396,246.875 1147.396 C 247.173 1147.396,247.396 1145.833,247.396 1143.750 C 247.396 1141.667,247.619 1140.104,247.917 1140.104 C 248.210 1140.104,248.438 1138.628,248.438 1136.719 C 248.438 1134.809,248.665 1133.333,248.958 1133.333 C 249.266 1133.333,249.479 1131.458,249.479 1128.750 C 249.479 1126.229,249.719 1123.927,250.012 1123.634 C 251.109 1122.537,250.065 1072.293,248.920 1071.120 C 248.655 1070.848,248.438 1069.734,248.438 1068.646 C 248.438 1067.557,248.203 1066.667,247.917 1066.667 C 247.630 1066.667,247.396 1065.495,247.396 1064.063 C 247.396 1062.630,247.161 1061.458,246.875 1061.458 C 246.589 1061.458,246.354 1060.769,246.354 1059.927 C 246.354 1059.084,246.120 1058.250,245.833 1058.073 C 245.547 1057.896,245.313 1056.593,245.313 1055.178 C 245.313 1053.762,245.078 1052.604,244.792 1052.604 C 244.112 1052.604,244.112 1047.555,244.792 1047.135 C 245.092 1046.950,245.313 1044.179,245.313 1040.594 C 245.313 1036.795,245.110 1034.375,244.792 1034.375 C 244.492 1034.375,244.257 1032.661,244.239 1030.339 C 244.221 1028.118,243.987 1024.544,243.718 1022.396 C 243.449 1020.247,243.082 1017.255,242.903 1015.746 C 242.724 1014.236,242.373 1012.875,242.122 1012.720 C 241.872 1012.565,241.667 1011.412,241.667 1010.156 C 241.667 1008.901,241.432 1007.729,241.146 1007.552 C 240.859 1007.375,240.625 1006.189,240.625 1004.917 C 240.625 1003.645,240.391 1002.604,240.104 1002.604 C 239.818 1002.604,239.583 1001.329,239.583 999.770 C 239.583 998.212,239.349 996.792,239.063 996.615 C 238.763 996.429,238.542 993.668,238.542 990.104 C 238.542 986.540,238.321 983.779,238.021 983.594 C 237.734 983.417,237.500 981.997,237.500 980.438 C 237.500 978.879,237.266 977.604,236.979 977.604 C 236.693 977.604,236.458 976.315,236.458 974.740 C 236.458 973.164,236.224 971.875,235.938 971.875 C 235.651 971.875,235.417 970.703,235.417 969.271 C 235.417 967.839,235.182 966.667,234.896 966.667 C 234.595 966.667,234.375 965.028,234.375 962.791 C 234.375 960.660,234.609 958.771,234.896 958.594 C 235.182 958.417,235.417 957.348,235.417 956.219 C 235.417 955.090,235.651 954.167,235.938 954.167 C 236.224 954.167,236.458 953.346,236.458 952.344 C 236.458 951.341,236.693 950.521,236.979 950.521 C 237.266 950.521,237.500 949.949,237.500 949.249 C 237.500 948.550,237.734 947.833,238.021 947.656 C 238.307 947.479,238.542 946.879,238.542 946.323 C 238.542 945.767,238.776 945.313,239.063 945.313 C 239.349 945.313,239.583 944.858,239.583 944.302 C 239.583 943.746,239.818 943.146,240.104 942.969 C 240.391 942.792,240.625 941.723,240.625 940.594 C 240.625 939.465,240.836 938.542,241.093 938.542 C 241.351 938.542,241.682 937.546,241.828 936.328 C 241.975 935.111,242.360 933.060,242.685 931.771 C 243.010 930.482,243.550 927.611,243.885 925.391 C 244.220 923.171,244.678 921.354,244.903 921.354 C 245.128 921.354,245.313 920.196,245.313 918.781 C 245.313 917.365,245.547 916.062,245.833 915.885 C 246.120 915.708,246.354 913.937,246.354 911.948 C 246.354 909.886,246.578 908.333,246.875 908.333 C 247.178 908.333,247.396 906.607,247.396 904.197 C 247.396 901.923,247.630 899.917,247.917 899.740 C 248.203 899.563,248.438 897.922,248.438 896.094 C 248.438 894.266,248.672 892.625,248.958 892.448 C 249.245 892.271,249.479 890.851,249.479 889.292 C 249.479 887.734,249.714 886.458,250.000 886.458 C 250.298 886.458,250.521 884.896,250.521 882.813 C 250.521 880.729,250.744 879.167,251.042 879.167 C 251.348 879.167,251.563 877.334,251.563 874.709 C 251.563 871.696,251.383 870.362,251.009 870.593 C 250.625 870.831,250.545 869.054,250.749 864.764 C 251.459 849.790,251.606 838.441,251.098 837.829 C 250.809 837.480,250.515 833.865,250.446 829.795 C 250.376 825.725,250.131 822.396,249.899 822.396 C 249.668 822.396,249.479 820.404,249.479 817.969 C 249.479 814.779,249.297 813.539,248.828 813.534 C 248.425 813.529,248.375 813.380,248.698 813.143 C 249.440 812.598,249.358 808.854,248.604 808.854 C 248.175 808.854,248.119 809.305,248.417 810.347 M178.864 1076.879 C 179.317 1077.053,179.688 1077.638,179.688 1078.181 C 179.688 1078.723,179.922 1079.167,180.208 1079.167 C 180.522 1079.167,180.729 1081.327,180.729 1084.605 C 180.729 1087.668,180.502 1090.183,180.208 1090.365 C 179.922 1090.542,179.688 1091.727,179.688 1092.999 C 179.688 1094.272,179.453 1095.313,179.167 1095.313 C 178.880 1095.313,178.646 1095.687,178.646 1096.145 C 178.646 1096.603,177.943 1097.635,177.083 1098.438 C 176.122 1099.335,175.521 1100.418,175.521 1101.251 C 175.521 1102.450,175.314 1102.604,173.698 1102.604 C 172.695 1102.604,171.875 1102.822,171.875 1103.088 C 171.875 1103.354,171.582 1103.881,171.224 1104.260 C 168.673 1106.956,168.976 1115.625,171.622 1115.625 C 172.047 1115.625,172.396 1115.859,172.396 1116.146 C 172.396 1116.432,172.146 1116.667,171.840 1116.667 C 170.830 1116.667,171.911 1130.889,172.972 1131.544 C 173.228 1131.703,173.438 1132.639,173.438 1133.624 C 173.438 1134.610,173.672 1135.417,173.958 1135.417 C 174.245 1135.417,174.479 1135.885,174.479 1136.458 C 174.479 1137.031,174.714 1137.500,175.000 1137.500 C 175.286 1137.500,175.521 1137.969,175.521 1138.542 C 175.521 1139.115,175.755 1139.583,176.042 1139.583 C 176.328 1139.583,176.565 1139.993,176.567 1140.495 C 176.570 1140.996,177.314 1141.992,178.221 1142.708 C 179.129 1143.424,180.164 1144.303,180.523 1144.661 C 180.882 1145.020,181.427 1145.313,181.734 1145.313 C 182.041 1145.313,182.292 1145.547,182.292 1145.833 C 182.292 1146.120,182.585 1146.359,182.943 1146.366 C 183.301 1146.372,184.180 1146.836,184.896 1147.396 C 185.612 1147.956,186.725 1148.420,187.370 1148.426 C 188.014 1148.432,188.542 1148.672,188.542 1148.958 C 188.542 1149.248,189.931 1149.479,191.667 1149.479 C 193.403 1149.479,194.792 1149.711,194.792 1150.000 C 194.792 1150.286,195.846 1150.521,197.135 1150.521 C 198.424 1150.521,199.479 1150.286,199.479 1150.000 C 199.479 1149.714,200.417 1149.479,201.563 1149.479 C 202.708 1149.479,203.646 1149.245,203.646 1148.958 C 203.646 1148.672,204.115 1148.438,204.688 1148.438 C 205.260 1148.438,205.729 1148.260,205.729 1148.044 C 205.729 1147.827,206.491 1147.314,207.422 1146.903 C 209.306 1146.072,214.583 1141.120,214.583 1140.183 C 214.583 1139.853,214.818 1139.583,215.104 1139.583 C 215.391 1139.583,215.625 1139.115,215.625 1138.542 C 215.625 1137.969,215.817 1137.500,216.052 1137.500 C 216.287 1137.500,217.391 1135.566,218.506 1133.203 C 219.621 1130.840,220.718 1128.828,220.944 1128.733 C 221.169 1128.637,221.354 1127.875,221.354 1127.040 C 221.354 1126.204,221.589 1125.521,221.875 1125.521 C 222.181 1125.521,222.396 1123.698,222.396 1121.094 C 222.396 1118.490,222.610 1116.667,222.917 1116.667 C 223.203 1116.667,223.438 1116.212,223.438 1115.656 C 223.438 1115.100,223.672 1114.500,223.958 1114.323 C 224.245 1114.146,224.479 1112.726,224.479 1111.167 C 224.479 1109.609,224.245 1108.333,223.958 1108.333 C 223.672 1108.333,223.438 1108.088,223.438 1107.789 C 223.438 1106.953,220.982 1104.688,220.076 1104.688 C 219.633 1104.688,219.271 1104.453,219.271 1104.167 C 219.271 1103.880,219.026 1103.646,218.726 1103.646 C 217.434 1103.646,214.583 1099.708,214.583 1097.924 C 214.583 1097.347,214.349 1096.875,214.063 1096.875 C 213.776 1096.875,213.542 1095.938,213.542 1094.792 C 213.542 1093.646,213.307 1092.708,213.021 1092.708 C 212.734 1092.708,212.500 1091.536,212.500 1090.104 C 212.500 1088.672,212.266 1087.500,211.979 1087.500 C 211.683 1087.500,211.458 1085.971,211.458 1083.954 L 211.458 1080.409 213.456 1079.527 C 214.555 1079.043,215.844 1078.646,216.321 1078.646 C 216.798 1078.646,217.188 1078.395,217.188 1078.088 C 217.188 1076.794,218.619 1079.087,218.966 1080.937 C 219.173 1082.039,219.552 1083.322,219.808 1083.788 C 220.928 1085.823,222.396 1089.315,222.396 1089.942 C 222.396 1090.317,222.630 1090.625,222.917 1090.625 C 223.203 1090.625,223.438 1091.211,223.438 1091.927 C 223.438 1092.643,223.672 1093.229,223.958 1093.229 C 224.245 1093.229,224.479 1093.932,224.479 1094.792 C 224.479 1095.651,224.714 1096.354,225.000 1096.354 C 225.286 1096.354,225.521 1097.057,225.521 1097.917 C 225.521 1098.776,225.697 1099.481,225.911 1099.483 C 226.126 1099.485,226.595 1100.118,226.953 1100.889 C 227.747 1102.598,227.859 1113.542,227.083 1113.542 C 226.753 1113.542,226.563 1117.373,226.563 1123.993 C 226.563 1130.555,226.351 1134.839,225.993 1135.507 C 225.582 1136.276,225.582 1136.728,225.993 1137.139 C 226.306 1137.452,226.563 1138.937,226.563 1140.438 C 226.563 1141.939,226.797 1143.313,227.083 1143.490 C 227.370 1143.667,227.604 1144.956,227.604 1146.354 C 227.604 1147.753,227.370 1149.042,227.083 1149.219 C 226.797 1149.396,226.563 1150.464,226.563 1151.593 C 226.563 1152.722,226.328 1153.646,226.042 1153.646 C 225.755 1153.646,225.521 1154.452,225.521 1155.438 C 225.521 1156.424,225.286 1157.375,225.000 1157.552 C 224.714 1157.729,224.479 1159.618,224.479 1161.749 C 224.479 1163.986,224.259 1165.625,223.958 1165.625 C 223.648 1165.625,223.438 1167.587,223.438 1170.469 C 223.438 1173.133,223.216 1175.535,222.946 1175.807 C 222.675 1176.079,222.334 1179.349,222.187 1183.073 C 221.808 1192.654,221.391 1197.493,220.840 1198.698 C 220.577 1199.271,220.240 1200.911,220.090 1202.344 C 219.941 1203.776,219.544 1207.585,219.210 1210.807 C 218.875 1214.030,218.400 1216.667,218.155 1216.667 C 217.909 1216.667,217.708 1217.473,217.708 1218.459 C 217.708 1219.445,217.474 1220.396,217.188 1220.573 C 216.901 1220.750,216.667 1221.592,216.667 1222.444 C 216.667 1224.576,213.639 1227.604,211.506 1227.604 C 210.654 1227.604,209.812 1227.839,209.635 1228.125 C 209.450 1228.425,206.689 1228.646,203.125 1228.646 C 199.561 1228.646,196.800 1228.867,196.615 1229.167 C 196.438 1229.453,195.838 1229.688,195.282 1229.688 C 194.726 1229.688,194.271 1229.453,194.271 1229.167 C 194.271 1228.880,193.685 1228.646,192.969 1228.646 C 192.253 1228.646,191.667 1228.411,191.667 1228.125 C 191.667 1227.836,190.278 1227.604,188.542 1227.604 C 186.806 1227.604,185.417 1227.373,185.417 1227.083 C 185.417 1226.797,184.259 1226.563,182.843 1226.563 C 181.428 1226.563,180.125 1226.328,179.948 1226.042 C 179.771 1225.755,178.568 1225.521,177.276 1225.521 C 175.983 1225.521,174.649 1225.228,174.312 1224.870 C 173.283 1223.779,171.354 1219.755,171.354 1218.701 C 171.354 1218.155,171.120 1217.708,170.833 1217.708 C 170.544 1217.708,170.313 1216.319,170.313 1214.583 C 170.313 1212.847,170.081 1211.458,169.792 1211.458 C 169.489 1211.458,169.260 1209.661,169.244 1207.161 C 169.229 1204.798,168.977 1201.224,168.682 1199.219 C 168.388 1197.214,167.944 1187.604,167.696 1177.865 C 167.218 1159.085,166.873 1153.691,166.102 1152.891 C 165.840 1152.618,165.625 1151.740,165.625 1150.938 C 165.625 1150.135,165.391 1149.479,165.104 1149.479 C 164.790 1149.479,164.583 1147.319,164.583 1144.041 C 164.583 1140.978,164.811 1138.463,165.104 1138.281 C 165.391 1138.104,165.625 1136.684,165.625 1135.126 C 165.625 1133.567,165.859 1132.292,166.146 1132.292 C 166.481 1132.292,166.667 1126.810,166.667 1116.889 C 166.667 1101.816,166.695 1101.400,167.983 1097.488 C 169.370 1093.276,171.347 1088.921,172.005 1088.628 C 172.220 1088.533,172.396 1088.006,172.396 1087.457 C 172.396 1086.908,172.630 1086.458,172.917 1086.458 C 173.203 1086.458,173.438 1085.990,173.438 1085.417 C 173.438 1084.844,173.672 1084.375,173.958 1084.375 C 174.245 1084.375,174.479 1083.672,174.479 1082.813 C 174.479 1081.953,174.714 1081.250,175.000 1081.250 C 175.286 1081.250,175.521 1080.547,175.521 1079.688 C 175.521 1078.828,175.755 1078.125,176.042 1078.125 C 176.328 1078.125,176.563 1077.773,176.563 1077.344 C 176.563 1076.526,177.468 1076.343,178.864 1076.879 "
                  stroke="none"
                  fill="#e7e7e7"
                  fill-rule="evenodd"
                ></path>
                <path
                  id="path1"
                  d="M0.521 623.948 L 0.521 626.563 46.615 626.563 C 89.546 626.563,94.084 626.692,92.188 627.865 C 91.901 628.042,91.667 628.979,91.667 629.948 C 91.667 630.917,91.901 631.854,92.188 632.031 C 92.474 632.208,92.712 633.101,92.716 634.015 C 92.722 635.280,92.845 635.490,93.229 634.896 C 93.611 634.305,93.736 634.534,93.742 635.838 C 93.747 636.839,93.966 637.428,94.265 637.243 C 94.560 637.061,94.647 637.270,94.470 637.733 C 94.299 638.178,94.392 638.542,94.677 638.542 C 94.961 638.542,96.431 639.703,97.944 641.123 C 99.456 642.543,100.889 643.584,101.128 643.436 C 101.367 643.289,101.563 643.416,101.563 643.719 C 101.563 644.023,101.928 644.271,102.374 644.271 C 102.821 644.271,103.042 644.505,102.865 644.792 C 102.688 645.078,103.009 645.313,103.580 645.313 C 104.156 645.313,104.763 645.771,104.945 646.344 C 105.125 646.911,105.433 647.352,105.631 647.324 C 106.701 647.171,107.258 647.510,107.574 648.506 C 107.851 649.379,108.024 649.462,108.382 648.897 C 108.648 648.477,108.842 648.423,108.846 648.767 C 108.857 649.555,110.935 650.082,110.945 649.300 C 110.951 648.873,111.071 648.883,111.358 649.335 C 111.690 649.857,131.204 650.268,143.681 650.014 C 144.134 650.005,144.293 649.622,144.120 648.958 C 143.931 648.235,144.111 647.904,144.710 647.876 C 145.251 647.850,145.330 647.736,144.922 647.572 C 144.564 647.427,144.271 646.846,144.271 646.280 C 144.271 645.714,144.466 645.371,144.703 645.518 C 145.333 645.907,145.459 640.309,144.846 639.165 C 144.561 638.632,144.271 637.102,144.202 635.765 C 144.108 633.942,143.869 633.333,143.248 633.333 C 142.792 633.333,141.874 632.952,141.209 632.485 C 140.533 632.012,138.697 631.569,137.056 631.483 C 135.438 631.398,133.411 631.202,132.552 631.048 C 131.693 630.894,130.228 630.712,129.297 630.642 C 128.366 630.573,127.604 630.372,127.604 630.196 C 127.604 630.020,126.432 629.557,125.000 629.167 C 123.568 628.777,122.396 628.266,122.396 628.031 C 122.396 627.796,121.707 627.604,120.864 627.604 C 120.022 627.604,119.187 627.370,119.010 627.083 C 118.796 626.737,143.311 626.563,192.157 626.563 C 232.564 626.563,265.625 626.690,265.625 626.847 C 265.625 627.321,263.279 629.418,262.583 629.565 C 262.225 629.641,261.374 629.749,260.691 629.806 C 260.009 629.862,259.564 630.093,259.704 630.319 C 259.843 630.545,258.903 630.729,257.614 630.729 C 256.324 630.729,255.144 630.933,254.990 631.183 C 254.835 631.432,253.943 631.634,253.006 631.632 C 248.851 631.622,246.722 633.947,246.558 638.672 C 246.501 640.319,246.666 641.667,246.925 641.667 C 247.184 641.667,247.396 641.915,247.396 642.218 C 247.396 642.522,247.161 642.625,246.875 642.448 C 246.589 642.271,246.354 642.589,246.354 643.155 C 246.354 643.721,246.594 644.264,246.886 644.361 C 247.179 644.459,247.451 645.426,247.492 646.510 C 247.533 647.594,247.799 648.625,248.082 648.800 C 248.393 648.993,248.431 648.848,248.177 648.438 C 247.881 647.958,247.958 647.881,248.436 648.176 C 248.975 648.509,248.938 648.727,248.256 649.225 C 247.186 650.008,247.130 651.389,248.169 651.389 C 248.729 651.389,248.793 651.209,248.401 650.737 C 247.970 650.218,251.044 650.073,263.505 650.023 C 276.907 649.970,279.108 650.068,278.862 650.709 C 278.704 651.120,278.822 651.610,279.125 651.797 C 279.460 652.004,279.554 651.821,279.365 651.329 C 279.194 650.883,279.328 650.521,279.663 650.521 C 279.997 650.521,280.125 650.286,279.948 650.000 C 279.771 649.714,279.991 649.479,280.438 649.479 C 280.911 649.479,281.250 649.031,281.250 648.407 C 281.250 647.817,281.484 647.479,281.771 647.656 C 282.057 647.833,282.292 647.613,282.292 647.166 C 282.292 646.720,282.467 646.382,282.682 646.416 C 283.841 646.599,284.375 646.241,284.375 645.282 C 284.375 644.692,284.612 644.356,284.902 644.535 C 285.191 644.714,286.129 644.160,286.985 643.304 C 287.841 642.447,288.557 641.905,288.575 642.097 C 288.593 642.290,288.818 641.924,289.076 641.285 C 289.378 640.531,289.826 640.230,290.345 640.429 C 290.909 640.646,291.146 640.413,291.146 639.639 C 291.146 639.035,291.394 638.542,291.697 638.542 C 292.001 638.542,292.104 638.776,291.927 639.063 C 291.750 639.349,291.730 639.583,291.883 639.583 C 292.484 639.583,293.724 636.477,293.430 635.710 C 293.258 635.262,293.377 634.896,293.694 634.896 C 294.040 634.896,294.271 633.840,294.271 632.261 C 294.271 630.637,294.471 629.750,294.792 629.948 C 295.092 630.134,295.309 629.651,295.305 628.807 C 295.298 627.671,295.184 627.518,294.792 628.125 C 294.383 628.757,294.285 628.682,294.279 627.734 L 294.271 626.563 347.135 626.563 L 400.000 626.563 400.000 623.958 L 400.000 621.354 347.240 621.354 C 309.871 621.354,294.314 621.520,293.912 621.922 C 293.513 622.320,289.342 622.383,279.875 622.132 C 266.906 621.788,131.078 621.527,106.510 621.799 C 99.922 621.872,73.379 621.797,47.526 621.632 L 0.521 621.333 0.521 623.948 "
                  stroke="none"
                  fill="#565557"
                  fill-rule="evenodd"
                ></path>
                <path
                  id="path2"
                  d="M144.618 645.139 C 144.081 645.676,144.208 647.396,144.786 647.396 C 145.069 647.396,145.252 646.810,145.193 646.094 C 145.072 644.632,145.092 644.665,144.618 645.139 M144.271 648.958 C 144.731 649.818,144.666 650.003,143.899 650.014 C 129.496 650.238,111.696 649.866,111.358 649.335 C 111.041 648.836,110.952 648.835,110.945 649.333 C 110.936 650.052,109.338 649.621,108.732 648.736 C 108.475 648.360,108.347 648.391,108.341 648.829 C 108.337 649.187,109.212 650.363,110.286 651.442 C 112.926 654.093,114.583 656.150,114.583 656.775 C 114.583 657.059,114.774 657.292,115.007 657.292 C 115.240 657.292,115.748 658.101,116.137 659.091 C 116.525 660.081,117.074 660.747,117.356 660.573 C 117.638 660.398,117.728 660.485,117.555 660.764 C 117.382 661.044,117.580 661.927,117.995 662.727 C 118.410 663.527,118.750 664.506,118.750 664.903 C 118.750 665.300,119.023 665.625,119.358 665.625 C 119.692 665.625,119.827 665.763,119.658 665.933 C 119.489 666.102,119.649 667.098,120.014 668.146 C 120.379 669.194,120.576 670.345,120.452 670.703 C 120.327 671.061,120.450 671.354,120.725 671.354 C 121.124 671.354,121.633 672.840,121.883 674.735 C 121.901 674.873,122.258 675.956,122.677 677.142 C 123.095 678.327,123.438 679.971,123.438 680.795 C 123.438 681.618,123.672 682.292,123.958 682.292 C 124.245 682.292,124.479 683.092,124.479 684.071 C 124.479 685.050,124.695 685.929,124.959 686.024 C 125.222 686.120,125.499 687.487,125.574 689.063 C 125.648 690.638,125.888 692.050,126.106 692.200 C 126.324 692.350,126.549 694.407,126.606 696.772 C 126.663 699.137,126.911 701.196,127.157 701.348 C 127.403 701.500,127.604 704.071,127.604 707.062 C 127.604 710.299,127.813 712.500,128.119 712.500 C 128.402 712.500,128.587 713.069,128.530 713.765 C 128.472 714.460,128.240 714.915,128.015 714.775 C 127.789 714.636,127.604 714.862,127.604 715.278 C 127.604 716.046,128.849 716.810,129.325 716.334 C 129.469 716.191,135.135 716.098,141.918 716.127 C 148.700 716.156,154.143 715.997,154.013 715.772 C 153.883 715.548,153.965 714.896,154.195 714.323 C 154.534 713.482,154.621 713.451,154.651 714.162 C 154.671 714.646,154.901 715.175,155.163 715.336 C 155.854 715.764,155.541 714.310,154.731 713.334 C 154.351 712.875,154.198 712.500,154.393 712.500 C 154.587 712.500,154.399 712.004,153.975 711.399 C 153.551 710.793,153.321 709.991,153.464 709.618 C 153.608 709.244,153.335 708.344,152.859 707.617 C 152.383 706.890,152.161 706.025,152.366 705.694 C 152.570 705.363,152.474 704.929,152.153 704.730 C 151.831 704.531,151.517 703.754,151.455 703.003 C 151.392 702.252,151.157 701.752,150.931 701.891 C 150.574 702.112,150.261 700.003,150.472 698.789 C 150.513 698.553,150.306 698.509,150.013 698.690 C 149.680 698.896,149.479 698.167,149.479 696.749 C 149.479 695.501,149.263 694.257,149.000 693.984 C 148.736 693.712,148.455 692.435,148.374 691.146 C 148.294 689.857,148.053 688.679,147.840 688.528 C 147.626 688.378,147.393 687.264,147.322 686.054 C 147.251 684.844,147.004 683.854,146.773 683.854 C 146.543 683.854,146.354 682.930,146.354 681.802 C 146.354 680.673,146.120 679.604,145.833 679.427 C 145.547 679.250,145.313 678.064,145.313 676.792 C 145.313 675.520,145.078 674.479,144.792 674.479 C 144.505 674.479,144.271 673.424,144.271 672.135 C 144.271 670.769,144.030 669.792,143.694 669.792 C 143.377 669.792,143.262 669.415,143.439 668.955 C 143.616 668.494,143.522 667.234,143.232 666.155 C 142.941 665.075,142.570 663.401,142.407 662.435 C 141.568 657.451,141.567 656.796,142.395 655.968 C 142.854 655.509,143.229 654.799,143.229 654.390 C 143.229 653.981,143.464 653.646,143.750 653.646 C 144.036 653.646,144.271 652.957,144.271 652.114 C 144.271 651.272,144.505 650.437,144.792 650.260 C 145.617 649.750,145.399 647.917,144.513 647.917 C 143.875 647.917,143.826 648.127,144.271 648.958 M247.640 648.464 C 247.145 649.264,247.823 649.781,248.492 649.113 C 248.866 648.739,248.875 648.447,248.519 648.227 C 248.227 648.047,247.832 648.153,247.640 648.464 M248.257 651.214 C 248.403 651.836,248.568 652.813,248.625 653.385 C 248.682 653.958,248.854 654.661,249.008 654.948 C 249.257 655.415,249.247 656.562,248.990 656.901 C 248.935 656.973,248.773 658.317,248.628 659.887 C 248.484 661.458,248.113 662.899,247.805 663.090 C 247.496 663.281,247.377 663.783,247.539 664.206 C 247.701 664.629,247.551 665.531,247.205 666.211 C 246.859 666.891,246.519 668.259,246.448 669.250 C 246.378 670.242,246.065 671.211,245.753 671.404 C 245.441 671.597,245.301 672.075,245.442 672.466 C 245.583 672.857,245.420 673.880,245.081 674.740 C 244.742 675.599,244.489 677.064,244.519 677.995 C 244.549 678.926,244.388 679.688,244.161 679.688 C 243.935 679.688,243.750 680.639,243.750 681.802 C 243.750 683.078,243.544 683.788,243.229 683.594 C 242.930 683.409,242.708 683.880,242.708 684.698 C 242.708 686.145,241.913 689.102,241.082 690.748 C 240.831 691.246,240.625 692.359,240.625 693.222 C 240.625 694.085,240.436 694.792,240.206 694.792 C 239.976 694.792,239.729 695.788,239.659 697.005 C 239.589 698.223,239.308 699.297,239.036 699.392 C 238.764 699.488,238.542 700.119,238.542 700.794 C 238.542 701.469,238.307 702.167,238.021 702.344 C 237.734 702.521,237.500 703.316,237.500 704.111 C 237.500 704.905,237.338 705.718,237.139 705.916 C 236.941 706.115,236.701 706.788,236.605 707.413 C 236.510 708.037,236.145 708.734,235.794 708.962 C 235.308 709.277,235.342 709.497,235.938 709.888 C 236.506 710.261,236.533 710.403,236.037 710.409 C 235.662 710.413,235.474 710.609,235.620 710.845 C 235.765 711.080,235.603 711.842,235.260 712.537 C 233.588 715.924,233.419 715.871,246.330 716.026 C 254.888 716.129,258.133 716.338,258.431 716.807 C 258.716 717.256,258.841 717.175,258.846 716.536 C 258.851 716.035,259.147 715.684,259.505 715.755 C 259.953 715.845,260.185 715.009,260.247 713.076 C 260.297 711.531,260.551 710.125,260.813 709.951 C 261.074 709.777,261.305 708.874,261.326 707.943 C 261.347 707.012,261.385 705.416,261.411 704.396 C 261.439 703.303,261.672 702.675,261.979 702.865 C 262.302 703.064,262.500 702.099,262.500 700.322 C 262.500 698.746,262.734 697.312,263.021 697.135 C 263.307 696.958,263.542 695.787,263.542 694.531 C 263.542 693.276,263.776 692.104,264.063 691.927 C 264.349 691.750,264.583 690.721,264.583 689.639 C 264.583 688.558,264.759 687.498,264.974 687.283 C 265.427 686.830,265.472 686.581,265.560 684.084 C 265.605 682.812,265.816 682.348,266.234 682.607 C 266.622 682.846,266.742 682.716,266.563 682.247 C 266.409 681.842,266.521 680.924,266.812 680.208 C 267.103 679.492,267.429 678.451,267.537 677.894 C 267.645 677.337,268.079 676.188,268.502 675.340 C 268.925 674.492,269.271 673.248,269.271 672.576 C 269.271 671.904,269.505 671.354,269.792 671.354 C 270.078 671.354,270.313 670.651,270.313 669.792 C 270.313 668.932,270.547 668.229,270.833 668.229 C 271.120 668.229,271.354 667.643,271.354 666.927 C 271.354 666.211,271.589 665.625,271.875 665.625 C 272.161 665.625,272.396 665.053,272.396 664.354 C 272.396 663.654,272.630 662.937,272.917 662.760 C 273.203 662.583,273.438 662.013,273.438 661.493 C 273.438 660.238,275.988 655.717,276.891 655.370 C 277.283 655.220,277.604 654.799,277.604 654.435 C 277.604 654.071,277.961 653.477,278.397 653.115 C 278.879 652.716,279.070 652.026,278.884 651.359 C 278.646 650.507,278.696 650.433,279.104 651.027 C 279.394 651.448,279.813 651.611,280.035 651.389 C 281.156 650.268,277.827 649.997,263.450 650.039 L 247.993 650.085 248.257 651.214 "
                  stroke="none"
                  fill="#8c8c8c"
                  fill-rule="evenodd"
                ></path>
                <path
                  id="path3"
                  d="M260.288 711.202 C 260.086 712.260,260.174 712.397,260.748 711.920 C 261.541 711.262,261.710 709.896,260.998 709.896 C 260.745 709.896,260.426 710.484,260.288 711.202 M235.000 711.563 C 234.283 712.280,234.143 713.746,234.833 713.320 C 235.226 713.077,236.034 710.938,235.732 710.938 C 235.673 710.938,235.344 711.219,235.000 711.563 M127.854 713.531 C 127.968 715.075,128.408 715.235,128.528 713.777 C 128.587 713.075,128.442 712.500,128.206 712.500 C 127.971 712.500,127.812 712.964,127.854 713.531 M154.165 714.323 C 154.098 714.896,154.074 715.548,154.111 715.772 C 154.148 715.997,148.671 716.156,141.941 716.127 C 135.211 716.098,129.466 716.221,129.175 716.401 C 128.294 716.946,128.583 717.695,129.557 717.392 C 130.387 717.134,130.385 717.163,129.531 717.709 C 128.527 718.353,128.253 727.083,129.237 727.083 C 129.485 727.083,129.688 729.427,129.688 732.292 C 129.688 735.417,129.896 737.500,130.208 737.500 C 130.514 737.500,130.729 739.313,130.729 741.896 C 130.729 744.314,130.929 746.416,131.174 746.567 C 131.418 746.719,131.785 748.666,131.989 750.895 C 132.407 755.457,133.416 760.673,133.992 761.249 C 134.203 761.460,134.375 762.399,134.375 763.337 C 134.375 764.275,134.609 765.188,134.896 765.365 C 135.182 765.542,135.417 766.493,135.417 767.479 C 135.417 768.464,135.651 769.271,135.938 769.271 C 136.224 769.271,136.458 770.195,136.458 771.323 C 136.458 772.452,136.693 773.521,136.979 773.698 C 137.266 773.875,137.500 774.957,137.500 776.103 C 137.500 777.359,137.707 778.059,138.021 777.865 C 138.344 777.665,138.542 778.640,138.542 780.438 C 138.542 782.030,138.776 783.333,139.063 783.333 C 139.349 783.333,139.583 784.286,139.583 785.451 C 139.583 786.616,139.820 788.010,140.108 788.550 C 140.397 789.089,140.678 791.066,140.732 792.942 C 140.786 794.819,141.018 796.354,141.248 796.354 C 141.478 796.354,141.667 798.464,141.667 801.042 C 141.667 803.819,141.454 805.729,141.146 805.729 C 140.859 805.729,140.625 806.563,140.625 807.583 C 140.625 808.927,140.804 809.329,141.276 809.045 C 141.794 808.734,141.794 808.819,141.274 809.461 C 140.896 809.928,140.748 810.902,140.922 811.774 L 141.223 813.281 158.372 813.137 C 175.834 812.991,175.896 812.997,175.553 814.802 C 175.503 815.065,175.790 815.008,176.190 814.676 C 176.591 814.344,177.034 814.187,177.175 814.327 C 177.315 814.468,177.431 814.235,177.431 813.810 C 177.431 813.225,177.262 813.177,176.736 813.614 C 176.064 814.171,175.762 813.645,175.996 812.323 C 176.373 810.189,176.393 808.506,176.048 808.073 C 175.819 807.786,175.530 806.497,175.405 805.208 C 175.280 803.919,174.998 802.396,174.779 801.823 C 174.462 800.993,174.495 800.940,174.943 801.563 C 175.252 801.992,175.508 802.098,175.513 801.797 C 175.517 801.496,175.307 801.027,175.046 800.755 C 174.785 800.483,174.428 798.854,174.254 797.135 C 174.080 795.417,173.804 792.663,173.641 791.016 C 173.478 789.368,173.131 788.021,172.870 788.021 C 172.609 788.021,172.396 786.966,172.396 785.677 C 172.396 784.388,172.161 783.333,171.875 783.333 C 171.589 783.333,171.354 782.513,171.354 781.510 C 171.354 780.508,171.120 779.688,170.833 779.688 C 170.547 779.688,170.313 778.984,170.313 778.125 C 170.313 777.266,170.078 776.563,169.792 776.563 C 169.505 776.563,169.271 775.859,169.271 775.000 C 169.271 774.141,169.066 773.438,168.817 773.438 C 168.567 773.438,168.216 772.521,168.037 771.400 C 167.857 770.280,167.241 768.268,166.668 766.930 C 166.094 765.592,165.625 763.944,165.625 763.269 C 165.625 762.593,165.391 761.896,165.104 761.719 C 164.818 761.542,164.583 760.169,164.583 758.667 C 164.583 757.166,164.366 755.715,164.100 755.443 C 163.835 755.171,163.490 753.073,163.335 750.781 C 162.802 742.927,162.456 739.843,161.993 738.802 C 161.477 737.643,161.010 735.298,160.593 731.771 C 160.440 730.482,160.104 729.204,159.845 728.932 C 159.587 728.660,159.375 727.781,159.375 726.979 C 159.375 726.177,159.141 725.521,158.854 725.521 C 158.568 725.521,158.333 724.837,158.333 724.002 C 158.333 723.166,158.143 722.405,157.911 722.309 C 157.511 722.144,155.689 716.589,155.598 715.257 C 155.575 714.912,155.378 714.739,155.161 714.873 C 154.944 715.007,154.659 714.704,154.527 714.199 C 154.319 713.403,154.271 713.420,154.165 714.323 M233.600 714.573 C 233.427 714.853,233.554 715.585,233.882 716.198 C 234.242 716.870,234.265 717.181,233.942 716.981 C 233.283 716.574,232.637 717.536,232.404 719.271 C 232.307 719.987,231.891 721.253,231.479 722.085 C 231.067 722.917,230.729 724.016,230.729 724.528 C 230.729 725.040,230.495 725.604,230.208 725.781 C 229.922 725.958,229.688 726.675,229.688 727.374 C 229.688 728.074,229.453 728.646,229.167 728.646 C 228.880 728.646,228.646 729.570,228.646 730.698 C 228.646 731.827,228.411 732.896,228.125 733.073 C 227.839 733.250,227.604 734.318,227.604 735.447 C 227.604 736.576,227.391 737.500,227.132 737.500 C 226.688 737.500,226.538 738.413,225.741 745.964 C 225.567 747.611,225.212 748.958,224.952 748.958 C 224.692 748.958,224.479 750.130,224.479 751.563 C 224.479 752.995,224.245 754.167,223.958 754.167 C 223.672 754.167,223.438 755.225,223.438 756.517 C 223.438 757.810,223.226 759.275,222.967 759.773 C 222.709 760.270,222.223 761.732,221.887 763.021 C 220.704 767.560,218.485 774.221,218.099 774.392 C 217.884 774.488,217.708 775.015,217.708 775.564 C 217.708 776.113,217.474 776.563,217.188 776.563 C 216.901 776.563,216.667 777.135,216.667 777.834 C 216.667 778.533,216.432 779.250,216.146 779.427 C 215.859 779.604,215.625 780.424,215.625 781.250 C 215.625 782.076,215.391 782.896,215.104 783.073 C 214.818 783.250,214.583 784.539,214.583 785.938 C 214.583 787.336,214.343 788.629,214.049 788.811 C 213.755 788.992,213.548 789.416,213.590 789.753 C 213.850 791.862,213.467 800.536,213.123 800.324 C 212.893 800.181,212.717 802.394,212.732 805.241 C 212.748 808.088,212.605 810.417,212.415 810.417 C 212.225 810.417,212.313 811.061,212.610 811.849 L 213.151 813.281 231.316 813.281 C 241.307 813.281,249.246 813.203,248.959 813.108 C 248.672 813.012,248.438 812.705,248.438 812.426 C 248.438 812.146,248.623 812.032,248.850 812.173 C 249.077 812.313,249.292 811.682,249.328 810.771 C 249.389 809.225,249.365 809.201,248.967 810.417 C 248.444 812.016,248.409 811.689,248.342 804.557 C 248.316 801.764,248.092 799.479,247.845 799.479 C 247.598 799.479,247.396 797.839,247.396 795.833 C 247.396 793.485,247.604 792.188,247.980 792.188 C 248.361 792.188,248.316 791.881,247.850 791.306 C 247.365 790.707,247.344 790.550,247.786 790.816 C 248.291 791.119,248.438 789.969,248.438 785.708 C 248.438 782.389,248.644 780.208,248.958 780.208 C 249.245 780.208,249.479 779.271,249.479 778.125 C 249.479 776.979,249.714 776.042,250.000 776.042 C 250.286 776.042,250.521 775.235,250.521 774.249 C 250.521 773.264,250.755 772.312,251.042 772.135 C 251.328 771.958,251.563 771.021,251.563 770.052 C 251.563 769.083,251.797 768.146,252.083 767.969 C 252.370 767.792,252.604 766.840,252.604 765.855 C 252.604 764.869,252.839 764.063,253.125 764.063 C 253.411 764.063,253.646 763.495,253.646 762.802 C 253.646 762.109,254.006 760.136,254.447 758.417 C 255.372 754.803,255.661 753.067,256.086 748.568 C 256.254 746.777,256.595 745.313,256.842 745.313 C 257.089 745.313,257.292 743.789,257.292 741.927 C 257.292 740.017,257.519 738.542,257.813 738.542 C 258.119 738.542,258.333 736.719,258.333 734.115 C 258.333 731.680,258.536 729.688,258.783 729.688 C 259.031 729.688,259.275 727.892,259.326 725.696 C 259.377 723.501,259.544 721.502,259.698 721.252 C 260.506 719.945,260.496 715.799,259.685 715.799 C 259.228 715.799,258.851 716.170,258.846 716.623 C 258.840 717.220,258.726 717.271,258.431 716.807 C 258.133 716.338,254.888 716.129,246.330 716.026 C 235.525 715.896,234.647 715.816,234.788 714.974 C 234.952 714.001,234.126 713.722,233.600 714.573 "
                  stroke="none"
                  fill="#949494"
                  fill-rule="evenodd"
                ></path>
                <path
                  id="path4"
                  d="M188.542 2.083 C 188.542 2.370,187.604 2.604,186.458 2.604 C 185.313 2.604,184.375 2.839,184.375 3.125 C 184.375 3.411,183.920 3.646,183.364 3.646 C 182.808 3.646,182.208 3.880,182.031 4.167 C 181.854 4.453,181.274 4.688,180.742 4.688 C 180.210 4.688,179.696 4.867,179.601 5.086 C 179.376 5.600,173.940 7.292,172.511 7.292 C 171.909 7.292,171.271 7.526,171.094 7.813 C 170.917 8.099,170.431 8.333,170.014 8.333 C 169.007 8.333,160.417 16.952,160.417 17.961 C 160.417 18.395,160.233 18.750,160.010 18.750 C 159.786 18.750,159.299 19.863,158.929 21.224 C 158.558 22.585,158.039 24.236,157.774 24.894 C 157.508 25.552,157.292 26.912,157.292 27.916 C 157.292 30.161,155.789 37.057,155.153 37.734 C 154.897 38.007,154.688 38.768,154.688 39.427 C 154.688 40.086,154.453 40.625,154.167 40.625 C 153.880 40.625,153.646 41.328,153.646 42.188 C 153.646 43.047,153.411 43.750,153.125 43.750 C 152.839 43.750,152.604 44.322,152.604 45.021 C 152.604 45.721,152.370 46.438,152.083 46.615 C 151.797 46.792,151.563 47.977,151.563 49.249 C 151.563 50.522,151.328 51.563,151.042 51.563 C 150.755 51.563,150.521 52.386,150.521 53.392 C 150.521 54.399,150.314 55.629,150.061 56.127 C 148.289 59.611,148.008 61.669,147.598 74.219 C 147.457 78.516,147.120 82.254,146.848 82.526 C 146.576 82.798,146.354 84.249,146.354 85.751 C 146.354 87.252,146.120 88.625,145.833 88.802 C 145.547 88.979,145.313 90.928,145.313 93.133 C 145.313 95.338,145.085 97.936,144.807 98.905 C 144.529 99.875,144.142 103.690,143.947 107.383 C 143.752 111.077,143.393 114.221,143.150 114.372 C 142.907 114.522,142.708 117.561,142.708 121.124 C 142.708 125.097,142.507 127.604,142.188 127.604 C 141.857 127.604,141.667 131.500,141.667 138.251 C 141.667 144.786,141.868 149.021,142.188 149.219 C 142.494 149.408,142.708 152.523,142.708 156.802 C 142.708 160.795,142.907 164.063,143.149 164.063 C 143.391 164.063,143.745 167.128,143.934 170.875 C 144.124 174.622,144.512 178.123,144.796 178.654 C 145.080 179.185,145.313 180.675,145.313 181.966 C 145.313 183.257,145.547 184.458,145.833 184.635 C 146.120 184.812,146.354 185.415,146.354 185.974 C 146.354 186.882,147.704 190.380,149.001 192.831 C 149.264 193.329,149.479 194.091,149.479 194.524 C 149.479 194.958,149.714 195.313,150.000 195.313 C 150.286 195.313,150.521 196.602,150.521 198.177 C 150.521 199.753,150.755 201.042,151.042 201.042 C 151.361 201.042,151.563 203.549,151.563 207.521 C 151.563 211.279,151.781 214.136,152.083 214.323 C 152.395 214.516,152.604 217.974,152.604 222.947 C 152.604 228.135,152.800 231.250,153.125 231.250 C 153.414 231.250,153.646 232.639,153.646 234.375 C 153.646 236.111,153.877 237.500,154.167 237.500 C 154.453 237.500,154.688 238.438,154.688 239.583 C 154.688 240.729,154.875 241.667,155.104 241.667 C 155.333 241.667,155.837 243.717,156.225 246.224 C 156.612 248.730,157.145 252.188,157.409 253.906 C 157.673 255.625,158.102 259.844,158.362 263.281 C 159.338 276.158,159.467 277.355,159.936 277.839 C 160.586 278.508,160.550 286.314,159.896 286.719 C 159.609 286.896,159.375 288.785,159.375 290.916 C 159.375 293.048,159.163 294.792,158.904 294.792 C 158.646 294.792,158.317 295.905,158.173 297.266 C 158.030 298.626,157.663 300.677,157.357 301.823 C 157.052 302.969,156.514 305.137,156.163 306.641 C 155.811 308.145,155.335 309.375,155.105 309.375 C 154.876 309.375,154.688 310.299,154.688 311.428 C 154.688 312.557,154.453 313.625,154.167 313.802 C 153.880 313.979,153.646 315.165,153.646 316.437 C 153.646 317.709,153.411 318.750,153.125 318.750 C 152.839 318.750,152.604 319.674,152.604 320.803 C 152.604 321.932,152.370 323.000,152.083 323.177 C 151.797 323.354,151.563 324.657,151.563 326.072 C 151.563 327.488,151.328 328.646,151.042 328.646 C 150.755 328.646,150.521 329.687,150.521 330.959 C 150.521 332.231,150.311 333.401,150.055 333.560 C 149.617 333.830,149.342 335.171,148.629 340.495 C 148.466 341.712,148.122 342.708,147.864 342.708 C 147.607 342.708,147.396 343.515,147.396 344.501 C 147.396 345.486,147.186 346.422,146.930 346.581 C 146.674 346.739,146.337 347.749,146.182 348.825 C 146.027 349.901,145.664 351.836,145.375 353.125 C 145.085 354.414,144.612 356.523,144.322 357.813 C 144.032 359.102,143.785 361.152,143.773 362.370 C 143.760 363.587,143.516 364.583,143.229 364.583 C 142.943 364.583,142.708 365.859,142.708 367.417 C 142.708 368.976,142.474 370.396,142.187 370.573 C 141.901 370.750,141.667 371.467,141.667 372.166 C 141.667 372.865,141.432 373.438,141.146 373.438 C 140.834 373.438,140.625 375.511,140.625 378.615 C 140.625 381.505,140.395 383.935,140.104 384.115 C 139.804 384.300,139.583 387.071,139.583 390.656 C 139.583 394.455,139.381 396.875,139.063 396.875 C 138.348 396.875,138.348 432.111,139.063 432.552 C 139.349 432.729,139.583 434.149,139.583 435.708 C 139.583 437.266,139.818 438.542,140.104 438.542 C 140.391 438.542,140.625 439.700,140.625 441.115 C 140.625 442.530,140.859 443.833,141.146 444.010 C 141.825 444.430,141.825 451.924,141.146 452.344 C 140.859 452.521,140.625 454.175,140.625 456.020 C 140.625 457.910,140.397 459.375,140.104 459.375 C 139.818 459.375,139.583 460.650,139.583 462.209 C 139.583 463.767,139.349 465.188,139.063 465.365 C 138.776 465.542,138.542 466.713,138.542 467.969 C 138.542 469.224,138.307 470.396,138.021 470.573 C 137.734 470.750,137.500 471.687,137.500 472.656 C 137.500 473.625,137.266 474.563,136.979 474.740 C 136.693 474.917,136.458 475.854,136.458 476.823 C 136.458 477.792,136.224 478.729,135.937 478.906 C 135.651 479.083,135.417 480.021,135.417 480.990 C 135.417 481.958,135.182 482.896,134.896 483.073 C 134.609 483.250,134.375 483.892,134.375 484.499 C 134.375 485.106,134.157 486.323,133.889 487.203 C 132.301 492.434,130.729 502.383,130.729 507.202 C 130.729 508.936,130.495 510.500,130.208 510.677 C 129.921 510.855,129.687 513.190,129.687 515.885 C 129.688 518.581,129.454 520.916,129.167 521.094 C 128.871 521.277,128.646 523.877,128.646 527.114 C 128.646 530.566,128.440 532.813,128.125 532.813 C 127.806 532.813,127.604 535.330,127.604 539.323 C 127.604 543.316,127.403 545.833,127.083 545.833 C 126.769 545.833,126.563 548.003,126.563 551.302 C 126.563 554.601,126.356 556.771,126.042 556.771 C 125.755 556.771,125.521 557.943,125.521 559.375 C 125.521 560.807,125.311 561.979,125.055 561.979 C 124.798 561.979,124.466 562.858,124.315 563.932 C 123.936 566.646,123.438 568.825,122.917 570.052 C 122.451 571.150,121.986 573.098,121.520 575.911 C 121.366 576.842,121.031 577.604,120.776 577.604 C 120.521 577.604,120.313 578.163,120.313 578.847 C 120.313 579.530,119.962 580.761,119.534 581.581 C 119.107 582.402,118.755 583.600,118.753 584.245 C 118.751 584.889,118.516 585.417,118.229 585.417 C 117.943 585.417,117.708 585.885,117.708 586.458 C 117.708 587.031,117.474 587.500,117.188 587.500 C 116.901 587.500,116.667 587.969,116.667 588.542 C 116.667 589.115,116.432 589.583,116.146 589.583 C 115.859 589.583,115.625 590.052,115.625 590.625 C 115.625 591.198,115.441 591.667,115.216 591.667 C 114.992 591.667,114.416 592.331,113.936 593.143 C 113.457 593.954,111.970 595.654,110.632 596.919 C 109.294 598.184,107.719 599.746,107.131 600.391 C 106.543 601.035,105.852 601.562,105.594 601.563 C 105.337 601.563,104.226 602.500,103.125 603.646 C 102.024 604.792,100.872 605.729,100.566 605.729 C 99.242 605.729,93.750 611.273,93.750 612.609 C 93.750 613.122,93.516 613.542,93.229 613.542 C 92.943 613.542,92.708 614.245,92.708 615.104 C 92.708 615.964,92.474 616.667,92.188 616.667 C 90.424 616.667,91.709 621.317,93.620 621.848 C 97.515 622.929,121.878 622.049,122.309 620.811 C 122.405 620.537,123.049 620.312,123.741 620.313 C 124.434 620.313,125.000 620.129,125.000 619.905 C 125.000 619.555,131.580 618.280,137.500 617.482 C 143.572 616.665,144.271 616.181,144.271 612.798 C 144.271 611.488,144.505 610.417,144.792 610.417 C 145.486 610.417,145.486 599.127,144.792 598.698 C 144.505 598.521,144.271 597.796,144.271 597.086 C 144.271 595.850,142.988 593.334,142.002 592.636 C 141.743 592.453,141.688 591.515,141.879 590.552 C 142.525 587.301,143.095 584.132,143.739 580.208 C 144.092 578.060,144.591 575.895,144.847 575.398 C 145.103 574.900,145.313 573.553,145.313 572.403 C 145.313 571.253,145.547 570.313,145.833 570.313 C 146.120 570.313,146.354 569.272,146.354 567.999 C 146.354 566.727,146.589 565.542,146.875 565.365 C 147.161 565.188,147.396 564.002,147.396 562.730 C 147.396 561.458,147.630 560.417,147.917 560.417 C 148.203 560.417,148.438 559.245,148.438 557.813 C 148.438 556.380,148.672 555.208,148.958 555.208 C 149.245 555.208,149.479 554.271,149.479 553.125 C 149.479 551.979,149.714 551.042,150.000 551.042 C 150.286 551.042,150.521 550.352,150.521 549.510 C 150.521 548.667,150.755 547.833,151.042 547.656 C 151.328 547.479,151.562 546.645,151.562 545.803 C 151.563 544.960,151.797 544.271,152.083 544.271 C 152.370 544.271,152.604 543.699,152.604 542.999 C 152.604 542.300,152.839 541.583,153.125 541.406 C 153.411 541.229,153.646 540.526,153.646 539.844 C 153.646 539.161,153.880 538.458,154.167 538.281 C 154.453 538.104,154.687 537.531,154.688 537.008 C 154.688 536.485,155.038 535.385,155.466 534.565 C 155.893 533.744,156.245 532.428,156.247 531.641 C 156.249 530.853,156.484 530.208,156.771 530.208 C 157.057 530.208,157.292 529.388,157.292 528.385 C 157.292 527.383,157.526 526.563,157.813 526.563 C 158.099 526.563,158.333 525.859,158.333 525.000 C 158.333 524.141,158.568 523.438,158.854 523.438 C 159.141 523.438,159.375 522.734,159.375 521.875 C 159.375 521.016,159.609 520.313,159.896 520.313 C 160.182 520.313,160.417 519.272,160.417 517.999 C 160.417 516.727,160.651 515.542,160.937 515.365 C 161.224 515.188,161.458 514.002,161.458 512.730 C 161.458 511.458,161.693 510.417,161.979 510.417 C 162.277 510.417,162.500 508.854,162.500 506.771 C 162.500 504.688,162.723 503.125,163.021 503.125 C 163.327 503.125,163.542 501.302,163.542 498.698 C 163.542 496.094,163.756 494.271,164.063 494.271 C 164.349 494.271,164.583 492.996,164.583 491.437 C 164.583 489.878,164.818 488.458,165.104 488.281 C 165.391 488.104,165.625 487.281,165.625 486.452 C 165.625 485.623,165.889 484.289,166.211 483.488 C 166.533 482.687,166.985 481.563,167.215 480.990 C 167.445 480.417,168.015 478.659,168.480 477.083 C 168.946 475.508,169.548 473.812,169.819 473.314 C 170.091 472.817,170.313 471.938,170.313 471.361 C 170.313 470.784,170.547 470.313,170.833 470.313 C 171.120 470.313,171.354 469.506,171.354 468.520 C 171.354 467.535,171.589 466.583,171.875 466.406 C 172.161 466.229,172.396 465.044,172.396 463.771 C 172.396 462.499,172.630 461.458,172.917 461.458 C 173.206 461.458,173.438 460.069,173.438 458.333 C 173.438 456.597,173.669 455.208,173.958 455.208 C 174.245 455.208,174.479 453.933,174.479 452.374 C 174.479 450.816,174.714 449.396,175.000 449.219 C 175.286 449.042,175.521 447.635,175.521 446.094 C 175.521 444.552,175.755 443.146,176.042 442.969 C 176.328 442.792,176.562 441.489,176.562 440.073 C 176.563 438.658,176.797 437.500,177.083 437.500 C 177.370 437.500,177.604 436.563,177.604 435.417 C 177.604 434.271,177.839 433.333,178.125 433.333 C 178.411 433.333,178.646 432.410,178.646 431.281 C 178.646 430.152,178.880 429.083,179.167 428.906 C 179.453 428.729,179.691 428.071,179.695 427.443 C 179.700 426.816,180.041 425.365,180.454 424.219 C 180.867 423.073,181.215 421.257,181.227 420.182 C 181.240 419.108,181.484 418.229,181.771 418.229 C 182.057 418.229,182.292 417.643,182.292 416.927 C 182.292 416.211,182.526 415.625,182.813 415.625 C 183.099 415.625,183.333 414.922,183.333 414.063 C 183.333 413.203,183.568 412.500,183.854 412.500 C 184.141 412.500,184.375 411.797,184.375 410.938 C 184.375 410.078,184.609 409.375,184.896 409.375 C 185.182 409.375,185.417 408.672,185.417 407.813 C 185.417 406.953,185.651 406.250,185.938 406.250 C 186.224 406.250,186.458 405.561,186.458 404.718 C 186.458 403.876,186.693 403.042,186.979 402.865 C 187.266 402.688,187.500 401.984,187.500 401.302 C 187.500 400.620,187.734 399.917,188.021 399.740 C 188.307 399.563,188.542 398.728,188.542 397.886 C 188.542 397.043,188.750 396.354,189.006 396.354 C 189.484 396.354,189.949 394.286,190.443 389.974 C 190.598 388.613,190.916 387.500,191.148 387.500 C 191.380 387.500,191.695 386.270,191.848 384.766 C 192.263 380.665,192.989 376.099,193.255 375.912 C 193.384 375.821,194.134 375.422,194.922 375.025 C 195.710 374.628,196.354 373.947,196.354 373.512 C 196.354 372.913,196.607 372.992,197.396 373.838 C 198.152 374.650,198.437 375.676,198.438 377.582 C 198.438 379.027,198.672 380.208,198.958 380.208 C 199.264 380.208,199.479 382.021,199.479 384.605 C 199.479 387.023,199.714 389.146,200.000 389.323 C 200.286 389.500,200.521 390.920,200.521 392.479 C 200.521 394.037,200.755 395.313,201.042 395.313 C 201.328 395.313,201.563 396.250,201.563 397.396 C 201.563 398.542,201.797 399.479,202.083 399.479 C 202.370 399.479,202.604 400.299,202.604 401.302 C 202.604 402.305,202.839 403.125,203.125 403.125 C 203.411 403.125,203.646 403.828,203.646 404.688 C 203.646 405.547,203.880 406.250,204.167 406.250 C 204.453 406.250,204.688 406.953,204.688 407.813 C 204.688 408.672,204.896 409.375,205.151 409.375 C 205.406 409.375,205.740 410.137,205.892 411.068 C 206.342 413.810,207.468 417.948,207.843 418.229 C 208.199 418.497,208.695 420.641,209.199 424.092 C 209.356 425.168,209.695 426.178,209.951 426.336 C 210.207 426.494,210.417 427.768,210.417 429.167 C 210.417 430.565,210.651 431.854,210.938 432.031 C 211.224 432.208,211.458 433.966,211.458 435.938 C 211.458 437.909,211.693 439.667,211.979 439.844 C 212.270 440.023,212.500 442.453,212.500 445.343 C 212.500 448.448,212.709 450.521,213.021 450.521 C 213.332 450.521,213.542 452.517,213.542 455.469 C 213.542 458.420,213.752 460.417,214.063 460.417 C 214.349 460.417,214.583 461.692,214.583 463.251 C 214.583 464.809,214.818 466.229,215.104 466.406 C 215.391 466.583,215.625 467.535,215.625 468.520 C 215.625 469.506,215.859 470.313,216.146 470.313 C 216.432 470.313,216.667 470.781,216.667 471.354 C 216.667 471.927,216.901 472.396,217.188 472.396 C 217.474 472.396,217.708 472.851,217.708 473.407 C 217.708 473.963,217.943 474.563,218.229 474.740 C 218.516 474.917,218.751 475.458,218.753 475.942 C 218.755 476.427,219.107 477.494,219.534 478.315 C 219.962 479.135,220.313 480.352,220.313 481.018 C 220.313 481.685,220.547 482.375,220.833 482.552 C 221.120 482.729,221.354 483.549,221.354 484.375 C 221.354 485.201,221.589 486.021,221.875 486.198 C 222.161 486.375,222.396 487.195,222.396 488.021 C 222.396 488.846,222.630 489.667,222.917 489.844 C 223.203 490.021,223.438 491.324,223.438 492.739 C 223.438 494.154,223.672 495.313,223.958 495.313 C 224.245 495.313,224.479 496.484,224.479 497.917 C 224.479 499.349,224.714 500.521,225.000 500.521 C 225.286 500.521,225.521 501.810,225.521 503.385 C 225.521 504.961,225.755 506.250,226.042 506.250 C 226.328 506.250,226.563 507.525,226.563 509.084 C 226.563 510.642,226.797 512.063,227.083 512.240 C 227.370 512.417,227.604 513.354,227.604 514.323 C 227.604 515.292,227.839 516.229,228.125 516.406 C 228.411 516.583,228.646 517.535,228.646 518.520 C 228.646 519.506,228.880 520.313,229.167 520.313 C 229.453 520.313,229.688 521.086,229.688 522.031 C 229.688 522.977,229.882 523.973,230.120 524.245 C 230.358 524.517,230.985 526.263,231.514 528.125 C 232.042 529.987,232.634 531.745,232.828 532.031 C 233.023 532.318,233.502 533.665,233.892 535.026 C 234.283 536.387,234.786 537.500,235.010 537.500 C 235.233 537.500,235.417 538.072,235.417 538.771 C 235.417 539.471,235.651 540.188,235.938 540.365 C 236.224 540.542,236.458 541.259,236.458 541.958 C 236.458 542.657,236.667 543.229,236.922 543.229 C 237.177 543.229,237.536 544.108,237.719 545.182 C 238.528 549.936,238.682 550.521,239.119 550.521 C 239.375 550.521,239.583 551.341,239.583 552.344 C 239.583 553.346,239.818 554.167,240.104 554.167 C 240.391 554.167,240.625 554.973,240.625 555.959 C 240.625 556.945,240.859 557.896,241.146 558.073 C 241.432 558.250,241.667 559.201,241.667 560.187 C 241.667 561.173,241.901 561.979,242.188 561.979 C 242.474 561.979,242.708 562.760,242.708 563.715 C 242.708 564.670,242.884 565.627,243.099 565.841 C 243.442 566.183,244.162 569.854,245.125 576.175 C 245.288 577.251,245.632 578.261,245.888 578.419 C 246.145 578.578,246.354 579.514,246.354 580.499 C 246.354 581.485,246.589 582.292,246.875 582.292 C 247.161 582.292,247.396 583.229,247.396 584.375 C 247.396 585.521,247.630 586.458,247.917 586.458 C 248.204 586.458,248.438 587.813,248.438 589.479 C 248.438 591.141,248.719 592.781,249.063 593.125 C 249.549 593.611,249.549 593.750,249.063 593.750 C 248.703 593.750,248.438 594.479,248.438 595.469 C 248.438 596.414,248.226 597.410,247.967 597.682 C 247.356 598.326,246.864 602.107,246.547 608.614 L 246.291 613.842 247.844 615.467 C 249.634 617.340,249.617 617.334,256.510 618.504 C 261.464 619.344,263.975 620.105,264.610 620.957 C 265.729 622.457,292.520 623.099,294.401 621.671 C 295.372 620.934,295.690 617.708,294.792 617.708 C 294.505 617.708,294.271 616.667,294.271 615.395 C 294.271 614.123,294.036 612.937,293.750 612.760 C 293.464 612.583,293.229 612.103,293.229 611.694 C 293.229 610.622,291.751 609.001,289.076 607.140 C 286.245 605.170,281.250 600.248,281.250 599.429 C 281.250 598.881,280.014 597.268,276.791 593.611 C 276.092 592.818,275.521 591.929,275.521 591.636 C 275.521 591.342,275.052 590.599,274.479 589.984 C 273.906 589.369,273.438 588.338,273.438 587.693 C 273.438 587.048,273.203 586.375,272.917 586.198 C 272.630 586.021,272.396 585.318,272.396 584.635 C 272.396 583.953,272.161 583.250,271.875 583.073 C 271.589 582.896,271.354 582.193,271.354 581.510 C 271.354 580.828,271.120 580.125,270.833 579.948 C 270.547 579.771,270.313 579.171,270.313 578.615 C 270.313 578.059,270.078 577.604,269.792 577.604 C 269.505 577.604,269.271 577.108,269.271 576.502 C 269.271 575.141,267.592 570.116,267.057 569.878 C 266.842 569.783,266.667 568.918,266.667 567.956 C 266.667 566.994,266.432 566.062,266.146 565.885 C 265.859 565.708,265.625 564.640,265.625 563.511 C 265.625 562.382,265.391 561.458,265.104 561.458 C 264.818 561.458,264.583 560.535,264.583 559.406 C 264.583 558.277,264.349 557.208,264.063 557.031 C 263.776 556.854,263.542 555.565,263.542 554.167 C 263.542 552.768,263.307 551.479,263.021 551.302 C 262.734 551.125,262.500 549.719,262.500 548.177 C 262.500 546.635,262.266 545.229,261.979 545.052 C 261.693 544.875,261.458 543.000,261.458 540.885 C 261.458 538.771,261.224 536.896,260.938 536.719 C 260.651 536.542,260.417 534.419,260.417 532.001 C 260.417 529.417,260.202 527.604,259.896 527.604 C 259.589 527.604,259.375 525.781,259.375 523.177 C 259.375 520.573,259.161 518.750,258.854 518.750 C 258.550 518.750,258.333 517.014,258.333 514.583 C 258.333 512.153,258.116 510.417,257.813 510.417 C 257.516 510.417,257.292 508.883,257.292 506.858 C 257.292 504.900,257.116 503.124,256.901 502.910 C 256.686 502.696,256.223 500.489,255.872 498.005 C 254.741 490.002,254.557 489.043,254.098 488.759 C 253.849 488.606,253.646 487.688,253.646 486.719 C 253.646 485.750,253.411 484.812,253.125 484.635 C 252.839 484.458,252.604 483.521,252.604 482.552 C 252.604 481.583,252.370 480.646,252.083 480.469 C 251.797 480.292,251.563 479.237,251.563 478.125 C 251.563 477.013,251.328 475.958,251.042 475.781 C 250.755 475.604,250.521 474.784,250.521 473.958 C 250.521 473.133,250.286 472.312,250.000 472.135 C 249.714 471.958,249.479 471.124,249.479 470.282 C 249.479 469.439,249.245 468.750,248.958 468.750 C 248.639 468.750,248.438 466.243,248.438 462.270 C 248.438 458.512,248.219 455.655,247.917 455.469 C 247.239 455.050,247.239 451.200,247.917 450.781 C 248.207 450.602,248.437 448.172,248.438 445.282 C 248.438 442.177,248.646 440.104,248.958 440.104 C 249.278 440.104,249.479 437.597,249.479 433.624 C 249.479 429.867,249.698 427.010,250.000 426.823 C 250.309 426.632,250.521 423.380,250.521 418.823 C 250.521 414.175,250.736 410.931,251.066 410.601 C 251.597 410.070,251.494 401.549,250.761 385.286 C 250.557 380.778,250.638 378.646,251.012 378.646 C 251.725 378.646,251.754 370.492,251.042 370.052 C 250.755 369.875,250.521 368.103,250.521 366.115 C 250.521 364.052,250.297 362.500,250.000 362.500 C 249.714 362.500,249.479 361.211,249.479 359.635 C 249.479 358.060,249.245 356.771,248.958 356.771 C 248.661 356.771,248.438 355.219,248.438 353.156 C 248.438 351.167,248.203 349.396,247.917 349.219 C 247.630 349.042,247.396 347.167,247.396 345.052 C 247.396 342.937,247.161 341.062,246.875 340.885 C 246.589 340.708,246.354 339.068,246.354 337.240 C 246.354 335.411,246.120 333.771,245.833 333.594 C 245.547 333.417,245.313 331.997,245.313 330.438 C 245.313 328.879,245.078 327.604,244.792 327.604 C 244.505 327.604,244.268 326.960,244.264 326.172 C 244.260 325.384,243.765 322.513,243.164 319.792 C 242.562 317.070,241.955 313.963,241.813 312.887 C 241.672 311.811,241.347 310.801,241.091 310.643 C 240.835 310.485,240.625 309.779,240.625 309.076 C 240.625 307.427,239.448 303.646,238.936 303.646 C 238.719 303.646,238.542 303.191,238.542 302.635 C 238.542 302.079,238.307 301.479,238.021 301.302 C 237.734 301.125,237.500 300.408,237.500 299.709 C 237.500 299.010,237.266 298.438,236.979 298.438 C 236.693 298.438,236.458 297.748,236.458 296.906 C 236.458 296.063,236.224 295.229,235.938 295.052 C 235.651 294.875,235.417 293.807,235.417 292.678 C 235.417 291.549,235.182 290.625,234.896 290.625 C 234.592 290.625,234.375 288.889,234.375 286.458 C 234.375 284.028,234.592 282.292,234.896 282.292 C 235.182 282.292,235.417 281.134,235.417 279.718 C 235.417 278.303,235.651 277.000,235.938 276.823 C 236.224 276.646,236.458 275.343,236.458 273.928 C 236.458 272.512,236.693 271.354,236.979 271.354 C 237.269 271.354,237.500 269.965,237.500 268.229 C 237.500 266.493,237.731 265.104,238.021 265.104 C 238.339 265.104,238.542 262.684,238.542 258.885 C 238.542 255.301,238.762 252.529,239.063 252.344 C 239.349 252.167,239.583 250.760,239.583 249.219 C 239.583 247.677,239.818 246.271,240.104 246.094 C 240.391 245.917,240.625 244.778,240.625 243.563 C 240.625 242.348,240.835 241.132,241.092 240.859 C 241.350 240.587,241.684 239.427,241.835 238.281 C 241.986 237.135,242.477 234.089,242.927 231.510 C 243.377 228.932,243.900 224.060,244.089 220.684 C 244.277 217.308,244.630 214.423,244.872 214.273 C 245.499 213.886,245.424 203.255,244.792 202.865 C 244.505 202.688,244.271 201.150,244.271 199.448 C 244.271 197.733,244.503 196.354,244.792 196.354 C 245.078 196.354,245.313 195.196,245.313 193.781 C 245.313 192.365,245.547 191.062,245.833 190.885 C 246.120 190.708,246.354 189.874,246.354 189.032 C 246.354 188.189,246.589 187.500,246.875 187.500 C 247.161 187.500,247.396 186.328,247.396 184.896 C 247.396 183.464,247.630 182.292,247.917 182.292 C 248.203 182.292,248.438 181.368,248.438 180.239 C 248.438 179.110,248.672 178.042,248.958 177.865 C 249.245 177.688,249.479 175.578,249.479 173.177 C 249.479 170.776,249.714 168.667,250.000 168.490 C 250.333 168.284,250.521 160.595,250.521 147.135 C 250.521 133.676,250.333 125.987,250.000 125.781 C 249.714 125.604,249.479 123.378,249.479 120.833 C 249.479 118.289,249.245 116.062,248.958 115.885 C 248.672 115.708,248.438 114.185,248.438 112.500 C 248.438 110.815,248.203 109.292,247.917 109.115 C 247.630 108.938,247.396 107.297,247.396 105.469 C 247.396 103.641,247.161 102.000,246.875 101.823 C 246.589 101.646,246.354 99.757,246.354 97.626 C 246.354 95.389,246.134 93.750,245.833 93.750 C 245.536 93.750,245.313 92.198,245.313 90.135 C 245.313 88.147,245.078 86.375,244.792 86.198 C 244.505 86.021,244.263 84.659,244.253 83.172 C 244.243 81.685,243.896 78.594,243.482 76.302 C 243.068 74.010,242.724 71.270,242.719 70.213 C 242.713 69.156,242.474 68.146,242.188 67.969 C 241.901 67.792,241.667 66.301,241.667 64.657 C 241.667 63.012,241.456 61.444,241.199 61.172 C 240.942 60.900,240.610 59.740,240.460 58.594 C 240.311 57.448,239.919 55.456,239.588 54.167 C 239.258 52.878,238.861 51.059,238.707 50.125 C 238.553 49.192,238.218 48.299,237.963 48.142 C 237.708 47.984,237.500 47.166,237.500 46.323 C 237.500 45.481,237.266 44.792,236.979 44.792 C 236.693 44.792,236.458 44.089,236.458 43.229 C 236.458 42.370,236.224 41.667,235.938 41.667 C 235.651 41.667,235.417 40.964,235.417 40.104 C 235.417 39.245,235.182 38.542,234.896 38.542 C 234.609 38.542,234.375 37.839,234.375 36.979 C 234.375 36.120,234.141 35.417,233.854 35.417 C 233.568 35.417,233.333 34.831,233.333 34.115 C 233.333 33.398,233.099 32.813,232.813 32.813 C 232.526 32.813,232.292 32.344,232.292 31.771 C 232.292 31.198,232.057 30.729,231.771 30.729 C 231.484 30.729,231.250 30.170,231.250 29.487 C 231.250 28.153,229.896 23.238,229.119 21.752 C 228.859 21.254,228.646 20.138,228.646 19.271 C 228.646 18.404,228.427 17.287,228.159 16.790 C 227.891 16.292,227.371 15.135,227.002 14.219 C 226.633 13.302,225.739 12.248,225.015 11.875 C 224.290 11.503,223.244 10.788,222.688 10.286 C 222.133 9.785,221.371 9.375,220.996 9.375 C 220.620 9.375,220.313 9.141,220.313 8.854 C 220.313 8.568,219.844 8.333,219.271 8.333 C 218.698 8.333,218.229 8.118,218.229 7.854 C 218.229 7.590,217.529 7.221,216.673 7.033 C 215.817 6.845,214.982 6.474,214.819 6.210 C 214.656 5.946,214.067 5.729,213.511 5.729 C 212.955 5.729,212.500 5.495,212.500 5.208 C 212.500 4.922,212.045 4.688,211.489 4.688 C 210.933 4.688,210.333 4.453,210.156 4.167 C 209.979 3.880,208.676 3.646,207.261 3.646 C 205.846 3.646,204.688 3.411,204.688 3.125 C 204.688 2.839,204.233 2.604,203.677 2.604 C 203.121 2.604,202.521 2.370,202.344 2.083 C 201.912 1.385,188.542 1.385,188.542 2.083 M196.875 19.792 C 196.875 20.111,199.392 20.313,203.385 20.313 C 207.378 20.313,209.896 20.514,209.896 20.833 C 209.896 21.120,210.607 21.354,211.476 21.354 C 213.639 21.354,216.667 24.364,216.667 26.514 C 216.667 27.366,216.901 28.208,217.188 28.385 C 217.474 28.562,217.708 29.514,217.708 30.499 C 217.708 31.485,217.902 32.292,218.139 32.292 C 218.513 32.292,219.203 37.309,220.109 46.615 C 220.249 48.047,220.577 49.688,220.840 50.260 C 221.391 51.465,221.808 56.304,222.187 65.885 C 222.334 69.609,222.675 72.879,222.946 73.151 C 223.216 73.423,223.438 75.826,223.438 78.490 C 223.438 81.372,223.648 83.333,223.958 83.333 C 224.259 83.333,224.479 84.972,224.479 87.209 C 224.479 89.340,224.714 91.229,225.000 91.406 C 225.286 91.583,225.521 92.535,225.521 93.520 C 225.521 94.506,225.755 95.313,226.042 95.313 C 226.328 95.313,226.563 96.250,226.563 97.396 C 226.563 98.542,226.797 99.479,227.083 99.479 C 227.370 99.479,227.604 100.754,227.604 102.313 C 227.604 103.872,227.370 105.292,227.083 105.469 C 226.797 105.646,226.563 107.019,226.563 108.520 C 226.563 110.022,226.306 111.506,225.993 111.819 C 225.582 112.231,225.582 112.683,225.993 113.452 C 226.351 114.119,226.563 118.404,226.563 124.966 C 226.563 131.586,226.753 135.417,227.083 135.417 C 227.402 135.417,227.604 137.847,227.604 141.667 C 227.604 145.104,227.428 147.918,227.214 147.921 C 226.685 147.926,225.521 150.502,225.521 151.666 C 225.521 152.182,225.286 152.604,225.000 152.604 C 224.714 152.604,224.479 153.307,224.479 154.167 C 224.479 155.026,224.245 155.729,223.958 155.729 C 223.672 155.729,223.438 156.201,223.438 156.778 C 223.438 157.355,223.208 158.234,222.927 158.731 C 221.397 161.444,219.246 166.529,218.941 168.157 C 218.579 170.087,217.560 171.553,216.983 170.976 C 216.802 170.795,215.544 170.264,214.186 169.796 L 211.719 168.945 211.566 165.202 C 211.470 162.851,211.615 161.458,211.956 161.458 C 212.262 161.458,212.500 160.316,212.500 158.854 C 212.500 157.422,212.734 156.250,213.021 156.250 C 213.307 156.250,213.542 155.427,213.542 154.420 C 213.542 153.414,213.749 152.183,214.002 151.686 C 214.255 151.188,214.782 150.081,215.174 149.226 C 216.117 147.164,217.731 145.312,218.584 145.313 C 218.962 145.313,219.271 145.078,219.271 144.792 C 219.271 144.505,219.621 144.271,220.048 144.271 C 221.061 144.271,223.438 142.197,223.438 141.312 C 223.438 140.934,223.672 140.625,223.958 140.625 C 224.245 140.625,224.479 139.336,224.479 137.760 C 224.479 136.185,224.245 134.896,223.958 134.896 C 223.672 134.896,223.438 134.324,223.438 133.624 C 223.438 132.925,223.203 132.208,222.917 132.031 C 222.630 131.854,222.396 129.848,222.396 127.573 C 222.396 125.163,222.178 123.438,221.875 123.438 C 221.589 123.438,221.354 123.015,221.354 122.500 C 221.354 121.336,220.190 118.760,219.661 118.754 C 219.447 118.752,219.271 118.442,219.271 118.066 C 219.271 117.324,216.755 111.883,216.215 111.458 C 216.033 111.315,215.540 110.531,215.119 109.717 C 213.859 107.274,209.289 102.944,206.510 101.558 C 205.078 100.845,203.828 100.085,203.733 99.870 C 203.637 99.655,202.641 99.479,201.519 99.479 C 200.397 99.479,199.479 99.245,199.479 98.958 C 199.479 98.672,198.321 98.438,196.906 98.438 C 195.490 98.438,194.187 98.672,194.010 98.958 C 193.833 99.245,192.530 99.479,191.115 99.479 C 189.700 99.479,188.542 99.714,188.542 100.000 C 188.542 100.286,187.956 100.521,187.240 100.521 C 186.523 100.521,185.938 100.711,185.938 100.944 C 185.938 101.177,185.117 101.690,184.115 102.083 C 183.112 102.477,182.292 102.989,182.292 103.222 C 182.292 103.455,182.061 103.646,181.780 103.646 C 181.042 103.646,176.563 108.040,176.563 108.765 C 176.563 109.100,176.328 109.375,176.042 109.375 C 175.755 109.375,175.521 109.844,175.521 110.417 C 175.521 110.990,175.286 111.458,175.000 111.458 C 174.714 111.458,174.479 111.913,174.479 112.469 C 174.479 113.025,174.245 113.625,173.958 113.802 C 173.672 113.979,173.438 114.799,173.438 115.625 C 173.438 116.451,173.203 117.271,172.917 117.448 C 172.630 117.625,172.396 118.680,172.396 119.792 C 172.396 120.904,172.161 121.958,171.875 122.135 C 171.587 122.313,171.354 124.658,171.354 127.374 C 171.354 130.305,171.565 132.292,171.875 132.292 C 172.768 132.292,172.444 133.199,171.459 133.457 C 169.169 134.056,168.728 139.582,170.657 143.522 C 171.924 146.108,172.195 146.354,173.782 146.354 C 175.307 146.354,175.521 146.521,175.521 147.708 C 175.521 148.540,176.122 149.623,177.083 150.521 C 177.943 151.324,178.646 152.355,178.646 152.813 C 178.646 153.271,178.880 153.646,179.167 153.646 C 179.453 153.646,179.688 154.701,179.688 155.990 C 179.688 157.279,179.922 158.333,180.208 158.333 C 180.990 158.333,180.875 169.024,180.078 170.450 C 178.957 172.455,176.563 173.249,176.563 171.615 C 176.563 171.185,176.328 170.833,176.042 170.833 C 175.755 170.833,175.521 170.130,175.521 169.271 C 175.521 168.411,175.286 167.708,175.000 167.708 C 174.714 167.708,174.479 167.273,174.479 166.740 C 174.479 165.696,171.347 159.227,170.703 158.941 C 170.488 158.845,170.313 158.338,170.313 157.812 C 170.313 157.287,170.137 156.780,169.922 156.684 C 169.707 156.589,168.880 154.518,168.083 152.083 L 166.635 147.656 166.651 132.453 C 166.661 122.861,166.474 117.130,166.146 116.927 C 165.859 116.750,165.625 115.344,165.625 113.802 C 165.625 112.260,165.391 110.854,165.104 110.677 C 164.811 110.496,164.583 107.981,164.583 104.917 C 164.583 101.639,164.790 99.479,165.104 99.479 C 165.391 99.479,165.625 98.823,165.625 98.021 C 165.625 97.219,165.840 96.340,166.102 96.068 C 166.865 95.277,167.194 89.984,167.672 70.833 C 167.918 60.951,168.371 51.224,168.679 49.219 C 168.986 47.214,169.244 43.757,169.254 41.536 C 169.264 39.204,169.491 37.500,169.792 37.500 C 170.081 37.500,170.313 36.111,170.313 34.375 C 170.313 32.639,170.544 31.250,170.833 31.250 C 171.120 31.250,171.354 30.803,171.354 30.258 C 171.354 29.203,173.283 25.179,174.312 24.089 C 174.649 23.730,175.983 23.438,177.276 23.438 C 178.568 23.438,179.771 23.203,179.948 22.917 C 180.125 22.630,181.428 22.396,182.843 22.396 C 184.259 22.396,185.417 22.161,185.417 21.875 C 185.417 21.586,186.806 21.354,188.542 21.354 C 190.278 21.354,191.667 21.123,191.667 20.833 C 191.667 20.547,192.253 20.313,192.969 20.313 C 193.685 20.313,194.271 20.078,194.271 19.792 C 194.271 19.505,194.857 19.271,195.573 19.271 C 196.289 19.271,196.875 19.505,196.875 19.792 "
                  stroke="none"
                  fill="var(--purple)"
                  fill-rule="evenodd"
                  class="svg__color"
                ></path>
              </g>
            </svg>