<svg id="svg" width="30" viewBox="0, 0, 400,1250">
              <g id="svgg">
                <path
                  id="path0"
                  d="M242.303 780.161 C 242.267 781.440,242.409 781.758,242.828 781.338 C 243.228 780.939,243.243 780.403,242.878 779.586 C 242.392 778.496,242.349 778.539,242.303 780.161 M242.932 783.333 C 242.932 783.906,243.116 784.375,243.341 784.375 C 243.566 784.375,243.750 783.906,243.750 783.333 C 243.750 782.760,243.566 782.292,243.341 782.292 C 243.116 782.292,242.932 782.760,242.932 783.333 M243.229 786.663 C 243.229 787.157,243.007 787.424,242.736 787.256 C 242.464 787.089,242.334 787.431,242.447 788.018 C 242.652 789.078,242.536 789.085,222.834 789.050 C 203.437 789.016,203.022 788.994,203.282 787.998 C 203.678 786.482,202.860 786.309,202.092 787.745 C 201.523 788.807,201.551 789.125,202.273 789.848 C 203.357 790.931,203.387 791.491,202.314 790.601 C 201.869 790.231,201.545 790.143,201.595 790.407 C 201.805 791.511,201.509 791.874,200.993 791.146 C 200.560 790.535,200.489 790.676,200.668 791.794 C 200.799 792.614,200.597 793.471,200.193 793.806 C 199.807 794.126,199.607 794.578,199.750 794.809 C 199.893 795.040,199.704 795.540,199.331 795.922 C 198.958 796.303,198.597 797.435,198.528 798.438 C 198.365 800.818,198.212 801.709,197.856 802.344 C 197.696 802.630,197.514 803.910,197.453 805.188 C 197.391 806.466,197.149 807.755,196.915 808.053 C 196.681 808.350,196.451 810.103,196.403 811.948 C 196.356 813.794,196.131 815.551,195.904 815.855 C 195.677 816.158,195.436 819.323,195.369 822.888 C 195.303 826.454,195.087 829.618,194.890 829.920 C 194.475 830.554,194.452 831.108,193.986 851.563 C 193.754 861.725,193.825 868.073,194.196 870.313 C 195.251 876.688,195.384 877.345,195.831 878.385 C 197.291 881.785,196.828 884.780,194.670 885.891 C 193.887 886.295,192.784 887.056,192.218 887.583 C 191.652 888.110,190.828 888.542,190.386 888.542 C 189.945 888.542,189.583 888.776,189.583 889.063 C 189.583 889.349,189.115 889.583,188.542 889.583 C 187.969 889.583,187.500 889.818,187.500 890.104 C 187.500 890.391,187.125 890.625,186.667 890.625 C 186.209 890.625,185.178 891.328,184.375 892.188 C 183.572 893.047,182.740 893.750,182.525 893.750 C 181.773 893.750,176.563 896.576,176.563 896.984 C 176.563 897.210,176.145 897.396,175.636 897.396 C 175.126 897.396,174.371 897.865,173.958 898.438 C 173.545 899.010,172.791 899.479,172.281 899.479 C 171.771 899.479,171.354 899.714,171.354 900.000 C 171.354 900.286,171.054 900.521,170.688 900.521 C 170.321 900.521,169.684 900.990,169.271 901.563 C 168.858 902.135,168.210 902.604,167.832 902.604 C 167.454 902.604,166.641 903.073,166.026 903.646 C 165.411 904.219,164.600 904.688,164.225 904.688 C 163.849 904.688,163.542 904.922,163.542 905.208 C 163.542 905.495,163.102 905.729,162.564 905.729 C 162.026 905.729,161.334 906.033,161.026 906.403 C 160.719 906.774,159.635 907.404,158.619 907.803 C 157.602 908.201,156.771 908.718,156.771 908.951 C 156.771 909.184,156.302 909.375,155.729 909.375 C 155.156 909.375,154.688 909.609,154.688 909.896 C 154.688 910.182,154.219 910.417,153.646 910.417 C 152.620 910.417,152.604 910.069,152.604 887.010 C 152.604 871.967,152.418 863.488,152.083 863.281 C 151.101 862.674,151.420 843.446,152.445 841.511 C 152.931 840.594,153.406 839.375,153.502 838.802 C 153.598 838.229,153.904 837.682,154.182 837.587 C 154.460 837.491,154.688 837.011,154.688 836.519 C 154.688 836.027,154.896 835.402,155.151 835.130 C 155.598 834.652,156.551 830.448,157.123 826.429 C 157.276 825.353,157.611 824.343,157.868 824.185 C 158.124 824.026,158.333 822.036,158.333 819.761 C 158.333 817.197,158.543 815.625,158.885 815.625 C 159.188 815.625,159.317 815.432,159.172 815.197 C 159.027 814.962,159.261 814.087,159.693 813.254 C 161.101 810.542,160.552 803.884,158.911 803.748 C 158.196 803.689,157.425 803.349,157.199 802.992 C 156.876 802.484,156.785 802.492,156.779 803.026 C 156.774 803.446,156.521 803.547,156.120 803.290 C 154.674 802.364,151.699 801.578,149.609 801.570 C 148.392 801.566,147.396 801.328,147.396 801.042 C 147.396 800.744,145.844 800.521,143.781 800.521 C 141.792 800.521,140.040 800.317,139.885 800.067 C 139.731 799.818,138.030 799.580,136.104 799.538 C 134.178 799.496,132.474 799.272,132.317 799.040 C 132.160 798.807,130.625 798.559,128.906 798.488 C 127.188 798.416,125.703 798.141,125.608 797.877 C 125.512 797.612,123.579 797.396,121.311 797.396 C 119.043 797.396,117.188 797.180,117.188 796.916 C 117.188 796.651,116.426 796.497,115.495 796.573 C 114.564 796.648,113.099 796.496,112.240 796.235 C 110.109 795.588,92.549 795.249,92.178 795.848 C 92.016 796.110,90.605 796.417,89.041 796.529 C 87.477 796.642,85.495 797.036,84.635 797.405 C 82.629 798.267,81.727 798.514,80.599 798.507 C 80.098 798.505,79.688 798.665,79.688 798.864 C 79.688 799.062,78.984 799.536,78.125 799.917 C 77.266 800.297,76.563 800.954,76.563 801.376 C 76.563 801.799,76.328 802.000,76.042 801.823 C 75.716 801.622,75.521 802.686,75.521 804.657 C 75.521 806.413,75.752 807.813,76.042 807.813 C 76.328 807.813,76.563 808.064,76.563 808.371 C 76.563 809.615,80.941 812.500,82.828 812.500 C 83.393 812.500,83.854 812.685,83.854 812.910 C 83.854 813.136,84.586 813.376,85.480 813.444 C 86.518 813.523,87.649 814.149,88.605 815.172 C 89.430 816.055,90.108 816.576,90.112 816.331 C 90.117 816.086,90.292 816.120,90.503 816.408 C 90.713 816.695,91.940 817.627,93.229 818.479 C 94.518 819.330,96.132 820.560,96.816 821.211 C 97.499 821.863,98.292 822.396,98.578 822.396 C 98.863 822.396,99.476 822.808,99.939 823.311 C 100.402 823.814,101.426 824.557,102.214 824.961 C 103.001 825.366,103.646 825.892,103.646 826.130 C 103.646 826.368,104.089 826.563,104.631 826.563 C 105.173 826.563,106.790 827.617,108.223 828.906 C 109.657 830.195,111.095 831.250,111.418 831.250 C 112.193 831.250,116.667 835.737,116.667 836.514 C 116.667 836.846,117.093 837.496,117.614 837.960 C 118.539 838.782,119.498 840.556,119.374 841.214 C 119.340 841.395,119.772 841.958,120.333 842.467 C 120.895 842.975,121.354 843.671,121.354 844.014 C 121.354 844.357,122.056 845.372,122.914 846.270 C 123.772 847.167,124.534 848.198,124.607 848.560 C 124.680 848.923,124.974 849.395,125.260 849.609 C 125.602 849.866,125.585 850.134,125.210 850.391 C 124.895 850.605,124.585 852.528,124.520 854.663 C 124.455 856.798,124.185 858.951,123.920 859.447 C 123.655 859.943,123.438 861.301,123.438 862.466 C 123.438 863.630,123.203 864.583,122.917 864.583 C 122.630 864.583,122.396 865.859,122.396 867.417 C 122.396 868.976,122.161 870.396,121.875 870.573 C 121.589 870.750,121.354 871.889,121.354 873.104 C 121.354 874.319,121.143 875.535,120.884 875.807 C 120.625 876.079,120.275 877.474,120.106 878.906 C 119.937 880.339,119.674 882.096,119.521 882.813 C 119.369 883.529,119.105 885.579,118.935 887.370 C 118.764 889.160,118.419 890.625,118.167 890.625 C 117.915 890.625,117.708 891.914,117.708 893.490 C 117.708 895.065,117.474 896.354,117.188 896.354 C 116.901 896.354,116.667 897.526,116.667 898.958 C 116.667 900.391,116.432 901.563,116.146 901.563 C 115.859 901.563,115.625 902.734,115.625 904.167 C 115.625 905.599,115.391 906.771,115.104 906.771 C 114.818 906.771,114.583 908.060,114.583 909.635 C 114.583 911.211,114.349 912.500,114.063 912.500 C 113.776 912.500,113.542 913.672,113.542 915.104 C 113.542 916.536,113.307 917.708,113.021 917.708 C 112.734 917.708,112.500 918.997,112.500 920.573 C 112.500 922.148,112.266 923.438,111.979 923.438 C 111.693 923.438,111.458 924.355,111.458 925.477 C 111.458 926.599,111.222 927.596,110.933 927.692 C 110.644 927.789,110.384 929.451,110.355 931.386 C 110.326 933.321,110.094 935.034,109.839 935.192 C 109.187 935.594,109.242 946.354,109.896 946.354 C 110.182 946.354,110.417 947.043,110.417 947.886 C 110.417 948.728,110.651 949.563,110.937 949.740 C 111.224 949.917,111.469 950.575,111.482 951.203 C 111.496 951.863,112.384 953.112,113.589 954.167 C 114.735 955.169,116.710 956.986,117.979 958.203 C 119.247 959.421,120.643 960.417,121.080 960.417 C 121.517 960.417,121.877 960.592,121.879 960.807 C 121.886 961.520,124.658 962.500,126.666 962.500 C 127.755 962.500,128.646 962.734,128.646 963.021 C 128.646 963.331,130.632 963.542,133.563 963.542 C 136.279 963.542,138.624 963.309,138.802 963.021 C 138.979 962.734,140.751 962.500,142.739 962.500 C 144.802 962.500,146.354 962.276,146.354 961.979 C 146.354 961.690,147.733 961.458,149.448 961.458 C 151.150 961.458,152.688 961.224,152.865 960.938 C 153.042 960.651,154.345 960.417,155.760 960.417 C 157.175 960.417,158.333 960.182,158.333 959.896 C 158.333 959.609,159.505 959.375,160.938 959.375 C 162.370 959.375,163.542 959.141,163.542 958.854 C 163.542 958.568,164.348 958.333,165.334 958.333 C 166.320 958.333,167.271 958.099,167.448 957.813 C 167.625 957.526,168.576 957.292,169.562 957.292 C 170.548 957.292,171.354 957.104,171.354 956.874 C 171.354 956.644,173.171 956.171,175.391 955.822 C 177.611 955.473,180.306 955.050,181.380 954.883 C 182.454 954.715,183.333 954.368,183.333 954.112 C 183.333 953.856,184.271 953.646,185.417 953.646 C 186.563 953.646,187.500 953.411,187.500 953.125 C 187.500 952.839,188.306 952.604,189.292 952.604 C 190.278 952.604,191.229 952.370,191.406 952.083 C 191.583 951.797,192.300 951.563,192.999 951.563 C 193.699 951.563,194.271 951.328,194.271 951.042 C 194.271 950.755,194.974 950.521,195.833 950.521 C 196.693 950.521,197.396 950.286,197.396 950.000 C 197.396 949.714,198.333 949.479,199.479 949.479 C 201.575 949.479,202.762 952.843,201.042 953.906 C 200.755 954.083,200.521 955.152,200.521 956.281 C 200.521 957.410,200.286 958.333,200.000 958.333 C 199.714 958.333,199.479 959.036,199.479 959.896 C 199.479 960.755,199.245 961.458,198.958 961.458 C 198.672 961.458,198.438 961.913,198.438 962.469 C 198.438 963.025,198.203 963.625,197.917 963.802 C 197.630 963.979,197.396 964.590,197.396 965.160 C 197.396 966.202,196.639 967.886,194.055 972.602 C 193.273 974.029,190.277 977.437,187.254 980.341 C 184.282 983.195,181.570 986.207,181.227 987.036 C 180.884 987.864,180.397 988.542,180.145 988.542 C 179.893 988.542,179.688 989.010,179.688 989.583 C 179.688 990.156,179.453 990.625,179.167 990.625 C 178.880 990.625,178.646 991.783,178.646 993.198 C 178.646 994.614,178.411 995.917,178.125 996.094 C 177.839 996.271,177.604 997.105,177.604 997.947 C 177.604 998.790,177.839 999.479,178.125 999.479 C 178.411 999.479,178.646 1000.182,178.646 1001.042 C 178.646 1001.901,178.880 1002.604,179.167 1002.604 C 179.453 1002.604,179.688 1003.190,179.688 1003.906 C 179.688 1004.622,179.922 1005.208,180.208 1005.208 C 181.769 1005.208,180.434 1010.945,178.541 1012.375 C 178.054 1012.743,177.309 1013.390,176.886 1013.814 C 176.018 1014.682,171.354 1014.891,171.354 1014.063 C 171.354 1013.776,170.651 1013.542,169.792 1013.542 C 168.932 1013.542,168.229 1013.307,168.229 1013.021 C 168.229 1012.734,167.643 1012.500,166.927 1012.500 C 166.211 1012.500,165.625 1012.266,165.625 1011.979 C 165.625 1011.693,165.053 1011.458,164.354 1011.458 C 163.654 1011.458,162.937 1011.224,162.760 1010.938 C 162.583 1010.651,161.984 1010.417,161.428 1010.417 C 160.872 1010.417,160.417 1010.182,160.417 1009.896 C 160.417 1009.609,159.714 1009.375,158.854 1009.375 C 157.995 1009.375,157.292 1009.141,157.292 1008.854 C 157.292 1008.568,156.720 1008.333,156.020 1008.333 C 155.321 1008.333,154.604 1008.099,154.427 1007.813 C 154.250 1007.526,153.677 1007.292,153.154 1007.292 C 152.631 1007.292,151.531 1006.942,150.711 1006.514 C 149.890 1006.086,148.340 1005.734,147.266 1005.732 C 146.191 1005.731,145.313 1005.495,145.313 1005.208 C 145.313 1004.922,144.258 1004.688,142.969 1004.688 C 141.680 1004.688,140.625 1004.453,140.625 1004.167 C 140.625 1003.863,138.889 1003.646,136.458 1003.646 C 134.028 1003.646,132.292 1003.429,132.292 1003.125 C 132.292 1002.802,129.437 1002.604,124.770 1002.604 C 120.318 1002.604,117.118 1002.817,116.927 1003.125 C 116.750 1003.411,115.799 1003.646,114.813 1003.646 C 113.827 1003.646,113.021 1003.880,113.021 1004.167 C 113.021 1004.453,112.201 1004.688,111.198 1004.688 C 110.195 1004.688,109.375 1004.922,109.375 1005.208 C 109.375 1005.495,109.021 1005.729,108.589 1005.729 C 107.515 1005.729,104.688 1008.507,104.688 1009.562 C 104.688 1010.032,104.453 1010.417,104.167 1010.417 C 103.471 1010.417,103.471 1022.227,104.167 1022.656 C 104.453 1022.833,104.688 1024.019,104.688 1025.291 C 104.688 1026.563,104.888 1027.604,105.134 1027.604 C 105.379 1027.604,105.734 1029.267,105.923 1031.300 C 106.112 1033.332,106.497 1035.426,106.779 1035.953 C 107.061 1036.480,107.292 1037.733,107.292 1038.737 C 107.292 1039.742,107.526 1040.708,107.813 1040.885 C 108.099 1041.062,108.333 1042.000,108.333 1042.969 C 108.333 1043.938,108.568 1044.875,108.854 1045.052 C 109.141 1045.229,109.375 1046.063,109.375 1046.906 C 109.375 1047.748,109.609 1048.438,109.896 1048.438 C 110.182 1048.438,110.417 1049.141,110.417 1050.000 C 110.417 1050.859,110.651 1051.563,110.938 1051.563 C 111.224 1051.563,111.458 1051.985,111.458 1052.500 C 111.458 1053.664,112.623 1056.240,113.151 1056.246 C 113.366 1056.248,113.542 1056.953,113.542 1057.813 C 113.542 1058.672,113.776 1059.375,114.063 1059.375 C 114.349 1059.375,114.583 1059.844,114.583 1060.417 C 114.583 1060.990,114.818 1061.458,115.104 1061.458 C 115.391 1061.458,115.625 1062.161,115.625 1063.021 C 115.625 1063.880,115.859 1064.583,116.146 1064.583 C 116.432 1064.583,116.667 1065.052,116.667 1065.625 C 116.667 1066.198,116.901 1066.667,117.188 1066.667 C 117.474 1066.667,117.708 1067.253,117.708 1067.969 C 117.708 1068.685,117.913 1069.271,118.162 1069.271 C 118.412 1069.271,118.771 1070.443,118.961 1071.875 C 119.151 1073.307,119.533 1074.479,119.810 1074.479 C 120.086 1074.479,120.313 1074.948,120.313 1075.521 C 120.313 1076.094,120.547 1076.563,120.833 1076.563 C 121.120 1076.563,121.354 1077.031,121.354 1077.604 C 121.354 1078.177,121.589 1078.646,121.875 1078.646 C 122.161 1078.646,122.396 1079.466,122.396 1080.469 C 122.396 1081.471,122.630 1082.292,122.917 1082.292 C 123.220 1082.292,123.438 1084.028,123.438 1086.458 C 123.438 1088.750,123.217 1090.625,122.948 1090.625 C 122.665 1090.625,122.445 1094.038,122.426 1098.720 C 122.390 1107.660,123.010 1109.375,126.278 1109.375 C 127.451 1109.375,127.604 1109.589,127.604 1111.235 C 127.604 1113.205,128.554 1114.583,129.911 1114.583 C 130.361 1114.583,130.729 1114.843,130.729 1115.161 C 130.729 1115.512,131.225 1115.614,131.994 1115.421 C 132.800 1115.218,133.552 1115.397,134.069 1115.914 C 134.715 1116.561,136.012 1116.705,140.464 1116.629 C 144.636 1116.557,146.106 1116.704,146.274 1117.206 C 147.686 1121.443,155.729 1124.158,155.729 1120.399 C 155.729 1119.579,153.492 1115.625,153.028 1115.625 C 152.795 1115.625,152.604 1115.156,152.604 1114.583 C 152.604 1114.010,152.370 1113.542,152.083 1113.542 C 151.797 1113.542,151.563 1112.384,151.563 1110.968 C 151.563 1109.553,151.328 1108.250,151.042 1108.073 C 150.755 1107.896,150.521 1106.255,150.521 1104.427 C 150.521 1102.599,150.286 1100.958,150.000 1100.781 C 149.714 1100.604,149.479 1099.887,149.479 1099.188 C 149.479 1098.489,149.245 1097.917,148.958 1097.917 C 148.672 1097.917,148.438 1097.612,148.438 1097.239 C 148.438 1096.281,147.213 1093.759,146.745 1093.754 C 146.530 1093.752,146.354 1093.281,146.354 1092.708 C 146.354 1092.135,146.120 1091.667,145.833 1091.667 C 145.547 1091.667,145.313 1091.198,145.313 1090.625 C 145.313 1090.052,145.127 1089.583,144.900 1089.583 C 144.673 1089.583,144.192 1088.480,143.831 1087.131 C 143.209 1084.804,142.152 1082.075,141.102 1080.085 C 140.840 1079.588,140.625 1078.723,140.625 1078.163 C 140.625 1077.603,140.391 1077.000,140.104 1076.823 C 139.818 1076.646,139.583 1075.943,139.583 1075.260 C 139.583 1074.578,139.349 1073.875,139.063 1073.698 C 138.776 1073.521,138.542 1072.818,138.542 1072.135 C 138.542 1071.453,138.307 1070.750,138.021 1070.573 C 137.734 1070.396,137.500 1069.679,137.500 1068.980 C 137.500 1068.280,137.266 1067.708,136.979 1067.708 C 136.693 1067.708,136.458 1067.005,136.458 1066.146 C 136.458 1065.286,136.224 1064.583,135.938 1064.583 C 135.651 1064.583,135.417 1063.646,135.417 1062.500 C 135.417 1061.354,135.182 1060.417,134.896 1060.417 C 134.609 1060.417,134.375 1059.596,134.375 1058.594 C 134.375 1057.591,134.141 1056.771,133.854 1056.771 C 133.568 1056.771,133.333 1055.833,133.333 1054.688 C 133.333 1053.542,133.099 1052.604,132.813 1052.604 C 132.523 1052.604,132.292 1051.215,132.292 1049.479 C 132.292 1047.760,132.092 1046.354,131.848 1046.354 C 131.603 1046.354,131.242 1043.860,131.045 1040.812 C 130.848 1037.763,130.462 1034.849,130.187 1034.335 C 129.672 1033.373,129.479 1028.646,129.955 1028.646 C 130.102 1028.646,130.629 1028.873,131.127 1029.150 C 132.635 1029.991,136.934 1031.250,138.299 1031.250 C 139.006 1031.250,139.583 1031.484,139.583 1031.771 C 139.583 1032.057,140.052 1032.292,140.625 1032.292 C 141.198 1032.292,141.667 1032.526,141.667 1032.813 C 141.667 1033.099,142.135 1033.333,142.708 1033.333 C 143.281 1033.333,143.750 1033.568,143.750 1033.854 C 143.750 1034.141,144.336 1034.375,145.052 1034.375 C 145.768 1034.375,146.354 1034.609,146.354 1034.896 C 146.354 1035.182,146.823 1035.417,147.396 1035.417 C 147.969 1035.417,148.438 1035.651,148.438 1035.938 C 148.438 1036.224,148.906 1036.458,149.479 1036.458 C 150.052 1036.458,150.521 1036.693,150.521 1036.979 C 150.521 1037.266,150.828 1037.500,151.204 1037.500 C 151.580 1037.500,152.356 1037.937,152.929 1038.471 C 153.503 1039.005,154.543 1039.746,155.241 1040.116 C 155.939 1040.487,156.817 1041.222,157.191 1041.749 C 157.565 1042.277,158.181 1042.708,158.560 1042.708 C 158.938 1042.708,159.539 1043.060,159.896 1043.490 C 160.252 1043.919,160.933 1044.271,161.407 1044.271 C 161.882 1044.271,162.608 1044.740,163.021 1045.313 C 163.462 1045.924,164.369 1046.354,165.219 1046.354 C 166.015 1046.354,166.667 1046.589,166.667 1046.875 C 166.667 1047.161,167.239 1047.396,167.938 1047.396 C 168.637 1047.396,169.354 1047.630,169.531 1047.917 C 169.708 1048.203,171.363 1048.438,173.208 1048.438 L 176.563 1048.438 176.563 1054.136 C 176.563 1057.373,176.787 1059.973,177.083 1060.156 C 177.370 1060.333,177.604 1061.636,177.604 1063.052 C 177.604 1064.467,177.839 1065.625,178.125 1065.625 C 178.411 1065.625,178.646 1066.191,178.646 1066.884 C 178.646 1067.576,178.915 1068.232,179.245 1068.342 C 179.574 1068.452,179.741 1068.849,179.616 1069.224 C 179.471 1069.659,178.405 1068.943,176.671 1067.245 C 175.176 1065.781,173.689 1064.583,173.366 1064.583 C 173.043 1064.583,172.399 1064.151,171.936 1063.623 C 170.709 1062.225,169.039 1061.458,167.222 1061.458 C 164.699 1061.458,165.230 1062.767,169.415 1066.863 C 171.499 1068.904,173.531 1071.217,173.930 1072.005 C 174.329 1072.793,174.850 1073.438,175.088 1073.438 C 175.326 1073.438,175.521 1073.906,175.521 1074.479 C 175.521 1075.052,175.755 1075.521,176.042 1075.521 C 176.328 1075.521,176.563 1075.990,176.563 1076.563 C 176.563 1077.135,176.797 1077.604,177.083 1077.604 C 177.370 1077.604,177.604 1078.073,177.604 1078.646 C 177.604 1079.219,177.839 1079.688,178.125 1079.688 C 178.411 1079.688,178.646 1080.273,178.646 1080.990 C 178.646 1081.706,178.880 1082.292,179.167 1082.292 C 179.453 1082.292,179.688 1082.975,179.688 1083.811 C 179.688 1084.646,179.892 1085.408,180.142 1085.503 C 181.073 1085.860,181.429 1093.750,180.513 1093.750 C 180.059 1093.750,179.688 1093.516,179.688 1093.229 C 179.688 1092.943,179.233 1092.708,178.677 1092.708 C 178.121 1092.708,177.521 1092.474,177.344 1092.188 C 177.167 1091.901,176.501 1091.667,175.865 1091.667 C 175.229 1091.667,174.371 1091.198,173.958 1090.625 C 173.545 1090.052,172.891 1089.583,172.504 1089.583 C 171.664 1089.583,170.313 1088.322,170.313 1087.537 C 170.313 1087.230,170.105 1086.979,169.852 1086.979 C 169.599 1086.979,169.251 1086.569,169.077 1086.068 C 168.904 1085.566,168.308 1084.453,167.752 1083.594 C 167.197 1082.734,166.726 1081.504,166.705 1080.859 C 166.684 1080.215,166.432 1079.688,166.146 1079.688 C 165.859 1079.688,165.625 1078.984,165.625 1078.125 C 165.625 1076.910,165.394 1076.563,164.583 1076.563 C 163.649 1076.563,163.542 1076.910,163.542 1079.948 C 163.542 1081.858,163.769 1083.333,164.063 1083.333 C 164.349 1083.333,164.583 1083.802,164.583 1084.375 C 164.583 1084.948,164.818 1085.417,165.104 1085.417 C 165.391 1085.417,165.625 1086.068,165.625 1086.864 C 165.625 1087.714,166.055 1088.622,166.667 1089.063 C 167.743 1089.838,168.108 1091.667,167.188 1091.667 C 166.901 1091.667,166.667 1091.432,166.667 1091.146 C 166.667 1090.859,166.198 1090.625,165.625 1090.625 C 165.052 1090.625,164.583 1090.391,164.583 1090.104 C 164.583 1089.818,163.880 1089.583,163.021 1089.583 C 162.161 1089.583,161.458 1089.340,161.458 1089.042 C 161.458 1088.698,159.802 1088.556,156.901 1088.652 C 152.045 1088.812,150.088 1090.158,154.167 1090.532 C 155.169 1090.624,156.212 1090.917,156.484 1091.183 C 156.757 1091.449,157.357 1091.667,157.819 1091.667 C 158.281 1091.667,159.874 1092.253,161.358 1092.969 C 162.843 1093.685,164.410 1094.271,164.841 1094.271 C 165.272 1094.271,165.625 1094.505,165.625 1094.792 C 165.625 1095.078,166.094 1095.313,166.667 1095.313 C 167.240 1095.313,167.708 1095.547,167.708 1095.833 C 167.708 1096.120,167.945 1096.354,168.234 1096.354 C 168.523 1096.354,169.495 1097.057,170.394 1097.917 C 171.294 1098.776,172.234 1099.479,172.484 1099.479 C 173.098 1099.479,178.646 1105.058,178.646 1105.674 C 178.646 1105.943,178.939 1106.268,179.297 1106.396 C 179.655 1106.524,179.794 1106.795,179.606 1106.998 C 179.417 1107.202,178.550 1107.000,177.678 1106.549 C 176.807 1106.098,175.496 1105.729,174.765 1105.729 C 174.035 1105.729,173.438 1105.495,173.438 1105.208 C 173.438 1104.922,172.734 1104.688,171.875 1104.688 C 171.016 1104.688,170.313 1104.453,170.313 1104.167 C 170.313 1103.880,169.375 1103.646,168.229 1103.646 C 167.083 1103.646,166.146 1103.411,166.146 1103.125 C 166.146 1102.821,164.397 1102.604,161.941 1102.604 C 158.231 1102.604,157.757 1102.710,157.910 1103.508 C 158.087 1104.429,158.880 1104.673,165.495 1105.845 C 167.285 1106.163,168.750 1106.618,168.750 1106.857 C 168.750 1107.096,169.102 1107.292,169.531 1107.292 C 169.961 1107.292,170.313 1107.526,170.313 1107.813 C 170.313 1108.099,170.781 1108.333,171.354 1108.333 C 171.927 1108.333,172.396 1108.568,172.396 1108.854 C 172.396 1109.141,172.865 1109.375,173.438 1109.375 C 174.010 1109.375,174.479 1109.580,174.479 1109.831 C 174.479 1110.081,175.154 1110.421,175.979 1110.586 C 176.804 1110.751,177.842 1111.249,178.285 1111.693 C 178.729 1112.137,179.409 1112.500,179.796 1112.500 C 180.183 1112.500,180.837 1112.969,181.250 1113.542 C 181.663 1114.115,182.301 1114.583,182.667 1114.583 C 183.034 1114.583,183.333 1114.778,183.333 1115.016 C 183.333 1115.254,183.975 1115.782,184.758 1116.188 C 187.492 1117.606,191.667 1121.483,191.667 1122.605 C 191.667 1123.063,191.901 1123.438,192.188 1123.438 C 192.474 1123.438,192.708 1123.906,192.708 1124.479 C 192.708 1125.052,192.943 1125.521,193.229 1125.521 C 193.516 1125.521,193.750 1125.908,193.750 1126.380 C 193.750 1127.392,196.390 1132.994,196.986 1133.247 C 197.211 1133.342,197.396 1133.818,197.396 1134.303 C 197.396 1134.789,197.865 1135.525,198.438 1135.938 C 199.010 1136.350,199.479 1136.942,199.479 1137.253 C 199.479 1138.174,202.935 1141.667,203.846 1141.667 C 204.309 1141.667,204.688 1141.852,204.688 1142.079 C 204.688 1143.906,228.092 1145.143,231.403 1143.492 C 232.266 1143.061,233.288 1142.708,233.674 1142.708 C 234.059 1142.708,234.375 1142.474,234.375 1142.188 C 234.375 1141.901,234.689 1141.667,235.073 1141.667 C 235.847 1141.667,240.625 1137.341,240.626 1136.640 C 240.626 1136.397,241.208 1135.521,241.920 1134.693 C 242.632 1133.866,243.499 1132.401,243.847 1131.438 C 244.195 1130.475,244.667 1129.688,244.896 1129.688 C 245.125 1129.688,245.313 1129.219,245.313 1128.646 C 245.313 1128.073,245.547 1127.604,245.833 1127.604 C 246.120 1127.604,246.354 1126.901,246.354 1126.042 C 246.354 1125.182,246.589 1124.479,246.875 1124.479 C 247.161 1124.479,247.396 1123.776,247.396 1122.917 C 247.396 1122.057,247.630 1121.354,247.917 1121.354 C 248.203 1121.354,248.438 1121.012,248.438 1120.594 C 248.438 1120.176,249.636 1118.711,251.102 1117.339 C 252.567 1115.967,254.480 1114.082,255.352 1113.151 C 256.224 1112.220,257.252 1111.458,257.636 1111.458 C 258.019 1111.458,258.333 1111.224,258.333 1110.938 C 258.333 1110.651,258.802 1110.417,259.375 1110.417 C 259.948 1110.417,260.417 1110.182,260.417 1109.896 C 260.417 1109.609,260.885 1109.375,261.458 1109.375 C 262.031 1109.375,262.500 1109.141,262.500 1108.854 C 262.500 1108.568,262.969 1108.333,263.542 1108.333 C 264.115 1108.333,264.583 1108.099,264.583 1107.813 C 264.583 1107.526,265.286 1107.292,266.146 1107.292 C 267.005 1107.292,267.708 1107.057,267.708 1106.771 C 267.708 1106.451,270.226 1106.250,274.219 1106.250 C 278.212 1106.250,280.729 1106.451,280.729 1106.771 C 280.729 1107.057,281.198 1107.292,281.771 1107.292 C 282.344 1107.292,282.814 1107.467,282.817 1107.682 C 282.822 1108.211,285.398 1109.375,286.562 1109.375 C 287.078 1109.375,287.500 1109.117,287.500 1108.802 C 287.500 1107.919,284.063 1104.688,283.125 1104.688 C 282.667 1104.688,282.292 1104.453,282.292 1104.167 C 282.292 1103.880,281.602 1103.646,280.760 1103.646 C 279.917 1103.646,279.083 1103.411,278.906 1103.125 C 278.717 1102.820,275.689 1102.604,271.584 1102.604 C 267.264 1102.604,264.583 1102.804,264.583 1103.125 C 264.583 1103.411,263.646 1103.646,262.500 1103.646 C 261.354 1103.646,260.417 1103.880,260.417 1104.167 C 260.417 1104.453,259.984 1104.688,259.455 1104.688 C 258.926 1104.688,257.740 1105.064,256.818 1105.523 C 254.779 1106.541,254.162 1106.193,255.939 1105.029 C 256.646 1104.566,257.814 1103.596,258.536 1102.875 C 259.258 1102.153,260.191 1101.563,260.610 1101.563 C 261.029 1101.563,261.450 1101.387,261.545 1101.172 C 261.855 1100.475,266.212 1098.438,267.393 1098.438 C 268.025 1098.438,268.823 1098.156,269.167 1097.812 C 269.653 1097.326,269.792 1097.326,269.792 1097.812 C 269.792 1098.257,271.296 1098.438,275.000 1098.438 C 278.125 1098.438,280.208 1098.229,280.208 1097.917 C 280.208 1097.630,281.146 1097.396,282.292 1097.396 C 283.438 1097.396,284.375 1097.161,284.375 1096.875 C 284.375 1096.589,285.078 1096.354,285.938 1096.354 C 286.797 1096.354,287.500 1096.120,287.500 1095.833 C 287.500 1095.547,287.868 1095.313,288.319 1095.313 C 290.168 1095.313,294.271 1090.586,294.271 1088.455 C 294.271 1086.050,293.611 1085.940,291.667 1088.021 C 290.769 1088.982,289.686 1089.583,288.854 1089.583 C 288.109 1089.583,287.500 1089.818,287.500 1090.104 C 287.500 1090.391,286.694 1090.625,285.708 1090.625 C 284.722 1090.625,283.771 1090.859,283.594 1091.146 C 283.417 1091.432,281.835 1091.667,280.079 1091.667 L 276.887 1091.667 278.005 1090.625 C 278.620 1090.052,279.310 1089.583,279.539 1089.583 C 280.235 1089.583,283.333 1085.954,283.333 1085.139 C 283.333 1084.719,283.568 1084.375,283.854 1084.375 C 284.141 1084.375,284.375 1083.906,284.375 1083.333 C 284.375 1082.760,284.609 1082.292,284.896 1082.292 C 285.182 1082.292,285.417 1081.940,285.417 1081.510 C 285.417 1080.280,283.404 1080.593,282.136 1082.022 C 280.406 1083.972,273.583 1087.500,271.542 1087.500 C 270.580 1087.500,269.792 1087.734,269.792 1088.021 C 269.792 1088.307,269.030 1088.541,268.099 1088.540 L 266.406 1088.539 268.229 1086.979 C 269.232 1086.121,270.236 1085.419,270.460 1085.418 C 271.001 1085.416,274.479 1081.924,274.479 1081.382 C 274.479 1081.150,274.948 1080.621,275.521 1080.208 C 276.094 1079.795,276.563 1079.148,276.563 1078.769 C 276.563 1078.391,277.031 1077.578,277.604 1076.963 C 278.177 1076.348,278.646 1075.304,278.646 1074.641 C 278.646 1073.979,278.880 1073.438,279.167 1073.438 C 279.453 1073.438,279.688 1072.628,279.688 1071.639 C 279.688 1070.650,279.952 1069.259,280.276 1068.549 C 281.092 1066.757,279.865 1062.500,278.532 1062.500 C 277.766 1062.500,277.604 1062.954,277.604 1065.104 C 277.604 1066.536,277.370 1067.708,277.083 1067.708 C 276.797 1067.708,276.563 1068.294,276.563 1069.010 C 276.563 1069.727,276.328 1070.313,276.042 1070.313 C 275.755 1070.313,275.521 1070.781,275.521 1071.354 C 275.521 1071.927,275.286 1072.396,275.000 1072.396 C 274.714 1072.396,274.479 1072.702,274.479 1073.075 C 274.479 1074.416,267.254 1081.922,265.108 1082.811 C 264.246 1083.168,263.542 1083.666,263.542 1083.917 C 263.542 1084.169,263.092 1084.375,262.543 1084.375 C 261.994 1084.375,261.441 1084.668,261.313 1085.026 C 261.185 1085.384,260.932 1085.542,260.751 1085.376 C 260.570 1085.210,261.584 1083.830,263.005 1082.309 C 265.431 1079.711,269.271 1072.842,269.271 1071.100 C 269.271 1070.667,269.505 1070.313,269.792 1070.313 C 270.078 1070.313,270.313 1069.492,270.313 1068.490 C 270.313 1067.487,270.547 1066.667,270.833 1066.667 C 271.120 1066.667,271.354 1065.964,271.354 1065.104 C 271.354 1064.245,271.589 1063.542,271.875 1063.542 C 272.161 1063.542,272.396 1063.185,272.396 1062.749 C 272.396 1061.849,276.823 1057.273,279.948 1054.941 C 281.094 1054.087,287.841 1047.586,294.942 1040.496 C 302.043 1033.405,307.935 1027.604,308.034 1027.604 C 309.035 1027.604,309.843 1050.782,308.876 1051.749 C 308.578 1052.047,308.333 1054.424,308.333 1057.031 C 308.333 1059.638,308.117 1061.993,307.853 1062.266 C 307.589 1062.538,307.271 1064.401,307.146 1066.406 C 306.818 1071.690,305.587 1079.688,305.103 1079.688 C 304.875 1079.688,304.688 1080.494,304.688 1081.480 C 304.688 1082.465,304.453 1083.417,304.167 1083.594 C 303.880 1083.771,303.646 1084.956,303.646 1086.229 C 303.646 1087.501,303.411 1088.542,303.125 1088.542 C 302.797 1088.542,302.604 1091.979,302.604 1097.812 C 302.604 1102.911,302.386 1107.306,302.118 1107.578 C 301.851 1107.850,301.558 1109.245,301.467 1110.677 L 301.302 1113.281 303.776 1113.440 C 305.598 1113.557,306.250 1113.411,306.250 1112.887 C 306.250 1112.496,306.719 1111.672,307.292 1111.057 C 307.865 1110.443,308.333 1109.592,308.333 1109.167 C 308.333 1108.742,308.568 1108.250,308.854 1108.073 C 309.141 1107.896,309.375 1107.353,309.375 1106.867 C 309.375 1106.137,309.788 1106.015,311.731 1106.169 C 313.061 1106.275,314.411 1106.088,314.831 1105.740 C 315.240 1105.400,316.046 1105.272,316.622 1105.455 C 317.791 1105.826,319.620 1105.017,320.894 1103.564 C 321.358 1103.036,322.235 1102.604,322.844 1102.604 C 324.792 1102.604,326.563 1100.575,326.563 1098.344 C 326.563 1096.922,326.786 1096.354,327.344 1096.354 C 327.773 1096.354,328.125 1096.120,328.125 1095.833 C 328.125 1095.547,328.477 1095.313,328.906 1095.313 C 329.336 1095.313,329.688 1094.858,329.688 1094.302 C 329.688 1093.746,329.922 1093.146,330.208 1092.969 C 330.861 1092.565,330.875 1090.919,330.244 1088.839 C 329.977 1087.959,329.467 1086.185,329.111 1084.896 C 328.756 1083.607,328.271 1082.329,328.034 1082.057 C 327.798 1081.785,327.604 1080.686,327.604 1079.614 C 327.604 1078.542,327.370 1077.521,327.083 1077.344 C 326.797 1077.167,326.563 1076.346,326.563 1075.521 C 326.563 1074.695,326.328 1073.875,326.042 1073.698 C 325.755 1073.521,325.521 1072.701,325.521 1071.875 C 325.521 1071.049,325.286 1070.229,325.000 1070.052 C 324.709 1069.872,324.479 1067.443,324.479 1064.553 C 324.479 1061.448,324.688 1059.375,325.000 1059.375 C 325.286 1059.375,325.521 1058.086,325.521 1056.510 C 325.521 1054.935,325.755 1053.646,326.042 1053.646 C 326.328 1053.646,326.563 1052.474,326.563 1051.042 C 326.563 1049.609,326.797 1048.438,327.083 1048.438 C 327.370 1048.438,327.604 1047.266,327.604 1045.833 C 327.604 1044.401,327.816 1043.229,328.075 1043.229 C 328.334 1043.229,328.670 1042.116,328.822 1040.755 C 328.974 1039.395,329.362 1036.992,329.684 1035.417 C 330.643 1030.723,331.157 1024.169,331.205 1016.016 C 331.233 1011.272,331.449 1008.333,331.771 1008.333 C 332.057 1008.333,332.292 1007.878,332.292 1007.322 C 332.292 1006.766,332.057 1006.167,331.771 1005.990 C 331.484 1005.813,331.250 1004.275,331.250 1002.573 C 331.250 999.078,328.381 995.313,325.718 995.313 C 325.037 995.313,324.479 995.078,324.479 994.792 C 324.479 994.479,322.406 994.271,319.302 994.271 C 316.412 994.271,313.982 994.501,313.802 994.792 C 313.625 995.078,312.688 995.313,311.719 995.313 C 310.750 995.313,309.812 995.547,309.635 995.833 C 309.458 996.120,308.741 996.354,308.042 996.354 C 307.343 996.354,306.771 996.589,306.771 996.875 C 306.771 997.161,306.229 997.396,305.567 997.396 C 304.905 997.396,303.860 997.865,303.245 998.438 C 302.630 999.010,301.766 999.479,301.324 999.479 C 300.882 999.479,300.521 999.714,300.521 1000.000 C 300.521 1000.286,300.052 1000.521,299.479 1000.521 C 298.906 1000.521,298.438 1000.755,298.438 1001.042 C 298.438 1001.328,298.020 1001.563,297.511 1001.563 C 297.001 1001.563,296.246 1002.031,295.833 1002.604 C 295.420 1003.177,294.834 1003.646,294.531 1003.646 C 294.228 1003.646,293.642 1004.115,293.229 1004.688 C 292.816 1005.260,292.118 1005.729,291.677 1005.729 C 291.236 1005.729,290.243 1006.315,289.471 1007.031 C 288.698 1007.747,287.850 1008.333,287.586 1008.333 C 287.321 1008.333,286.139 1009.271,284.958 1010.417 C 283.777 1011.563,282.690 1012.500,282.542 1012.500 C 282.394 1012.500,280.782 1013.965,278.961 1015.755 C 277.140 1017.546,274.860 1019.732,273.893 1020.613 C 272.926 1021.495,270.846 1023.654,269.271 1025.413 C 265.993 1029.070,265.625 1029.239,265.625 1027.083 C 265.625 1026.224,265.391 1025.521,265.104 1025.521 C 264.818 1025.521,264.583 1024.818,264.583 1023.958 C 264.583 1023.099,264.349 1022.396,264.063 1022.396 C 263.776 1022.396,263.542 1021.974,263.542 1021.458 C 263.542 1020.294,262.377 1017.718,261.849 1017.712 C 261.634 1017.710,261.458 1015.730,261.458 1013.312 C 261.458 1010.894,261.224 1008.771,260.938 1008.594 C 260.650 1008.416,260.417 1006.081,260.417 1003.385 C 260.417 1000.690,260.183 998.355,259.896 998.177 C 259.609 998.000,259.375 997.049,259.375 996.063 C 259.375 995.077,259.609 994.271,259.896 994.271 C 260.207 994.271,260.417 992.274,260.417 989.323 C 260.417 986.372,260.627 984.375,260.938 984.375 C 261.231 984.375,261.458 982.899,261.458 980.990 C 261.458 979.080,261.685 977.604,261.979 977.604 C 262.266 977.604,262.500 976.432,262.500 975.000 C 262.500 973.568,262.734 972.396,263.021 972.396 C 263.307 972.396,263.542 971.355,263.542 970.083 C 263.542 968.811,263.776 967.625,264.063 967.448 C 264.349 967.271,264.583 966.333,264.583 965.365 C 264.583 964.396,264.818 963.458,265.104 963.281 C 265.391 963.104,265.625 961.919,265.625 960.646 C 265.625 959.374,265.859 958.333,266.146 958.333 C 266.432 958.333,266.667 957.989,266.667 957.568 C 266.667 957.147,267.157 955.862,267.757 954.711 C 268.356 953.561,268.973 951.679,269.128 950.529 C 269.282 949.379,269.612 948.438,269.860 948.438 C 270.109 948.438,270.313 947.162,270.313 945.604 C 270.313 944.045,270.547 942.625,270.833 942.448 C 271.120 942.271,271.354 940.747,271.354 939.063 C 271.354 937.378,271.589 935.854,271.875 935.677 C 272.168 935.496,272.396 932.981,272.396 929.917 C 272.396 926.639,272.603 924.479,272.917 924.479 C 273.236 924.479,273.438 921.962,273.438 917.969 C 273.438 913.976,273.236 911.458,272.917 911.458 C 272.616 911.458,272.396 909.809,272.396 907.552 C 272.396 905.295,272.176 903.646,271.875 903.646 C 271.586 903.646,271.354 902.257,271.354 900.521 C 271.354 898.785,271.123 897.396,270.833 897.396 C 270.547 897.396,270.313 896.576,270.313 895.573 C 270.313 894.570,270.078 893.750,269.792 893.750 C 269.505 893.750,269.271 893.191,269.271 892.508 C 269.271 891.174,267.917 886.259,267.139 884.773 C 266.879 884.275,266.667 883.410,266.667 882.850 C 266.667 882.290,266.432 881.687,266.146 881.510 C 265.859 881.333,265.625 880.630,265.625 879.948 C 265.625 879.266,265.391 878.562,265.104 878.385 C 264.818 878.208,264.583 877.491,264.583 876.792 C 264.583 876.093,264.349 875.521,264.063 875.521 C 263.776 875.521,263.542 875.138,263.542 874.670 C 263.542 874.203,263.130 873.441,262.627 872.978 C 262.123 872.514,261.381 871.491,260.976 870.703 C 260.572 869.915,260.046 869.271,259.808 869.271 C 259.570 869.271,259.375 868.919,259.375 868.490 C 259.375 868.060,259.141 867.708,258.854 867.708 C 258.568 867.708,258.333 867.136,258.333 866.437 C 258.333 865.738,258.099 865.021,257.813 864.844 C 257.526 864.667,257.292 864.067,257.292 863.511 C 257.292 862.955,257.060 862.500,256.777 862.500 C 256.495 862.500,255.641 861.504,254.881 860.286 C 254.121 859.069,251.892 856.512,249.927 854.604 C 247.324 852.076,246.354 850.768,246.354 849.786 C 246.354 849.044,246.120 848.438,245.833 848.438 C 245.527 848.438,245.313 846.615,245.313 844.010 C 245.313 841.406,245.098 839.583,244.792 839.583 C 244.505 839.583,244.271 838.411,244.271 836.979 C 244.271 835.544,244.511 834.375,244.806 834.375 C 245.483 834.375,245.461 803.671,244.784 802.855 C 244.526 802.545,244.279 799.795,244.234 796.745 C 244.166 792.093,244.016 791.163,243.301 790.973 C 242.584 790.782,242.599 790.736,243.390 790.685 C 243.908 790.652,244.185 790.387,244.005 790.096 C 243.825 789.805,243.500 789.676,243.282 789.811 C 242.808 790.104,242.926 788.655,243.482 787.347 C 243.700 786.834,243.733 786.267,243.554 786.089 C 243.375 785.910,243.229 786.168,243.229 786.663 M184.661 1051.000 C 184.934 1051.263,186.680 1051.588,188.542 1051.722 C 193.884 1052.107,197.396 1053.605,197.396 1055.497 C 197.396 1055.682,198.040 1056.453,198.828 1057.213 C 199.616 1057.972,200.593 1059.238,200.999 1060.026 C 201.406 1060.814,201.933 1061.458,202.171 1061.458 C 202.409 1061.458,202.604 1063.187,202.604 1065.301 L 202.604 1069.143 200.130 1068.872 C 198.770 1068.722,197.578 1068.400,197.483 1068.154 C 197.387 1067.909,196.039 1067.708,194.488 1067.708 C 192.936 1067.708,191.667 1067.474,191.667 1067.188 C 191.667 1066.901,191.198 1066.667,190.625 1066.667 C 190.052 1066.667,189.583 1066.432,189.583 1066.146 C 189.583 1065.859,189.201 1065.625,188.733 1065.625 C 188.265 1065.625,187.504 1065.193,187.040 1064.665 C 185.131 1062.489,182.292 1061.964,182.292 1063.786 C 182.292 1065.585,181.289 1064.415,180.961 1062.233 C 180.768 1060.941,180.402 1059.755,180.148 1059.598 C 179.895 1059.442,179.688 1058.638,179.688 1057.813 C 179.688 1056.987,179.453 1056.167,179.167 1055.990 C 178.880 1055.813,178.646 1054.510,178.646 1053.094 L 178.646 1050.521 181.406 1050.521 C 182.924 1050.521,184.389 1050.736,184.661 1051.000 M249.194 1065.188 C 251.056 1066.036,250.844 1066.667,248.698 1066.667 C 247.695 1066.667,246.875 1066.901,246.875 1067.188 C 246.875 1067.474,245.938 1067.708,244.792 1067.708 C 243.646 1067.708,242.708 1067.909,242.708 1068.154 C 242.708 1068.399,241.048 1068.738,239.018 1068.908 C 236.988 1069.079,234.990 1069.497,234.578 1069.839 C 234.166 1070.181,233.684 1070.316,233.507 1070.139 C 232.973 1069.605,234.244 1068.447,236.455 1067.449 C 237.603 1066.932,238.542 1066.310,238.542 1066.067 C 238.542 1065.824,239.114 1065.625,239.813 1065.625 C 240.512 1065.625,241.229 1065.391,241.406 1065.104 C 241.850 1064.386,247.570 1064.448,249.194 1065.188 M261.458 1068.229 C 260.260 1069.268,259.375 1069.569,259.375 1068.938 C 259.375 1068.410,261.124 1067.222,261.929 1067.204 C 262.391 1067.194,262.218 1067.570,261.458 1068.229 "
                  stroke="none"
                  fill="#f0f0f0"
                  fill-rule="evenodd"
                ></path>
                <path
                  id="path1"
                  d="M188.411 622.261 C 190.202 622.362,193.132 622.362,194.922 622.261 C 196.712 622.159,195.247 622.076,191.667 622.076 C 188.086 622.076,186.621 622.159,188.411 622.261 M212.109 622.264 C 215.189 622.356,220.228 622.356,223.307 622.264 C 226.387 622.172,223.867 622.096,217.708 622.096 C 211.549 622.096,209.030 622.172,212.109 622.264 M188.932 626.440 C 184.748 626.529,181.771 626.802,181.771 627.098 C 181.771 627.376,181.354 627.604,180.844 627.604 C 180.334 627.604,179.580 628.073,179.167 628.646 C 178.754 629.219,177.999 629.688,177.489 629.688 C 176.451 629.688,176.101 633.508,177.083 634.115 C 177.370 634.292,177.604 635.016,177.604 635.725 C 177.604 637.335,180.513 640.309,182.292 640.517 C 183.008 640.601,184.063 640.876,184.635 641.128 C 185.208 641.380,186.849 641.994,188.281 642.494 C 189.714 642.993,191.108 643.597,191.380 643.836 C 191.652 644.075,192.297 644.271,192.813 644.271 C 193.328 644.271,193.750 644.448,193.750 644.665 C 193.750 644.881,194.512 645.391,195.443 645.797 C 196.374 646.203,197.487 646.905,197.917 647.356 C 198.893 648.383,202.974 650.521,203.955 650.521 C 204.358 650.521,204.688 650.755,204.688 651.042 C 204.688 651.328,205.218 651.563,205.866 651.563 C 206.583 651.563,207.246 652.016,207.559 652.722 C 207.842 653.359,208.775 654.238,209.632 654.675 C 210.490 655.111,211.572 655.879,212.037 656.380 C 212.502 656.882,213.265 657.292,213.733 657.292 C 214.201 657.292,214.583 657.526,214.583 657.813 C 214.583 658.099,215.008 658.333,215.527 658.333 C 216.046 658.333,216.973 658.802,217.588 659.375 C 218.203 659.948,218.962 660.417,219.274 660.417 C 220.542 660.417,222.396 663.177,222.396 665.064 C 222.396 666.105,222.739 667.446,223.159 668.045 C 223.578 668.644,223.775 669.281,223.596 669.460 C 223.417 669.639,223.718 670.310,224.265 670.951 C 225.071 671.895,225.087 671.983,224.349 671.412 C 223.233 670.547,223.121 671.485,224.231 672.406 C 224.724 672.815,224.900 673.479,224.697 674.162 C 224.375 675.248,224.381 675.248,225.160 674.224 C 225.594 673.655,225.875 673.069,225.784 672.922 C 225.693 672.776,231.148 672.723,237.906 672.805 C 250.482 672.958,252.459 672.807,251.027 671.802 C 250.430 671.383,250.525 671.322,251.460 671.528 C 252.538 671.765,252.644 671.624,252.502 670.141 C 252.395 669.020,252.557 668.533,253.006 668.623 C 253.466 668.717,253.568 668.360,253.340 667.452 C 253.130 666.616,253.231 666.146,253.620 666.146 C 253.955 666.146,254.083 666.380,253.906 666.667 C 253.729 666.953,253.698 667.188,253.837 667.188 C 253.977 667.188,254.443 666.480,254.874 665.616 C 255.369 664.624,255.431 664.181,255.043 664.414 C 254.596 664.682,254.602 664.567,255.062 663.998 C 255.412 663.566,255.854 661.880,256.045 660.252 C 256.237 658.624,256.596 657.292,256.843 657.292 C 257.090 657.292,257.292 656.720,257.292 656.020 C 257.292 655.321,257.526 654.604,257.813 654.427 C 258.099 654.250,258.333 653.313,258.333 652.344 C 258.333 651.375,258.568 650.437,258.854 650.260 C 259.141 650.083,259.375 648.077,259.375 645.803 C 259.375 643.393,259.592 641.667,259.896 641.667 C 260.217 641.667,260.417 638.976,260.417 634.635 L 260.417 627.604 256.875 627.604 C 254.927 627.604,253.111 627.400,252.839 627.150 C 252.348 626.699,202.694 626.147,188.932 626.440 "
                  stroke="none"
                  fill="#747474"
                  fill-rule="evenodd"
                ></path>
                <path
                  id="path2"
                  d="M0.000 623.939 L 0.000 626.541 200.000 626.540 L 400.000 626.538 400.000 623.890 L 400.000 621.242 314.453 621.616 C 267.402 621.822,219.063 621.965,207.031 621.935 C 195.000 621.905,143.496 621.758,92.578 621.609 L 0.000 621.337 0.000 623.939 "
                  stroke="none"
                  fill="#211b22"
                  fill-rule="evenodd"
                ></path>
                <path
                  id="path3"
                  d="M211.458 105.208 C 211.458 105.495,210.462 105.731,209.245 105.732 C 208.027 105.734,206.360 106.086,205.539 106.514 C 204.719 106.942,203.813 107.292,203.526 107.292 C 202.850 107.292,199.479 110.968,199.479 111.706 C 199.479 112.016,199.010 112.608,198.438 113.021 C 197.865 113.434,197.396 114.169,197.396 114.655 C 197.396 115.141,197.211 115.616,196.986 115.712 C 196.390 115.964,193.750 121.566,193.750 122.578 C 193.750 123.051,193.516 123.438,193.229 123.438 C 192.943 123.438,192.708 123.906,192.708 124.479 C 192.708 125.052,192.474 125.521,192.188 125.521 C 191.901 125.521,191.667 125.896,191.667 126.354 C 191.667 127.416,187.281 131.579,185.042 132.641 C 184.102 133.087,183.333 133.660,183.333 133.914 C 183.333 134.167,183.034 134.375,182.667 134.375 C 182.301 134.375,181.663 134.844,181.250 135.417 C 180.837 135.990,180.190 136.458,179.811 136.458 C 179.433 136.458,178.620 136.927,178.005 137.500 C 177.390 138.073,176.345 138.542,175.683 138.542 C 175.021 138.542,174.479 138.776,174.479 139.063 C 174.479 139.349,174.010 139.583,173.438 139.583 C 172.865 139.583,172.396 139.818,172.396 140.104 C 172.396 140.391,171.927 140.625,171.354 140.625 C 170.781 140.625,170.313 140.859,170.313 141.146 C 170.313 141.432,169.961 141.667,169.531 141.667 C 169.102 141.667,168.750 141.901,168.750 142.188 C 168.750 142.474,168.061 142.708,167.218 142.708 C 166.376 142.708,165.562 142.910,165.410 143.156 C 165.258 143.402,163.858 143.753,162.299 143.936 C 158.757 144.353,157.813 144.709,157.813 145.629 C 157.813 146.500,165.355 146.691,165.885 145.833 C 166.062 145.547,167.131 145.313,168.260 145.313 C 169.389 145.313,170.313 145.078,170.313 144.792 C 170.313 144.505,170.857 144.271,171.522 144.271 C 172.915 144.271,177.626 142.788,178.359 142.118 C 179.050 141.488,179.688 141.555,179.688 142.257 C 179.688 142.891,173.144 149.479,172.513 149.480 C 172.305 149.480,171.511 150.007,170.747 150.652 C 169.983 151.296,168.867 152.233,168.267 152.734 C 167.667 153.236,166.827 153.646,166.400 153.646 C 165.974 153.646,165.625 153.880,165.625 154.167 C 165.625 154.453,165.156 154.688,164.583 154.688 C 164.010 154.688,163.542 154.865,163.542 155.081 C 163.542 155.632,158.083 157.478,154.167 158.252 C 150.416 158.992,151.948 160.143,156.901 160.307 C 159.802 160.403,161.458 160.261,161.458 159.916 C 161.458 159.618,162.161 159.375,163.021 159.375 C 163.880 159.375,164.583 159.141,164.583 158.854 C 164.583 158.568,165.052 158.333,165.625 158.333 C 166.198 158.333,166.667 158.099,166.667 157.813 C 166.667 157.526,167.011 157.292,167.432 157.292 C 168.387 157.292,167.912 158.767,166.573 159.957 C 166.051 160.420,165.625 161.416,165.625 162.170 C 165.625 162.925,165.391 163.542,165.104 163.542 C 164.818 163.542,164.583 164.010,164.583 164.583 C 164.583 165.156,164.349 165.625,164.063 165.625 C 163.769 165.625,163.542 167.101,163.542 169.010 C 163.542 172.049,163.649 172.396,164.583 172.396 C 165.341 172.396,165.625 172.049,165.625 171.124 C 165.625 170.425,165.859 169.708,166.146 169.531 C 166.432 169.354,166.684 168.696,166.705 168.068 C 166.726 167.441,167.197 166.224,167.752 165.365 C 168.308 164.505,168.904 163.392,169.077 162.891 C 169.251 162.389,169.599 161.979,169.852 161.979 C 170.105 161.979,170.313 161.728,170.313 161.421 C 170.313 160.637,171.664 159.375,172.504 159.375 C 172.891 159.375,173.545 158.906,173.958 158.333 C 174.371 157.760,175.243 157.292,175.896 157.292 C 176.549 157.292,177.083 157.057,177.083 156.771 C 177.083 156.484,177.655 156.250,178.355 156.250 C 179.054 156.250,179.771 156.016,179.948 155.729 C 180.125 155.443,180.518 155.208,180.821 155.208 C 181.503 155.208,180.859 163.195,180.157 163.455 C 179.899 163.550,179.688 164.312,179.688 165.148 C 179.688 165.983,179.453 166.667,179.167 166.667 C 178.880 166.667,178.646 167.253,178.646 167.969 C 178.646 168.685,178.411 169.271,178.125 169.271 C 177.839 169.271,177.604 169.740,177.604 170.313 C 177.604 170.885,177.370 171.354,177.083 171.354 C 176.797 171.354,176.563 171.823,176.563 172.396 C 176.563 172.969,176.328 173.438,176.042 173.438 C 175.755 173.438,175.521 173.906,175.521 174.479 C 175.521 175.052,175.326 175.521,175.088 175.521 C 174.850 175.521,174.331 176.165,173.934 176.953 C 173.538 177.741,171.506 180.065,169.419 182.118 C 165.242 186.226,164.716 187.500,167.195 187.500 C 168.910 187.500,170.611 186.705,171.931 185.286 C 172.397 184.785,173.038 184.375,173.356 184.375 C 173.674 184.375,175.168 183.198,176.677 181.759 C 178.292 180.218,179.506 179.405,179.631 179.780 C 179.748 180.130,179.574 180.507,179.245 180.616 C 178.915 180.726,178.646 181.369,178.646 182.044 C 178.646 182.719,178.411 183.417,178.125 183.594 C 177.839 183.771,177.604 185.074,177.604 186.489 C 177.604 187.904,177.370 189.063,177.083 189.063 C 176.768 189.063,176.563 191.319,176.563 194.792 L 176.563 200.521 172.917 200.521 C 170.833 200.521,169.271 200.744,169.271 201.042 C 169.271 201.328,168.685 201.563,167.969 201.563 C 167.253 201.563,166.667 201.797,166.667 202.083 C 166.667 202.370,166.015 202.604,165.219 202.604 C 164.369 202.604,163.462 203.034,163.021 203.646 C 162.608 204.219,161.853 204.688,161.343 204.688 C 160.834 204.688,160.417 204.895,160.417 205.149 C 160.417 205.403,159.596 206.000,158.594 206.476 C 157.591 206.951,156.771 207.548,156.771 207.802 C 156.771 208.056,156.331 208.403,155.793 208.574 C 155.255 208.744,154.142 209.463,153.319 210.170 C 152.496 210.878,151.530 211.457,151.172 211.458 C 150.814 211.458,150.521 211.693,150.521 211.979 C 150.521 212.266,150.052 212.500,149.479 212.500 C 148.906 212.500,148.438 212.734,148.438 213.021 C 148.438 213.307,147.969 213.542,147.396 213.542 C 146.823 213.542,146.354 213.776,146.354 214.063 C 146.354 214.349,145.768 214.583,145.052 214.583 C 144.336 214.583,143.750 214.818,143.750 215.104 C 143.750 215.391,143.281 215.625,142.708 215.625 C 142.135 215.625,141.667 215.859,141.667 216.146 C 141.667 216.432,141.198 216.667,140.625 216.667 C 140.052 216.667,139.583 216.901,139.583 217.188 C 139.583 217.474,138.880 217.708,138.021 217.708 C 137.161 217.708,136.458 217.943,136.458 218.229 C 136.458 218.516,135.865 218.750,135.140 218.750 C 134.414 218.750,132.979 219.102,131.951 219.531 C 130.923 219.961,129.993 220.313,129.884 220.313 C 129.460 220.313,129.716 215.503,130.187 214.623 C 130.462 214.110,130.848 211.195,131.045 208.147 C 131.242 205.098,131.603 202.604,131.848 202.604 C 132.092 202.604,132.292 201.198,132.292 199.479 C 132.292 197.743,132.523 196.354,132.813 196.354 C 133.099 196.354,133.333 195.548,133.333 194.562 C 133.333 193.576,133.568 192.625,133.854 192.448 C 134.141 192.271,134.375 191.320,134.375 190.334 C 134.375 189.348,134.609 188.542,134.896 188.542 C 135.182 188.542,135.417 187.604,135.417 186.458 C 135.417 185.313,135.651 184.375,135.938 184.375 C 136.224 184.375,136.458 183.672,136.458 182.813 C 136.458 181.953,136.693 181.250,136.979 181.250 C 137.266 181.250,137.500 180.678,137.500 179.979 C 137.500 179.279,137.734 178.562,138.021 178.385 C 138.307 178.208,138.542 177.491,138.542 176.792 C 138.542 176.093,138.776 175.521,139.063 175.521 C 139.349 175.521,139.583 174.818,139.583 173.958 C 139.583 173.099,139.818 172.396,140.104 172.396 C 140.391 172.396,140.625 171.693,140.625 170.833 C 140.625 169.974,140.859 169.271,141.146 169.271 C 141.432 169.271,141.667 168.699,141.667 167.999 C 141.667 167.300,141.871 166.602,142.120 166.448 C 142.369 166.294,143.011 164.640,143.546 162.772 C 144.081 160.903,144.697 159.375,144.915 159.375 C 145.134 159.375,145.313 158.906,145.313 158.333 C 145.313 157.760,145.503 157.292,145.736 157.292 C 145.969 157.292,146.482 156.471,146.875 155.469 C 147.268 154.466,147.781 153.646,148.014 153.646 C 148.247 153.646,148.438 153.191,148.438 152.635 C 148.438 152.079,148.672 151.479,148.958 151.302 C 149.245 151.125,149.479 150.422,149.479 149.740 C 149.479 149.057,149.714 148.354,150.000 148.177 C 150.286 148.000,150.521 146.346,150.521 144.501 C 150.521 142.611,150.748 141.146,151.042 141.146 C 151.328 141.146,151.563 139.857,151.563 138.281 C 151.563 136.706,151.797 135.417,152.083 135.417 C 152.370 135.417,152.604 135.034,152.604 134.566 C 152.604 134.099,153.014 133.334,153.516 132.868 C 156.727 129.881,156.230 126.563,152.573 126.563 C 150.915 126.563,146.867 129.877,146.276 131.719 C 146.093 132.288,144.867 132.431,140.685 132.371 C 136.716 132.315,135.045 132.493,134.235 133.060 C 133.613 133.496,132.622 133.695,131.936 133.523 C 131.218 133.343,130.729 133.454,130.729 133.798 C 130.729 134.115,130.361 134.375,129.911 134.375 C 128.554 134.375,127.604 135.754,127.604 137.723 C 127.604 139.369,127.451 139.583,126.278 139.583 C 123.010 139.583,122.390 141.299,122.426 150.238 C 122.445 154.920,122.665 158.333,122.948 158.333 C 123.217 158.333,123.438 160.208,123.438 162.500 C 123.438 164.931,123.220 166.667,122.917 166.667 C 122.630 166.667,122.396 167.487,122.396 168.490 C 122.396 169.492,122.161 170.313,121.875 170.313 C 121.589 170.313,121.354 170.781,121.354 171.354 C 121.354 171.927,121.120 172.396,120.833 172.396 C 120.547 172.396,120.313 172.865,120.313 173.438 C 120.313 174.010,120.086 174.479,119.810 174.479 C 119.533 174.479,119.151 175.651,118.961 177.083 C 118.771 178.516,118.412 179.688,118.162 179.688 C 117.913 179.688,117.708 180.273,117.708 180.990 C 117.708 181.706,117.474 182.292,117.188 182.292 C 116.901 182.292,116.667 182.760,116.667 183.333 C 116.667 183.906,116.432 184.375,116.146 184.375 C 115.859 184.375,115.625 185.078,115.625 185.938 C 115.625 186.797,115.391 187.500,115.104 187.500 C 114.818 187.500,114.583 187.969,114.583 188.542 C 114.583 189.115,114.349 189.583,114.063 189.583 C 113.776 189.583,113.542 190.286,113.542 191.146 C 113.542 192.005,113.307 192.708,113.021 192.708 C 112.734 192.708,112.500 193.177,112.500 193.750 C 112.500 194.323,112.266 194.792,111.979 194.792 C 111.693 194.792,111.458 195.378,111.458 196.094 C 111.458 196.810,111.224 197.396,110.938 197.396 C 110.651 197.396,110.417 198.099,110.417 198.958 C 110.417 199.818,110.182 200.521,109.896 200.521 C 109.609 200.521,109.375 201.210,109.375 202.053 C 109.375 202.895,109.141 203.729,108.854 203.906 C 108.568 204.083,108.333 204.842,108.333 205.593 C 108.333 206.343,108.114 207.677,107.845 208.557 C 106.871 211.746,105.729 217.640,105.729 219.476 C 105.729 220.509,105.495 221.354,105.208 221.354 C 104.922 221.354,104.688 222.526,104.688 223.958 C 104.688 225.391,104.453 226.563,104.167 226.563 C 103.850 226.563,103.646 228.906,103.646 232.552 C 103.646 236.198,103.850 238.542,104.167 238.542 C 104.453 238.542,104.688 238.891,104.688 239.317 C 104.687 241.203,109.029 244.271,111.698 244.271 C 112.426 244.271,113.021 244.505,113.021 244.792 C 113.021 245.078,113.827 245.313,114.813 245.313 C 115.799 245.313,116.750 245.547,116.927 245.833 C 117.360 246.535,132.292 246.535,132.292 245.833 C 132.292 245.530,134.028 245.313,136.458 245.313 C 138.889 245.313,140.625 245.095,140.625 244.792 C 140.625 244.505,141.513 244.271,142.599 244.271 C 145.598 244.271,150.829 242.845,154.290 241.085 C 154.787 240.832,155.666 240.625,156.243 240.625 C 156.820 240.625,157.292 240.391,157.292 240.104 C 157.292 239.818,157.995 239.583,158.854 239.583 C 159.714 239.583,160.417 239.349,160.417 239.063 C 160.417 238.776,160.872 238.542,161.428 238.542 C 161.984 238.542,162.583 238.307,162.760 238.021 C 162.937 237.734,163.654 237.500,164.354 237.500 C 165.053 237.500,165.625 237.266,165.625 236.979 C 165.625 236.693,166.211 236.458,166.927 236.458 C 167.643 236.458,168.229 236.224,168.229 235.938 C 168.229 235.651,168.932 235.417,169.792 235.417 C 170.651 235.417,171.354 235.182,171.354 234.896 C 171.354 234.609,172.526 234.375,173.958 234.375 C 175.391 234.375,176.563 234.559,176.563 234.784 C 176.563 235.008,177.266 235.607,178.125 236.115 C 178.984 236.623,179.688 237.376,179.688 237.790 C 179.688 238.203,179.922 238.542,180.208 238.542 C 180.495 238.542,180.729 239.700,180.729 241.115 C 180.729 242.530,180.495 243.833,180.208 244.010 C 179.922 244.187,179.688 244.787,179.688 245.343 C 179.688 245.899,179.453 246.354,179.167 246.354 C 178.880 246.354,178.646 246.943,178.646 247.663 C 178.646 248.383,178.355 249.438,178.000 250.007 C 177.485 250.831,177.485 251.253,178.000 252.076 C 178.355 252.645,178.646 254.286,178.646 255.722 C 178.646 257.158,178.880 258.333,179.167 258.333 C 179.453 258.333,179.688 258.802,179.688 259.375 C 179.688 259.948,179.893 260.417,180.145 260.417 C 180.397 260.417,180.883 261.094,181.226 261.921 C 181.816 263.346,183.692 265.358,189.967 271.296 C 192.360 273.561,193.908 275.801,196.034 280.074 C 196.353 280.716,196.790 281.244,197.005 281.246 C 197.220 281.248,197.396 281.939,197.396 282.782 C 197.396 283.624,197.630 284.458,197.917 284.635 C 198.203 284.812,198.438 285.529,198.438 286.229 C 198.438 286.928,198.672 287.500,198.958 287.500 C 199.245 287.500,199.479 288.203,199.479 289.063 C 199.479 289.922,199.714 290.625,200.000 290.625 C 200.286 290.625,200.521 291.431,200.521 292.417 C 200.521 293.403,200.755 294.354,201.042 294.531 C 201.328 294.708,201.563 295.894,201.563 297.166 L 201.563 299.479 199.479 299.479 C 198.333 299.479,197.396 299.245,197.396 298.958 C 197.396 298.672,196.693 298.438,195.833 298.438 C 194.974 298.438,194.271 298.203,194.271 297.917 C 194.271 297.630,193.699 297.396,192.999 297.396 C 192.300 297.396,191.583 297.161,191.406 296.875 C 191.229 296.589,190.278 296.354,189.292 296.354 C 188.306 296.354,187.500 296.120,187.500 295.833 C 187.500 295.547,186.576 295.313,185.447 295.313 C 184.318 295.313,183.258 295.092,183.092 294.822 C 182.925 294.552,181.153 294.170,179.155 293.973 C 177.156 293.777,175.521 293.411,175.521 293.162 C 175.521 292.912,174.583 292.708,173.438 292.708 C 172.292 292.708,171.354 292.474,171.354 292.188 C 171.354 291.901,170.548 291.667,169.562 291.667 C 168.576 291.667,167.625 291.432,167.448 291.146 C 167.271 290.859,166.320 290.625,165.334 290.625 C 164.348 290.625,163.542 290.391,163.542 290.104 C 163.542 289.818,162.370 289.583,160.938 289.583 C 159.505 289.583,158.333 289.349,158.333 289.063 C 158.333 288.776,157.161 288.542,155.729 288.542 C 154.297 288.542,153.125 288.307,153.125 288.021 C 153.125 287.727,151.649 287.500,149.740 287.500 C 147.830 287.500,146.354 287.273,146.354 286.979 C 146.354 286.686,144.889 286.458,142.999 286.458 C 141.154 286.458,139.500 286.224,139.323 285.938 C 139.143 285.647,136.713 285.417,133.823 285.417 C 130.719 285.417,128.646 285.625,128.646 285.938 C 128.646 286.224,127.755 286.458,126.666 286.458 C 124.658 286.458,121.886 287.438,121.879 288.151 C 121.877 288.366,121.518 288.542,121.082 288.542 C 120.647 288.542,119.024 289.772,117.476 291.276 C 115.928 292.780,113.948 294.596,113.076 295.313 C 112.021 296.178,111.484 297.095,111.474 298.047 C 111.465 298.835,111.224 299.479,110.938 299.479 C 110.651 299.479,110.417 300.182,110.417 301.042 C 110.417 301.901,110.182 302.604,109.896 302.604 C 109.582 302.604,109.375 304.774,109.375 308.073 C 109.375 311.081,109.588 313.542,109.849 313.542 C 110.109 313.542,110.338 315.239,110.357 317.314 C 110.377 319.390,110.632 321.166,110.926 321.263 C 111.219 321.361,111.458 322.359,111.458 323.481 C 111.458 324.603,111.693 325.521,111.979 325.521 C 112.266 325.521,112.500 326.562,112.500 327.834 C 112.500 329.106,112.734 330.292,113.021 330.469 C 113.307 330.646,113.542 332.066,113.542 333.624 C 113.542 335.183,113.776 336.458,114.063 336.458 C 114.349 336.458,114.583 337.747,114.583 339.323 C 114.583 340.898,114.818 342.188,115.104 342.188 C 115.391 342.188,115.625 343.359,115.625 344.792 C 115.625 346.224,115.859 347.396,116.146 347.396 C 116.432 347.396,116.667 348.568,116.667 350.000 C 116.667 351.432,116.901 352.604,117.188 352.604 C 117.474 352.604,117.708 353.659,117.708 354.948 C 117.708 356.237,117.909 357.292,118.154 357.292 C 118.400 357.292,118.763 359.437,118.960 362.060 C 119.158 364.682,119.544 367.245,119.816 367.755 C 120.089 368.264,120.313 369.621,120.313 370.768 C 120.313 371.916,120.547 373.000,120.833 373.177 C 121.120 373.354,121.354 374.526,121.354 375.781 C 121.354 377.037,121.589 378.208,121.875 378.385 C 122.161 378.562,122.396 379.852,122.396 381.250 C 122.396 382.648,122.630 383.938,122.917 384.115 C 123.203 384.292,123.438 385.581,123.438 386.979 C 123.438 388.378,123.672 389.667,123.958 389.844 C 124.245 390.021,124.479 392.007,124.479 394.258 C 124.479 397.023,124.690 398.449,125.130 398.655 C 125.651 398.898,125.651 399.019,125.130 399.262 C 124.772 399.429,124.479 399.900,124.479 400.309 C 124.479 400.717,123.776 401.787,122.917 402.686 C 122.057 403.585,121.354 404.531,121.354 404.787 C 121.354 405.042,120.876 405.765,120.292 406.392 C 119.708 407.018,119.084 408.114,118.905 408.826 C 118.727 409.539,118.150 410.584,117.624 411.148 C 117.097 411.713,116.667 412.372,116.667 412.612 C 116.667 413.258,112.100 417.708,111.437 417.708 C 111.124 417.708,110.005 418.527,108.950 419.527 C 107.895 420.527,106.738 421.347,106.380 421.350 C 106.022 421.352,105.729 421.589,105.729 421.875 C 105.729 422.161,105.260 422.396,104.688 422.396 C 104.115 422.396,103.646 422.591,103.646 422.829 C 103.646 423.067,103.001 423.592,102.214 423.997 C 101.426 424.401,100.402 425.144,99.939 425.647 C 99.476 426.151,98.866 426.563,98.584 426.563 C 98.302 426.563,97.335 427.266,96.436 428.125 C 95.537 428.984,94.565 429.687,94.276 429.688 C 93.987 429.688,93.750 429.893,93.750 430.145 C 93.750 430.397,93.012 430.909,92.109 431.282 C 91.207 431.656,89.691 432.739,88.741 433.689 C 87.545 434.886,86.528 435.417,85.434 435.417 C 84.565 435.417,83.854 435.651,83.854 435.938 C 83.854 436.224,83.151 436.458,82.292 436.458 C 81.432 436.458,80.729 436.693,80.729 436.979 C 80.729 437.266,80.370 437.500,79.931 437.500 C 79.491 437.500,78.319 438.313,77.326 439.306 C 74.142 442.490,75.316 449.475,79.036 449.479 C 79.395 449.479,79.688 449.714,79.688 450.000 C 79.688 450.286,80.260 450.521,80.959 450.521 C 81.658 450.521,82.375 450.755,82.552 451.042 C 82.729 451.328,83.432 451.563,84.115 451.563 C 84.797 451.563,85.500 451.797,85.677 452.083 C 85.854 452.370,87.227 452.604,88.729 452.604 C 90.230 452.604,91.703 452.849,92.003 453.149 C 93.020 454.166,117.188 453.099,117.188 452.037 C 117.188 451.776,119.049 451.563,121.323 451.563 C 123.598 451.563,125.604 451.328,125.781 451.042 C 125.958 450.755,127.496 450.521,129.197 450.521 C 130.913 450.521,132.292 450.289,132.292 450.000 C 132.292 449.702,133.854 449.479,135.938 449.479 C 138.021 449.479,139.583 449.256,139.583 448.958 C 139.583 448.657,141.233 448.438,143.490 448.438 C 145.747 448.438,147.396 448.218,147.396 447.917 C 147.396 447.630,148.671 447.396,150.230 447.396 C 151.788 447.396,153.208 447.161,153.385 446.875 C 153.562 446.589,154.514 446.354,155.499 446.354 C 156.485 446.354,157.292 446.120,157.292 445.833 C 157.292 445.547,157.995 445.313,158.854 445.313 L 160.417 445.313 160.417 440.625 C 160.417 437.847,160.204 435.938,159.896 435.938 C 159.609 435.938,159.375 435.352,159.375 434.635 C 159.375 433.919,159.141 433.333,158.854 433.333 C 158.548 433.333,158.333 431.510,158.333 428.906 C 158.333 426.302,158.119 424.479,157.813 424.479 C 157.526 424.479,157.292 423.424,157.292 422.135 C 157.292 420.846,157.057 419.792,156.771 419.792 C 156.484 419.792,156.250 418.948,156.250 417.917 C 156.250 416.886,155.875 415.187,155.416 414.141 C 154.957 413.095,154.390 411.771,154.157 411.198 C 153.924 410.625,153.422 409.395,153.042 408.464 C 152.661 407.533,152.173 406.771,151.956 406.771 C 151.349 406.771,151.473 386.575,152.083 386.198 C 152.418 385.991,152.604 377.425,152.604 362.209 C 152.604 338.889,152.619 338.542,153.646 338.542 C 154.219 338.542,154.688 338.776,154.688 339.063 C 154.688 339.349,155.156 339.583,155.729 339.583 C 156.302 339.583,156.771 339.774,156.771 340.007 C 156.771 340.240,157.591 340.752,158.594 341.146 C 159.596 341.539,160.417 342.007,160.417 342.184 C 160.417 342.544,164.131 344.271,164.904 344.271 C 165.174 344.271,165.733 344.740,166.146 345.313 C 166.559 345.885,167.262 346.354,167.708 346.354 C 168.155 346.354,168.858 346.823,169.271 347.396 C 169.684 347.969,170.321 348.438,170.688 348.438 C 171.054 348.438,171.354 348.672,171.354 348.958 C 171.354 349.245,171.771 349.479,172.281 349.479 C 172.791 349.479,173.545 349.948,173.958 350.521 C 174.371 351.094,175.126 351.563,175.636 351.563 C 176.145 351.563,176.563 351.797,176.563 352.083 C 176.563 352.370,176.870 352.604,177.246 352.604 C 177.621 352.604,178.432 353.073,179.047 353.646 C 179.662 354.219,180.526 354.687,180.968 354.688 C 181.409 354.688,181.771 354.922,181.771 355.208 C 181.771 355.495,182.112 355.729,182.528 355.729 C 182.945 355.729,183.872 356.315,184.588 357.031 C 185.304 357.747,186.252 358.333,186.695 358.333 C 187.138 358.333,187.500 358.568,187.500 358.854 C 187.500 359.141,187.969 359.375,188.542 359.375 C 189.115 359.375,189.583 359.609,189.583 359.896 C 189.583 360.182,190.052 360.417,190.625 360.417 C 191.198 360.417,191.667 360.651,191.667 360.938 C 191.667 361.224,191.982 361.458,192.367 361.458 C 192.752 361.458,193.492 361.927,194.010 362.500 C 194.529 363.073,195.168 363.542,195.430 363.542 C 196.273 363.542,197.444 365.013,196.879 365.362 C 196.590 365.541,196.354 366.680,196.354 367.895 C 196.354 369.110,196.144 370.327,195.887 370.599 C 195.630 370.871,195.293 372.031,195.139 373.177 C 194.985 374.323,194.623 376.432,194.336 377.865 C 193.341 382.811,193.841 407.370,195.320 426.302 C 196.245 438.135,196.440 439.845,196.917 440.339 C 197.180 440.611,197.396 442.310,197.396 444.115 C 197.396 445.955,197.625 447.396,197.917 447.396 C 198.203 447.396,198.438 448.568,198.438 450.000 C 198.438 451.432,198.672 452.604,198.958 452.604 C 199.245 452.604,199.479 453.190,199.479 453.906 C 199.479 454.622,199.714 455.208,200.000 455.208 C 200.286 455.208,200.521 455.780,200.521 456.480 C 200.521 457.179,200.755 457.896,201.042 458.073 C 201.328 458.250,201.563 459.084,201.563 459.927 C 201.563 460.769,201.797 461.458,202.083 461.458 C 202.370 461.458,202.604 462.161,202.604 463.021 C 202.604 463.880,202.839 464.583,203.125 464.583 C 203.411 464.583,203.646 465.872,203.646 467.448 C 203.646 469.023,203.880 470.313,204.167 470.313 C 204.453 470.313,204.688 471.367,204.688 472.656 C 204.688 473.945,204.922 475.000,205.208 475.000 C 205.495 475.000,205.729 475.771,205.729 476.713 C 205.729 477.656,206.081 479.777,206.510 481.426 C 206.940 483.076,207.292 484.986,207.292 485.672 C 207.292 486.357,207.526 487.063,207.813 487.240 C 208.099 487.417,208.333 488.354,208.333 489.323 C 208.333 490.292,208.543 491.214,208.799 491.372 C 209.055 491.531,209.407 492.599,209.580 493.747 C 209.754 494.894,210.038 496.772,210.211 497.920 C 210.385 499.068,210.736 500.136,210.993 500.294 C 211.249 500.453,211.458 501.623,211.458 502.895 C 211.458 504.167,211.693 505.208,211.979 505.208 C 212.266 505.208,212.500 506.484,212.500 508.042 C 212.500 509.601,212.734 511.021,213.021 511.198 C 213.307 511.375,213.542 512.678,213.542 514.093 C 213.542 515.509,213.776 516.667,214.063 516.667 C 214.349 516.667,214.583 517.956,214.583 519.531 C 214.583 521.107,214.818 522.396,215.104 522.396 C 215.391 522.396,215.625 523.333,215.625 524.479 C 215.625 525.625,215.859 526.563,216.146 526.563 C 216.432 526.563,216.667 527.852,216.667 529.427 C 216.667 531.003,216.901 532.292,217.188 532.292 C 217.474 532.292,217.708 533.229,217.708 534.375 C 217.708 535.521,217.910 536.458,218.157 536.458 C 218.404 536.458,218.767 538.030,218.964 539.951 C 219.161 541.873,219.518 543.689,219.759 543.988 C 219.999 544.287,220.339 545.527,220.514 546.745 C 220.690 547.962,220.975 549.954,221.147 551.172 C 221.320 552.389,221.671 553.608,221.928 553.880 C 222.185 554.152,222.396 555.252,222.396 556.323 C 222.396 557.395,222.630 558.417,222.917 558.594 C 223.203 558.771,223.438 560.060,223.438 561.458 C 223.438 562.857,223.672 564.146,223.958 564.323 C 224.654 564.753,224.654 576.563,223.958 576.563 C 223.672 576.563,223.438 577.486,223.438 578.615 C 223.438 579.744,223.203 580.813,222.917 580.990 C 222.630 581.167,222.396 582.360,222.396 583.641 C 222.396 585.204,222.145 586.066,221.634 586.262 C 221.216 586.423,220.731 587.002,220.558 587.548 C 220.373 588.131,219.766 588.542,219.090 588.542 C 218.457 588.542,217.600 589.010,217.188 589.583 C 216.775 590.156,216.020 590.625,215.510 590.625 C 215.000 590.625,214.583 590.859,214.583 591.146 C 214.583 591.432,214.166 591.667,213.657 591.667 C 213.147 591.667,212.392 592.135,211.979 592.708 C 211.566 593.281,210.852 593.750,210.392 593.750 C 209.440 593.750,207.292 595.848,207.292 596.778 C 207.292 597.118,206.706 597.396,205.990 597.396 C 205.273 597.396,204.688 597.630,204.688 597.917 C 204.688 598.203,204.115 598.438,203.416 598.438 C 202.717 598.438,202.000 598.672,201.823 598.958 C 201.646 599.245,201.132 599.479,200.681 599.479 C 200.231 599.479,199.483 599.891,199.019 600.394 C 198.556 600.897,197.533 601.640,196.745 602.045 C 195.957 602.449,195.312 602.975,195.313 603.213 C 195.313 603.451,194.961 603.646,194.531 603.646 C 194.102 603.646,193.750 603.880,193.750 604.167 C 193.750 604.453,193.281 604.688,192.708 604.688 C 192.135 604.688,191.667 604.866,191.667 605.085 C 191.667 605.303,190.138 605.919,188.270 606.454 C 186.402 606.989,184.748 607.631,184.594 607.880 C 184.440 608.129,183.616 608.333,182.764 608.333 C 180.796 608.333,177.604 611.364,177.604 613.233 C 177.604 613.942,177.370 614.667,177.083 614.844 C 176.157 615.416,176.444 619.271,177.413 619.271 C 177.881 619.271,178.642 619.705,179.106 620.236 C 179.580 620.780,181.086 621.379,182.552 621.608 C 185.654 622.092,241.110 622.054,252.474 621.560 L 260.417 621.215 260.417 613.993 C 260.417 609.525,260.218 606.771,259.896 606.771 C 259.592 606.771,259.375 605.035,259.375 602.604 C 259.375 600.174,259.158 598.438,258.854 598.438 C 258.568 598.438,258.333 597.383,258.333 596.094 C 258.333 594.805,258.099 593.750,257.813 593.750 C 257.526 593.750,257.292 593.295,257.292 592.739 C 257.292 592.183,257.085 591.600,256.832 591.444 C 256.580 591.288,256.203 589.576,255.996 587.641 C 255.771 585.544,255.220 583.560,254.632 582.735 C 254.090 581.973,253.646 580.976,253.646 580.519 C 253.646 580.061,253.411 579.688,253.125 579.688 C 252.839 579.688,252.604 578.516,252.604 577.083 C 252.604 575.651,252.389 574.479,252.126 574.479 C 251.091 574.479,250.024 548.205,251.019 547.210 C 251.743 546.486,251.765 523.103,251.042 522.656 C 250.755 522.479,250.521 520.825,250.521 518.980 C 250.521 517.090,250.293 515.625,250.000 515.625 C 249.706 515.625,249.479 514.149,249.479 512.240 C 249.479 510.330,249.252 508.854,248.958 508.854 C 248.672 508.854,248.438 507.682,248.438 506.250 C 248.438 504.818,248.203 503.646,247.917 503.646 C 247.630 503.646,247.396 502.943,247.396 502.083 C 247.396 501.224,247.161 500.521,246.875 500.521 C 246.589 500.521,246.354 499.480,246.354 498.208 C 246.354 496.936,246.120 495.750,245.833 495.573 C 245.547 495.396,245.313 494.445,245.313 493.459 C 245.313 492.473,245.078 491.667,244.792 491.667 C 244.505 491.667,244.271 490.884,244.271 489.927 C 244.271 488.969,243.922 487.036,243.495 485.630 C 242.586 482.631,242.416 471.046,243.240 468.226 C 243.533 467.225,243.921 461.895,244.104 456.380 C 244.286 450.866,244.633 446.354,244.874 446.354 C 245.516 446.354,245.434 413.678,244.792 413.281 C 244.116 412.864,244.116 410.574,244.792 410.156 C 245.078 409.979,245.313 407.739,245.313 405.178 C 245.313 402.420,245.525 400.521,245.833 400.521 C 246.120 400.521,246.354 399.928,246.354 399.204 C 246.354 398.260,247.429 396.822,250.149 394.126 C 252.236 392.057,254.404 389.694,254.967 388.875 C 255.529 388.055,256.283 387.076,256.641 386.698 C 256.999 386.321,257.292 385.644,257.292 385.193 C 257.292 384.743,257.526 384.375,257.813 384.375 C 258.099 384.375,258.333 383.672,258.333 382.813 C 258.333 381.953,258.568 381.250,258.854 381.250 C 259.141 381.250,259.375 380.898,259.375 380.469 C 259.375 380.039,259.570 379.688,259.808 379.688 C 260.046 379.688,260.572 379.043,260.976 378.255 C 261.381 377.467,262.123 376.444,262.627 375.981 C 263.130 375.517,263.542 374.756,263.542 374.288 C 263.542 373.820,263.776 373.438,264.063 373.438 C 264.349 373.438,264.583 372.898,264.583 372.240 C 264.583 371.581,264.770 370.819,264.998 370.547 C 265.226 370.275,265.710 369.115,266.074 367.969 C 266.438 366.823,266.922 365.417,267.150 364.844 C 267.993 362.724,268.719 360.095,269.058 357.931 C 269.250 356.707,269.611 355.580,269.860 355.426 C 270.109 355.273,270.313 354.340,270.313 353.355 C 270.313 352.369,270.547 351.563,270.833 351.563 C 271.120 351.563,271.354 350.404,271.354 348.989 C 271.354 347.574,271.589 346.271,271.875 346.094 C 272.161 345.917,272.396 343.911,272.396 341.636 C 272.396 339.226,272.613 337.500,272.917 337.500 C 273.236 337.500,273.438 334.983,273.438 330.990 C 273.438 326.997,273.236 324.479,272.917 324.479 C 272.601 324.479,272.396 322.232,272.396 318.781 C 272.396 315.544,272.171 312.943,271.875 312.760 C 271.589 312.583,271.354 311.163,271.354 309.605 C 271.354 308.046,271.120 306.771,270.833 306.771 C 270.544 306.771,270.313 305.382,270.313 303.646 C 270.313 301.910,270.081 300.521,269.792 300.521 C 269.505 300.521,269.269 299.876,269.266 299.089 C 269.263 298.301,268.677 296.403,267.964 294.870 C 267.250 293.338,266.667 291.756,266.667 291.355 C 266.667 290.953,266.432 290.625,266.146 290.625 C 265.859 290.625,265.625 289.584,265.625 288.312 C 265.625 287.040,265.415 285.869,265.159 285.711 C 264.721 285.441,264.446 284.100,263.733 278.776 C 263.570 277.559,263.226 276.563,262.968 276.563 C 262.711 276.563,262.500 275.391,262.500 273.958 C 262.500 272.526,262.266 271.354,261.979 271.354 C 261.685 271.354,261.458 269.878,261.458 267.969 C 261.458 266.059,261.231 264.583,260.938 264.583 C 260.627 264.583,260.417 262.587,260.417 259.635 C 260.417 256.684,260.207 254.688,259.896 254.688 C 259.609 254.688,259.375 253.998,259.375 253.156 C 259.375 252.313,259.609 251.479,259.896 251.302 C 260.187 251.122,260.417 248.693,260.417 245.803 C 260.417 242.698,260.625 240.625,260.938 240.625 C 261.246 240.625,261.458 238.715,261.458 235.938 C 261.458 233.160,261.671 231.250,261.979 231.250 C 262.266 231.250,262.500 230.898,262.500 230.469 C 262.500 230.039,262.734 229.688,263.021 229.688 C 263.307 229.688,263.542 228.984,263.542 228.125 C 263.542 227.266,263.776 226.563,264.063 226.563 C 264.349 226.563,264.583 225.859,264.583 225.000 C 264.583 224.141,264.818 223.438,265.104 223.438 C 265.391 223.438,265.625 222.734,265.625 221.875 C 265.625 219.699,266.011 219.873,269.271 223.519 C 272.695 227.349,274.300 228.945,278.879 233.073 C 280.785 234.792,283.425 237.194,284.745 238.411 C 286.065 239.629,287.353 240.625,287.607 240.625 C 287.860 240.625,288.613 241.170,289.279 241.836 C 289.945 242.502,291.224 243.351,292.120 243.722 C 293.017 244.093,293.750 244.603,293.750 244.855 C 293.750 245.107,293.994 245.313,294.293 245.313 C 294.591 245.313,295.338 245.781,295.953 246.354 C 296.568 246.927,297.379 247.396,297.754 247.396 C 298.130 247.396,298.438 247.630,298.438 247.917 C 298.438 248.203,298.906 248.438,299.479 248.438 C 300.052 248.438,300.521 248.672,300.521 248.958 C 300.521 249.245,300.882 249.479,301.324 249.479 C 301.766 249.479,302.630 249.948,303.245 250.521 C 303.860 251.094,304.905 251.563,305.567 251.563 C 306.229 251.563,306.771 251.797,306.771 252.083 C 306.771 252.370,307.343 252.604,308.042 252.604 C 308.741 252.604,309.458 252.839,309.635 253.125 C 309.812 253.411,310.764 253.646,311.749 253.646 C 312.735 253.646,313.542 253.880,313.542 254.167 C 313.542 254.481,315.712 254.688,319.010 254.688 C 322.309 254.688,324.479 254.481,324.479 254.167 C 324.479 253.880,325.037 253.646,325.718 253.646 C 328.381 253.646,331.250 249.881,331.250 246.385 C 331.250 244.683,331.484 243.146,331.771 242.969 C 332.057 242.792,332.292 242.192,332.292 241.636 C 332.292 241.080,332.057 240.625,331.771 240.625 C 331.448 240.625,331.234 237.603,331.209 232.682 C 331.166 224.468,330.689 218.492,329.681 213.542 C 329.361 211.966,328.974 209.564,328.822 208.203 C 328.670 206.842,328.334 205.729,328.075 205.729 C 327.816 205.729,327.604 204.557,327.604 203.125 C 327.604 201.693,327.370 200.521,327.083 200.521 C 326.797 200.521,326.563 199.480,326.563 198.208 C 326.563 196.936,326.328 195.750,326.042 195.573 C 325.755 195.396,325.521 193.976,325.521 192.417 C 325.521 190.859,325.286 189.583,325.000 189.583 C 324.688 189.583,324.479 187.510,324.479 184.406 C 324.479 181.516,324.709 179.086,325.000 178.906 C 325.286 178.729,325.521 177.895,325.521 177.053 C 325.521 176.210,325.755 175.521,326.042 175.521 C 326.328 175.521,326.563 174.714,326.563 173.729 C 326.563 172.743,326.797 171.792,327.083 171.615 C 327.370 171.438,327.604 170.483,327.604 169.493 C 327.604 168.504,327.811 167.287,328.064 166.790 C 329.054 164.843,329.630 163.205,329.937 161.458 C 330.113 160.456,330.386 158.901,330.543 158.004 C 330.706 157.075,330.583 156.221,330.258 156.020 C 329.944 155.826,329.688 155.213,329.688 154.657 C 329.688 154.101,329.336 153.646,328.906 153.646 C 328.477 153.646,328.125 153.411,328.125 153.125 C 328.125 152.839,327.773 152.604,327.344 152.604 C 326.786 152.604,326.563 152.036,326.563 150.615 C 326.563 148.403,324.796 146.354,322.889 146.354 C 322.305 146.354,321.242 145.768,320.526 145.052 C 319.526 144.053,318.684 143.750,316.903 143.750 C 315.568 143.750,314.583 143.508,314.583 143.179 C 314.583 142.817,313.631 142.674,311.979 142.788 C 309.572 142.955,309.374 142.880,309.375 141.797 C 309.375 141.152,309.141 140.625,308.854 140.625 C 308.568 140.625,308.333 140.156,308.333 139.583 C 308.333 139.010,308.156 138.542,307.940 138.542 C 307.723 138.542,307.235 137.839,306.854 136.979 C 306.236 135.583,305.917 135.417,303.863 135.417 L 301.563 135.417 301.563 138.251 C 301.563 139.809,301.797 141.229,302.083 141.406 C 302.370 141.583,302.604 142.535,302.604 143.520 C 302.604 144.506,302.839 145.313,303.125 145.313 C 303.411 145.313,303.646 145.664,303.646 146.094 C 303.646 146.523,303.411 146.875,303.125 146.875 C 302.804 146.875,302.604 149.479,302.604 153.646 C 302.604 157.813,302.804 160.417,303.125 160.417 C 303.411 160.417,303.646 161.471,303.646 162.760 C 303.646 164.049,303.880 165.104,304.167 165.104 C 304.453 165.104,304.688 166.042,304.688 167.188 C 304.688 168.333,304.876 169.271,305.107 169.271 C 305.591 169.271,306.765 176.693,307.126 182.031 C 307.262 184.036,307.589 185.900,307.853 186.172 C 308.117 186.444,308.333 188.833,308.333 191.480 C 308.333 194.127,308.568 196.438,308.854 196.615 C 309.174 196.813,309.375 201.124,309.375 207.813 C 309.375 214.501,309.174 218.812,308.854 219.010 C 308.568 219.187,308.333 219.787,308.333 220.343 C 308.333 221.850,308.204 221.755,302.993 216.450 C 289.546 202.759,286.798 200.016,283.651 197.140 C 281.773 195.424,279.960 193.928,279.622 193.815 C 278.502 193.442,272.396 187.013,272.396 186.208 C 272.396 185.773,272.161 185.417,271.875 185.417 C 271.589 185.417,271.354 184.714,271.354 183.854 C 271.354 182.995,271.120 182.292,270.833 182.292 C 270.547 182.292,270.313 181.471,270.313 180.469 C 270.313 179.466,270.078 178.646,269.792 178.646 C 269.505 178.646,269.271 178.291,269.271 177.858 C 269.271 176.253,265.466 169.233,263.496 167.202 C 261.157 164.792,261.077 164.583,262.500 164.583 C 263.073 164.583,263.542 164.780,263.542 165.021 C 263.542 165.261,264.136 165.729,264.863 166.060 C 266.408 166.764,267.168 167.363,269.429 169.659 C 273.298 173.587,274.479 175.015,274.479 175.766 C 274.479 176.204,274.714 176.563,275.000 176.563 C 275.286 176.563,275.521 177.031,275.521 177.604 C 275.521 178.177,275.755 178.646,276.042 178.646 C 276.328 178.646,276.563 179.232,276.563 179.948 C 276.563 180.664,276.797 181.250,277.083 181.250 C 277.370 181.250,277.604 182.422,277.604 183.854 C 277.604 186.005,277.766 186.458,278.532 186.458 C 279.865 186.458,281.092 182.201,280.276 180.409 C 279.952 179.699,279.688 178.308,279.688 177.319 C 279.688 176.330,279.453 175.521,279.167 175.521 C 278.880 175.521,278.645 174.993,278.644 174.349 C 278.642 173.704,277.705 171.942,276.560 170.432 C 275.416 168.922,274.479 167.552,274.479 167.386 C 274.479 166.913,269.680 162.500,269.166 162.500 C 268.913 162.500,268.203 162.031,267.588 161.458 L 266.470 160.417 268.391 160.417 C 269.448 160.417,270.313 160.651,270.313 160.938 C 270.313 161.224,271.250 161.458,272.396 161.458 C 273.542 161.458,274.483 161.634,274.487 161.849 C 274.492 162.064,275.703 162.826,277.179 163.542 C 278.655 164.258,280.676 165.605,281.671 166.536 C 283.336 168.095,285.417 168.804,285.417 167.812 C 285.417 167.057,284.123 164.592,283.724 164.587 C 283.509 164.585,283.333 164.240,283.333 163.820 C 283.333 163.004,280.235 159.375,279.539 159.375 C 279.310 159.375,278.620 158.906,278.005 158.333 L 276.887 157.292 280.340 157.292 C 282.239 157.292,283.938 157.526,284.115 157.813 C 284.292 158.099,285.126 158.333,285.968 158.333 C 286.811 158.333,287.500 158.568,287.500 158.854 C 287.500 159.141,288.109 159.375,288.854 159.375 C 289.696 159.375,290.778 159.986,291.719 160.993 C 293.642 163.052,294.903 162.736,294.464 160.306 C 294.128 158.444,289.678 153.646,288.287 153.646 C 287.854 153.646,287.500 153.411,287.500 153.125 C 287.500 152.839,286.797 152.604,285.938 152.604 C 285.078 152.604,284.375 152.370,284.375 152.083 C 284.375 151.797,283.438 151.563,282.292 151.563 C 281.146 151.563,280.208 151.328,280.208 151.042 C 280.208 150.721,277.552 150.521,273.281 150.521 C 266.786 150.521,263.557 149.959,263.546 148.828 C 263.543 148.613,263.073 148.438,262.500 148.438 C 261.927 148.438,261.458 148.203,261.458 147.917 C 261.458 147.630,261.107 147.396,260.678 147.396 C 260.249 147.396,259.029 146.576,257.966 145.573 C 256.903 144.570,255.730 143.750,255.360 143.750 C 254.990 143.750,254.688 143.516,254.688 143.229 C 254.688 142.532,255.211 142.598,256.771 143.490 C 257.487 143.899,258.600 144.242,259.245 144.252 C 259.889 144.263,260.417 144.505,260.417 144.792 C 260.417 145.078,261.354 145.313,262.500 145.313 C 263.646 145.313,264.583 145.547,264.583 145.833 C 264.583 146.155,267.264 146.354,271.584 146.354 C 275.689 146.354,278.717 146.139,278.906 145.833 C 279.083 145.547,279.917 145.313,280.760 145.313 C 281.602 145.313,282.292 145.078,282.292 144.792 C 282.292 144.505,282.716 144.271,283.234 144.271 C 284.348 144.271,287.500 141.339,287.500 140.303 C 287.500 139.907,287.078 139.583,286.562 139.583 C 285.398 139.583,282.822 140.748,282.817 141.276 C 282.814 141.491,282.344 141.667,281.771 141.667 C 281.198 141.667,280.729 141.901,280.729 142.188 C 280.729 142.507,278.212 142.708,274.219 142.708 C 270.226 142.708,267.708 142.507,267.708 142.188 C 267.708 141.901,267.005 141.667,266.146 141.667 C 265.286 141.667,264.583 141.432,264.583 141.146 C 264.583 140.859,264.115 140.625,263.542 140.625 C 262.969 140.625,262.500 140.391,262.500 140.104 C 262.500 139.818,262.031 139.583,261.458 139.583 C 260.885 139.583,260.417 139.349,260.417 139.063 C 260.417 138.776,259.948 138.542,259.375 138.542 C 258.802 138.542,258.333 138.323,258.333 138.056 C 258.333 137.789,257.923 137.434,257.422 137.267 C 256.005 136.795,248.438 129.349,248.438 128.427 C 248.438 127.974,248.203 127.604,247.917 127.604 C 247.630 127.604,247.396 126.901,247.396 126.042 C 247.396 125.182,247.161 124.479,246.875 124.479 C 246.589 124.479,246.354 123.776,246.354 122.917 C 246.354 122.057,246.174 121.354,245.954 121.354 C 245.734 121.354,244.995 120.060,244.313 118.479 C 243.630 116.898,242.521 114.964,241.849 114.182 C 241.176 113.400,240.626 112.561,240.626 112.318 C 240.624 111.318,235.643 107.268,233.401 106.444 C 232.075 105.956,230.767 105.361,230.495 105.122 C 229.770 104.485,211.458 104.568,211.458 105.208 M234.773 179.103 C 236.605 180.029,239.418 180.679,243.099 181.027 C 245.176 181.224,246.875 181.589,246.875 181.838 C 246.875 182.088,247.695 182.292,248.698 182.292 C 250.732 182.292,250.957 182.627,249.609 183.650 C 248.534 184.466,241.887 184.632,241.406 183.854 C 241.229 183.568,240.512 183.333,239.813 183.333 C 239.114 183.333,238.542 183.122,238.542 182.863 C 238.542 182.605,237.897 182.164,237.109 181.883 C 235.655 181.365,233.333 179.577,233.333 178.975 C 233.333 178.528,233.700 178.561,234.773 179.103 M202.604 183.594 C 202.604 185.742,202.409 187.500,202.171 187.500 C 201.933 187.500,201.406 188.145,200.999 188.932 C 200.593 189.720,199.616 190.986,198.828 191.745 C 198.040 192.505,197.396 193.310,197.396 193.535 C 197.396 194.543,195.015 196.354,193.690 196.354 C 192.897 196.354,192.104 196.589,191.927 196.875 C 191.750 197.161,189.978 197.396,187.990 197.396 C 185.927 197.396,184.375 197.619,184.375 197.917 C 184.375 198.203,183.086 198.438,181.510 198.438 L 178.646 198.438 178.646 195.864 C 178.646 194.449,178.880 193.146,179.167 192.969 C 179.453 192.792,179.688 191.971,179.688 191.146 C 179.688 190.320,179.895 189.517,180.148 189.360 C 180.402 189.203,180.768 188.018,180.961 186.725 C 181.333 184.248,181.986 183.671,182.443 185.417 C 182.836 186.922,184.484 186.704,186.376 184.896 C 187.276 184.036,188.365 183.333,188.797 183.333 C 189.230 183.333,189.583 183.099,189.583 182.813 C 189.583 182.526,190.052 182.292,190.625 182.292 C 191.198 182.292,191.667 182.092,191.667 181.848 C 191.667 181.603,193.711 181.247,196.210 181.054 C 198.709 180.862,200.982 180.476,201.262 180.196 C 202.333 179.126,202.604 179.813,202.604 183.594 M261.316 180.729 C 262.348 181.541,262.444 181.771,261.752 181.771 C 260.907 181.771,259.375 180.620,259.375 179.985 C 259.375 179.444,259.975 179.674,261.316 180.729 "
                  stroke="none"
                  fill="var(--purple)"
                  fill-rule="evenodd"
                  class="svg__color"
                ></path>
                <path
                  id="path4"
                  d="M222.042 695.443 C 222.219 695.944,222.136 696.354,221.859 696.354 C 221.581 696.354,221.354 696.758,221.354 697.251 C 221.354 697.975,221.517 697.916,222.196 696.947 C 222.870 695.984,222.907 695.625,222.379 695.138 C 221.864 694.663,221.791 694.729,222.042 695.443 M221.708 699.905 C 220.834 700.076,219.958 703.172,220.525 704.088 C 220.698 704.369,220.618 704.677,220.346 704.773 C 219.827 704.957,219.396 706.609,218.907 710.298 C 218.745 711.522,218.409 712.650,218.160 712.803 C 217.912 712.957,217.708 713.889,217.708 714.874 C 217.708 715.860,217.474 716.667,217.188 716.667 C 216.901 716.667,216.667 717.956,216.667 719.531 C 216.667 721.107,216.432 722.396,216.146 722.396 C 215.859 722.396,215.625 723.320,215.625 724.448 C 215.625 725.577,215.391 726.646,215.104 726.823 C 214.818 727.000,214.583 728.420,214.583 729.979 C 214.583 731.537,214.349 732.813,214.063 732.813 C 213.776 732.813,213.542 733.971,213.542 735.386 C 213.542 736.801,213.307 738.104,213.021 738.281 C 212.734 738.458,212.500 739.714,212.500 741.072 C 212.500 742.430,212.288 743.764,212.030 744.036 C 211.771 744.309,211.430 745.586,211.273 746.875 C 210.757 751.087,210.310 753.130,209.838 753.421 C 209.583 753.578,209.375 754.500,209.375 755.469 C 209.375 756.438,209.172 757.356,208.923 757.509 C 208.675 757.663,208.322 758.790,208.140 760.014 C 207.439 764.726,206.493 769.202,206.119 769.575 C 205.905 769.790,205.729 770.981,205.729 772.222 C 205.729 773.464,205.495 774.479,205.208 774.479 C 204.922 774.479,204.688 775.637,204.688 777.053 C 204.688 778.468,204.453 779.771,204.167 779.948 C 203.880 780.125,203.646 781.147,203.646 782.218 C 203.646 783.290,203.380 784.432,203.056 784.757 C 202.709 785.104,202.635 785.736,202.875 786.293 C 203.101 786.814,203.236 787.639,203.176 788.127 C 203.076 788.950,204.526 789.018,222.860 789.050 C 242.536 789.085,242.652 789.078,242.447 788.018 C 242.334 787.431,242.443 787.076,242.689 787.228 C 242.936 787.380,243.077 788.050,243.004 788.718 C 242.929 789.396,243.150 789.931,243.505 789.931 C 243.975 789.931,244.012 789.471,243.647 788.149 C 243.376 787.169,243.127 785.230,243.093 783.839 C 243.059 782.448,242.880 781.404,242.696 781.518 C 242.164 781.847,242.712 765.072,243.308 762.760 C 243.604 761.615,243.967 759.915,244.116 758.984 C 244.264 758.053,244.594 757.292,244.849 757.292 C 245.104 757.292,245.313 756.237,245.313 754.948 C 245.313 753.659,245.547 752.604,245.833 752.604 C 246.120 752.604,246.354 751.680,246.354 750.552 C 246.354 749.423,246.589 748.354,246.875 748.177 C 247.161 748.000,247.396 747.049,247.396 746.063 C 247.396 745.077,247.630 744.271,247.917 744.271 C 248.203 744.271,248.438 743.263,248.438 742.031 C 248.438 740.799,248.651 739.569,248.913 739.297 C 249.366 738.824,249.668 736.657,250.321 729.167 C 250.484 727.305,250.841 725.509,251.116 725.175 C 251.668 724.505,251.641 704.688,251.088 704.688 C 250.901 704.688,250.696 704.053,250.631 703.278 C 250.567 702.503,250.300 701.654,250.038 701.392 C 249.775 701.129,249.621 700.650,249.695 700.327 C 249.769 700.004,249.751 699.857,249.655 700.000 C 249.559 700.143,243.421 700.143,236.015 700.000 C 228.608 699.857,222.170 699.814,221.708 699.905 M201.823 790.104 C 202.000 790.391,201.897 790.625,201.593 790.625 C 201.290 790.625,201.042 790.888,201.042 791.210 C 201.042 791.640,201.227 791.641,201.741 791.214 C 202.125 790.895,202.606 790.801,202.810 791.004 C 203.013 791.208,203.025 790.971,202.836 790.479 C 202.647 789.986,202.270 789.583,201.997 789.583 C 201.724 789.583,201.646 789.818,201.823 790.104 "
                  stroke="none"
                  fill="#949494"
                  fill-rule="evenodd"
                ></path>
                <path
                  id="path5"
                  d="M251.027 671.855 C 252.517 672.797,250.322 672.956,237.900 672.805 C 231.138 672.723,225.615 672.773,225.625 672.917 C 225.691 673.829,225.445 674.124,225.088 673.563 C 224.859 673.202,224.624 675.627,224.566 678.953 C 224.508 682.279,224.262 685.387,224.020 685.860 C 223.778 686.332,223.587 687.585,223.596 688.644 C 223.604 689.703,223.365 690.875,223.064 691.248 C 222.763 691.622,222.574 692.865,222.646 694.010 C 222.717 695.156,222.540 696.392,222.252 696.756 C 221.965 697.120,221.667 697.985,221.591 698.677 L 221.453 699.937 235.050 699.983 C 246.527 700.022,248.786 700.154,249.535 700.832 C 250.369 701.586,250.426 700.975,250.478 690.819 C 250.508 684.869,250.740 679.873,250.994 679.715 C 251.247 679.556,251.470 678.055,251.489 676.378 C 251.509 674.702,251.765 673.039,252.060 672.685 C 252.685 671.931,252.257 671.351,251.085 671.362 C 250.374 671.369,250.366 671.437,251.027 671.855 "
                  stroke="none"
                  fill="#8c8c8c"
                  fill-rule="evenodd"
                ></path>
              </g>
            </svg>