<?xml version="1.0" standalone="no"?>
<!DOCTYPE svg PUBLIC "-//W3C//DTD SVG 20010904//EN"
 "http://www.w3.org/TR/2001/REC-SVG-20010904/DTD/svg10.dtd">
<svg version="1.0" xmlns="http://www.w3.org/2000/svg"
 width="526.000000pt" height="1280.000000pt" viewBox="0 0 526.000000 1280.000000"
 preserveAspectRatio="xMidYMid meet">
<metadata>
Created by potrace 1.15, written by Peter Selinger 2001-2017
</metadata>
<g transform="translate(0.000000,1280.000000) scale(0.100000,-0.100000)"
fill="#673ab7" stroke="none">
<path d="M2696 12371 c-10 -11 -25 -17 -37 -14 -20 5 -82 -19 -110 -43 -8 -8
-29 -15 -46 -17 -16 -2 -44 -14 -61 -26 -18 -12 -32 -18 -32 -12 0 25 -28 6
-101 -70 -52 -53 -79 -89 -81 -107 -2 -15 -6 -29 -10 -32 -4 -3 -9 -32 -12
-65 -3 -33 -8 -78 -11 -100 -2 -22 -7 -62 -9 -90 -3 -27 -9 -75 -12 -106 -3
-30 -1 -88 5 -129 11 -69 11 -74 -10 -96 -21 -22 -22 -30 -16 -121 6 -82 12
-108 38 -160 37 -73 64 -104 83 -97 11 4 21 -17 40 -78 14 -47 39 -103 55
-125 36 -50 57 -170 47 -271 -14 -140 -109 -263 -261 -338 -75 -37 -75 -37
-242 -43 -153 -6 -173 -9 -226 -33 -71 -33 -137 -101 -199 -205 -44 -72 -74
-138 -141 -318 -37 -96 -84 -174 -172 -280 -170 -205 -197 -240 -225 -295 -69
-137 -94 -328 -53 -405 48 -91 104 -115 225 -96 208 34 311 76 563 235 141 89
150 93 157 73 4 -12 14 -98 23 -192 9 -93 33 -251 52 -350 47 -238 48 -324 5
-456 -18 -52 -49 -129 -71 -170 -68 -130 -184 -521 -167 -565 3 -8 -1 -47 -9
-87 -8 -39 -29 -178 -46 -307 -16 -129 -38 -289 -46 -355 -23 -170 -23 -548 1
-710 32 -218 141 -688 261 -1119 103 -370 157 -715 140 -891 -3 -38 -21 -140
-40 -225 -60 -275 -67 -437 -29 -715 17 -121 89 -475 134 -655 39 -157 64
-284 96 -485 24 -152 27 -196 26 -417 l0 -248 -47 -92 c-25 -51 -55 -104 -66
-118 -12 -14 -17 -18 -13 -10 7 13 5 13 -8 2 -12 -10 -18 -10 -23 -1 -5 8 -9
8 -14 0 -4 -6 -16 -12 -26 -14 -35 -7 -55 -19 -55 -33 0 -8 -4 -14 -10 -14 -5
0 -10 -10 -10 -22 -1 -16 -17 -34 -51 -58 -58 -41 -77 -66 -83 -112 -2 -18 -7
-48 -11 -65 -5 -22 -3 -38 6 -49 39 -47 218 -100 391 -116 l127 -11 42 29 c23
16 52 44 65 64 13 19 36 51 52 70 l27 36 40 -15 c22 -8 101 -42 175 -77 187
-86 282 -108 425 -99 100 6 201 29 247 55 10 6 22 10 28 10 6 0 16 5 23 10 7
6 23 19 37 29 54 41 21 146 -87 279 -75 92 -118 163 -160 265 -27 66 -32 90
-26 122 3 22 7 130 8 240 1 183 5 216 38 395 20 107 70 329 111 493 91 361
131 550 151 722 27 229 19 365 -33 605 -23 108 -27 147 -27 285 1 104 7 198
19 270 22 135 90 409 151 610 98 321 230 832 259 1005 50 299 48 615 -8 1065
-19 160 -42 324 -50 366 -8 43 -12 85 -10 96 14 51 -97 420 -167 556 -51 98
-97 239 -105 320 -6 63 1 114 50 372 14 72 32 207 41 300 9 94 19 178 23 187
6 15 28 4 151 -74 160 -101 310 -178 386 -201 89 -26 251 -50 289 -43 69 13
130 90 142 178 3 26 -2 82 -15 143 -30 146 -77 233 -212 390 -168 197 -210
263 -274 440 -85 235 -204 406 -318 456 -45 20 -75 24 -219 29 l-167 6 -83 41
c-99 49 -185 130 -224 209 -49 101 -43 317 11 387 14 19 35 63 46 98 33 101
41 119 51 113 15 -10 48 27 80 89 20 41 32 84 38 140 13 114 13 124 -10 147
-22 22 -25 61 -9 129 7 32 6 79 -2 160 -6 64 -12 123 -11 132 0 9 -5 33 -12
54 -9 25 -10 51 -4 83 10 54 -1 94 -43 160 -40 63 -83 92 -119 82 -23 -6 -32
-4 -47 12 -18 20 -54 39 -83 43 -8 1 -31 10 -52 18 -34 15 -37 15 -43 -1 -6
-16 -7 -16 -19 0 -7 10 -16 15 -19 11 -4 -3 -7 1 -7 9 0 25 -27 43 -44 29 -15
-13 -47 -12 -57 2 -3 4 -13 -1 -23 -12z m-922 -3002 c-5 -9 -34 -13 -34 -4 0
2 5 16 12 30 12 26 12 26 20 5 4 -12 6 -26 2 -31z m1942 -7 c-9 -8 -36 13 -36
27 0 31 15 33 27 4 6 -15 10 -29 9 -31z m-936 -3163 c0 -6 -8 -39 -17 -73 -26
-91 -23 -519 6 -786 48 -439 47 -565 -4 -1185 -26 -305 -26 -329 1 -540 17
-133 15 -183 -19 -405 -32 -214 -30 -499 6 -700 58 -328 82 -986 43 -1219 -14
-86 -17 -140 -13 -218 5 -88 3 -114 -15 -171 -21 -69 -28 -158 -16 -202 l7
-25 -72 6 c-40 3 -79 5 -87 3 -13 -2 -15 9 -12 65 3 49 -2 90 -18 146 -21 74
-21 86 -10 165 9 66 10 103 1 160 -26 164 -30 270 -21 516 11 282 39 566 75
764 49 270 56 403 30 615 -38 308 -39 349 -16 497 25 164 27 313 6 618 -34
507 -31 664 20 1065 45 351 57 687 30 821 -9 41 -13 79 -10 84 9 14 105 13
105 -1z"/>
</g>
</svg>
