<svg id="svg" width="30" viewBox="0, 0, 400,1250">
              <g id="svgg">
                <path
                  id="path0"
                  d="M259.375 742.448 C 258.362 743.526,258.302 743.750,259.024 743.750 C 259.503 743.750,259.896 743.385,259.896 742.938 C 259.896 742.491,260.091 742.247,260.330 742.394 C 260.569 742.542,260.764 742.321,260.764 741.904 C 260.764 740.936,260.813 740.917,259.375 742.448 M84.759 743.620 C 84.246 744.629,84.324 763.113,84.844 763.739 C 85.152 764.111,85.465 765.272,85.541 766.321 C 85.616 767.369,85.853 768.228,86.068 768.228 C 86.283 768.229,86.458 768.698,86.458 769.271 C 86.458 769.844,86.693 770.313,86.979 770.313 C 87.266 770.313,87.500 770.730,87.500 771.239 C 87.500 771.749,87.969 772.504,88.542 772.917 C 89.115 773.330,89.583 773.940,89.583 774.274 C 89.583 774.607,90.194 775.280,90.940 775.769 C 91.687 776.258,93.013 777.342,93.887 778.178 C 94.761 779.013,95.578 779.596,95.702 779.472 C 95.825 779.348,96.644 779.932,97.520 780.769 C 98.396 781.607,99.430 782.292,99.817 782.292 C 100.204 782.292,100.521 782.476,100.521 782.700 C 100.521 782.925,101.230 783.528,102.097 784.040 C 102.965 784.552,104.243 785.540,104.938 786.236 C 105.634 786.931,106.448 787.500,106.747 787.500 C 107.047 787.500,107.292 787.734,107.292 788.021 C 107.292 788.307,107.657 788.542,108.104 788.542 C 108.550 788.542,108.793 788.741,108.642 788.984 C 108.492 789.227,109.002 789.755,109.776 790.156 C 110.550 790.557,111.693 791.320,112.316 791.850 C 112.939 792.381,113.545 792.733,113.663 792.632 C 113.780 792.531,114.262 792.799,114.733 793.229 C 116.440 794.787,117.151 795.313,117.556 795.315 C 117.783 795.316,118.718 796.019,119.633 796.877 C 120.549 797.735,121.545 798.438,121.847 798.438 C 122.149 798.438,122.396 798.672,122.396 798.958 C 122.396 799.245,122.761 799.479,123.208 799.479 C 123.654 799.479,123.875 799.714,123.698 800.000 C 123.521 800.286,123.859 800.521,124.448 800.521 C 125.038 800.521,125.522 800.697,125.524 800.911 C 125.526 801.126,126.405 801.886,127.478 802.600 C 128.550 803.313,129.599 804.133,129.810 804.422 C 130.020 804.711,130.196 804.756,130.200 804.522 C 130.205 804.287,130.889 804.580,131.721 805.173 C 132.553 805.765,133.383 806.250,133.566 806.250 C 133.748 806.250,134.401 806.719,135.016 807.292 C 135.631 807.865,136.441 808.333,136.817 808.333 C 137.193 808.333,137.500 808.568,137.500 808.854 C 137.500 809.141,137.969 809.375,138.542 809.375 C 139.352 809.375,139.583 809.722,139.583 810.938 C 139.583 811.998,139.841 812.500,140.387 812.500 C 141.975 812.500,147.245 817.631,148.973 820.861 C 149.794 822.394,153.989 826.563,154.711 826.563 C 155.964 826.563,156.736 828.012,156.416 829.763 C 155.892 832.630,155.621 839.595,155.997 840.533 C 156.400 841.540,156.659 844.394,157.044 852.083 C 157.194 855.091,157.585 858.077,157.911 858.719 C 158.355 859.593,158.353 860.375,157.900 861.844 C 156.863 865.209,156.225 903.359,157.028 913.911 C 157.381 918.535,156.752 922.032,155.174 924.219 C 153.990 925.860,152.604 928.818,152.604 929.703 C 152.604 930.268,152.370 930.729,152.083 930.729 C 151.782 930.729,151.563 932.378,151.563 934.635 C 151.563 936.892,151.782 938.542,152.083 938.542 C 152.370 938.542,152.604 939.348,152.604 940.334 C 152.604 941.320,152.839 942.271,153.125 942.448 C 153.411 942.625,153.646 943.342,153.646 944.041 C 153.646 944.740,153.880 945.313,154.167 945.313 C 154.453 945.313,154.688 946.016,154.688 946.875 C 154.688 947.734,154.893 948.438,155.143 948.438 C 155.394 948.438,155.739 949.139,155.911 949.997 C 156.082 950.855,156.698 952.539,157.278 953.741 C 157.858 954.942,158.333 956.232,158.333 956.608 C 158.333 956.984,158.568 957.292,158.854 957.292 C 159.141 957.292,159.375 957.760,159.375 958.333 C 159.375 958.906,159.609 959.375,159.896 959.375 C 160.182 959.375,160.417 959.844,160.417 960.417 C 160.417 960.990,160.651 961.458,160.938 961.458 C 161.224 961.458,161.458 961.927,161.458 962.500 C 161.458 963.073,161.693 963.542,161.979 963.542 C 162.266 963.542,162.500 964.010,162.500 964.583 C 162.500 965.156,162.734 965.625,163.021 965.625 C 163.307 965.625,163.542 965.977,163.542 966.406 C 163.542 966.836,163.736 967.188,163.974 967.188 C 164.213 967.188,164.738 967.832,165.143 968.620 C 165.547 969.408,166.290 970.431,166.793 970.894 C 167.297 971.358,167.708 972.119,167.708 972.587 C 167.708 973.055,167.914 973.438,168.166 973.438 C 168.418 973.438,168.915 974.141,169.271 975.000 C 169.627 975.859,170.141 976.563,170.413 976.563 C 171.172 976.563,172.396 977.958,172.396 978.824 C 172.396 979.249,173.802 981.025,175.521 982.771 C 177.240 984.516,178.646 986.243,178.646 986.607 C 178.646 986.972,179.115 987.608,179.688 988.021 C 180.260 988.434,180.729 989.076,180.729 989.448 C 180.729 989.820,181.315 991.053,182.031 992.188 C 182.747 993.322,183.333 994.437,183.333 994.666 C 183.333 994.895,183.802 995.420,184.375 995.833 C 184.948 996.246,185.417 996.982,185.417 997.467 C 185.417 997.953,185.710 998.458,186.068 998.589 C 186.589 998.780,186.589 998.966,186.068 999.518 C 185.710 999.898,185.417 1000.747,185.417 1001.406 C 185.417 1002.065,185.182 1002.604,184.896 1002.604 C 184.609 1002.604,184.375 1002.954,184.375 1003.381 C 184.375 1004.075,183.271 1005.624,181.380 1007.584 C 181.022 1007.955,180.729 1008.510,180.729 1008.817 C 180.729 1009.850,178.341 1009.665,177.221 1008.546 C 175.572 1006.896,171.950 1005.729,168.481 1005.729 C 164.602 1005.729,164.368 1005.882,162.500 1009.635 C 161.074 1012.501,160.254 1013.542,159.422 1013.542 C 159.121 1013.542,158.717 1014.186,158.524 1014.974 C 158.332 1015.762,157.741 1016.965,157.212 1017.648 C 156.683 1018.332,156.250 1019.679,156.250 1020.643 C 156.250 1022.249,156.117 1022.396,154.664 1022.396 C 151.594 1022.396,148.673 1028.484,151.042 1029.948 C 151.328 1030.125,151.563 1030.725,151.563 1031.281 C 151.563 1031.837,151.797 1032.292,152.083 1032.292 C 152.370 1032.292,152.604 1032.760,152.604 1033.333 C 152.604 1033.906,152.839 1034.375,153.125 1034.375 C 153.411 1034.375,153.646 1034.844,153.646 1035.417 C 153.646 1035.990,153.880 1036.458,154.167 1036.458 C 154.453 1036.458,154.688 1036.913,154.688 1037.469 C 154.688 1038.025,154.453 1038.625,154.167 1038.802 C 153.880 1038.979,153.646 1039.696,153.646 1040.395 C 153.646 1041.095,153.411 1041.667,153.125 1041.667 C 152.839 1041.667,152.604 1042.135,152.604 1042.708 C 152.604 1043.281,152.370 1043.750,152.083 1043.750 C 151.797 1043.750,151.563 1044.102,151.563 1044.531 C 151.563 1044.961,151.328 1045.313,151.042 1045.313 C 150.233 1045.313,150.359 1056.098,151.172 1056.426 C 151.693 1056.636,151.693 1056.697,151.172 1056.730 C 150.814 1056.752,150.521 1057.357,150.521 1058.073 C 150.521 1058.789,150.286 1059.375,150.000 1059.375 C 149.235 1059.375,149.364 1065.284,150.163 1066.824 C 151.072 1068.577,155.633 1072.979,157.554 1073.958 C 158.397 1074.388,160.000 1075.618,161.117 1076.693 C 162.233 1077.767,163.470 1078.646,163.865 1078.646 C 164.260 1078.646,164.583 1078.837,164.583 1079.070 C 164.583 1079.589,167.971 1081.250,169.028 1081.250 C 169.448 1081.250,169.792 1081.484,169.792 1081.771 C 169.792 1082.057,170.143 1082.292,170.573 1082.292 C 171.003 1082.292,171.354 1082.526,171.354 1082.813 C 171.354 1083.099,171.823 1083.333,172.396 1083.333 C 172.969 1083.333,173.438 1083.568,173.438 1083.854 C 173.438 1084.141,174.375 1084.375,175.521 1084.375 C 176.667 1084.375,177.604 1084.609,177.604 1084.896 C 177.604 1085.189,179.070 1085.417,180.959 1085.417 C 182.804 1085.417,184.458 1085.651,184.635 1085.938 C 184.812 1086.224,185.750 1086.458,186.719 1086.458 C 187.688 1086.458,188.625 1086.224,188.802 1085.938 C 188.979 1085.651,190.282 1085.417,191.697 1085.417 C 193.113 1085.417,194.271 1085.182,194.271 1084.896 C 194.271 1084.609,194.576 1084.375,194.948 1084.375 C 195.906 1084.375,198.429 1083.150,198.433 1082.682 C 198.436 1082.467,198.799 1082.292,199.241 1082.292 C 199.684 1082.292,200.677 1081.706,201.450 1080.990 C 203.060 1079.497,203.646 1079.358,203.646 1080.469 C 203.646 1081.009,204.189 1081.250,205.405 1081.250 C 206.373 1081.250,207.456 1080.898,207.813 1080.469 C 208.602 1079.517,209.724 1079.466,210.696 1080.339 C 212.503 1081.959,213.029 1082.292,213.780 1082.292 C 214.222 1082.292,214.583 1082.526,214.583 1082.813 C 214.583 1083.099,215.521 1083.333,216.667 1083.333 C 217.813 1083.333,218.750 1083.568,218.750 1083.854 C 218.750 1084.427,222.536 1084.582,223.086 1084.032 C 223.274 1083.844,223.199 1083.413,222.919 1083.075 C 222.356 1082.397,223.677 1081.561,226.162 1081.023 C 228.032 1080.617,231.250 1077.762,231.250 1076.509 C 231.250 1075.965,231.484 1075.521,231.771 1075.521 C 232.057 1075.521,232.292 1075.052,232.292 1074.479 C 232.292 1073.906,232.526 1073.438,232.813 1073.438 C 233.099 1073.438,233.333 1072.734,233.333 1071.875 C 233.333 1071.016,233.568 1070.313,233.854 1070.313 C 234.141 1070.313,234.375 1069.961,234.375 1069.531 C 234.375 1069.102,234.141 1068.750,233.854 1068.750 C 233.568 1068.750,233.333 1068.398,233.333 1067.969 C 233.333 1067.539,233.568 1067.188,233.854 1067.188 C 234.141 1067.188,234.375 1066.016,234.375 1064.583 C 234.375 1063.151,234.609 1061.979,234.896 1061.979 C 235.218 1061.979,235.417 1059.201,235.417 1054.688 C 235.417 1050.174,235.615 1047.396,235.938 1047.396 C 236.224 1047.396,236.458 1046.693,236.458 1045.833 C 236.458 1044.974,236.693 1044.271,236.979 1044.271 C 237.266 1044.271,237.500 1043.216,237.500 1041.927 C 237.500 1040.638,237.734 1039.583,238.021 1039.583 C 238.307 1039.583,238.542 1039.115,238.542 1038.542 C 238.542 1037.969,238.776 1037.500,239.063 1037.500 C 239.349 1037.500,239.583 1036.797,239.583 1035.938 C 239.583 1033.713,238.174 1033.921,235.969 1036.470 C 234.225 1038.486,232.690 1039.087,232.026 1038.012 C 231.846 1037.721,231.481 1037.618,231.214 1037.783 C 230.947 1037.947,230.729 1037.753,230.729 1037.350 C 230.729 1036.056,229.114 1033.333,228.347 1033.333 C 227.786 1033.333,227.604 1034.099,227.604 1036.458 C 227.604 1038.194,227.373 1039.583,227.083 1039.583 C 226.797 1039.583,226.563 1039.349,226.563 1039.063 C 226.563 1038.776,225.859 1038.542,225.000 1038.542 C 223.418 1038.542,222.717 1040.119,223.958 1040.885 C 225.916 1042.095,224.433 1043.604,220.964 1043.931 C 213.911 1044.597,213.542 1044.524,213.542 1042.448 C 213.542 1041.445,213.307 1040.625,213.021 1040.625 C 212.734 1040.625,212.500 1039.922,212.500 1039.063 C 212.500 1038.203,212.266 1037.500,211.979 1037.500 C 211.693 1037.500,211.458 1036.680,211.458 1035.677 C 211.458 1034.674,211.283 1033.852,211.068 1033.850 C 210.853 1033.848,210.384 1033.215,210.026 1032.444 C 209.250 1030.773,209.147 1024.479,209.896 1024.479 C 210.182 1024.479,210.417 1023.790,210.417 1022.947 C 210.417 1022.105,210.651 1021.271,210.938 1021.094 C 211.224 1020.917,211.458 1020.214,211.458 1019.531 C 211.458 1018.849,211.693 1018.146,211.979 1017.969 C 212.266 1017.792,212.500 1017.192,212.500 1016.636 C 212.500 1016.080,212.734 1015.625,213.021 1015.625 C 213.307 1015.625,213.542 1015.156,213.542 1014.583 C 213.542 1014.010,213.776 1013.542,214.063 1013.542 C 214.349 1013.542,214.583 1013.073,214.583 1012.500 C 214.583 1011.927,214.818 1011.458,215.104 1011.458 C 215.391 1011.458,215.625 1011.098,215.625 1010.658 C 215.625 1009.858,216.875 1008.271,219.213 1006.102 C 223.223 1002.382,225.521 1000.009,225.521 999.590 C 225.521 999.328,226.178 998.425,226.981 997.585 C 228.885 995.592,231.250 990.815,231.250 988.960 C 231.250 988.157,231.484 987.500,231.771 987.500 C 232.097 987.500,232.292 984.288,232.292 978.906 C 232.292 973.524,232.486 970.313,232.813 970.313 C 233.099 970.313,233.333 969.858,233.333 969.302 C 233.333 968.746,233.568 968.146,233.854 967.969 C 234.141 967.792,234.375 967.192,234.375 966.636 C 234.375 966.080,234.609 965.625,234.896 965.625 C 235.182 965.625,235.417 964.922,235.417 964.063 C 235.417 963.203,235.651 962.500,235.938 962.500 C 236.224 962.500,236.458 961.797,236.458 960.938 C 236.458 960.078,236.693 959.375,236.979 959.375 C 237.266 959.375,237.500 958.672,237.500 957.813 C 237.500 956.953,237.734 956.250,238.021 956.250 C 238.307 956.250,238.542 955.430,238.542 954.427 C 238.542 953.424,238.776 952.604,239.063 952.604 C 239.349 952.604,239.583 951.901,239.583 951.042 C 239.583 950.182,239.818 949.479,240.104 949.479 C 240.391 949.479,240.625 949.024,240.625 948.468 C 240.625 947.912,240.859 947.312,241.146 947.135 C 241.432 946.958,241.667 946.241,241.667 945.542 C 241.667 944.843,241.875 944.271,242.131 944.271 C 243.160 944.271,244.213 933.067,243.272 932.127 C 242.962 931.816,242.708 931.141,242.708 930.625 C 242.708 930.109,242.474 929.688,242.188 929.688 C 241.901 929.688,241.667 929.368,241.667 928.978 C 241.667 928.588,240.729 926.446,239.583 924.219 C 238.438 921.991,237.500 919.849,237.500 919.459 C 237.500 919.069,237.266 918.750,236.979 918.750 C 236.693 918.750,236.458 918.281,236.458 917.708 C 236.458 917.135,236.224 916.667,235.938 916.667 C 235.651 916.667,235.417 916.198,235.417 915.625 C 235.417 915.052,235.182 914.583,234.896 914.583 C 234.609 914.583,234.375 914.115,234.375 913.542 C 234.375 912.969,234.141 912.500,233.854 912.500 C 233.568 912.500,233.333 912.031,233.333 911.458 C 233.333 910.885,233.099 910.417,232.813 910.417 C 232.526 910.417,232.292 909.948,232.292 909.375 C 232.292 908.802,232.083 908.333,231.827 908.333 C 231.572 908.333,231.216 907.747,231.036 907.031 C 230.856 906.315,230.479 905.729,230.198 905.729 C 229.917 905.729,229.688 905.260,229.688 904.688 C 229.688 904.115,229.453 903.646,229.167 903.646 C 228.880 903.646,228.646 903.338,228.646 902.963 C 228.646 902.587,228.177 901.777,227.604 901.162 C 227.031 900.547,226.563 899.844,226.563 899.599 C 226.563 899.355,226.152 898.700,225.651 898.145 C 225.150 897.590,224.390 896.432,223.962 895.573 C 223.534 894.714,222.772 893.631,222.269 893.168 C 221.766 892.705,221.354 891.943,221.354 891.475 C 221.354 891.008,221.120 890.625,220.833 890.625 C 220.547 890.625,220.313 890.268,220.313 889.832 C 220.313 888.940,225.715 883.333,226.575 883.333 C 226.881 883.333,227.670 882.806,228.329 882.161 C 228.988 881.517,230.425 880.286,231.523 879.427 C 234.562 877.046,237.158 874.376,237.979 872.786 C 238.385 871.999,238.912 871.354,239.151 871.354 C 239.389 871.354,239.583 871.047,239.583 870.671 C 239.583 870.295,240.052 869.485,240.625 868.870 C 241.198 868.255,241.667 867.620,241.667 867.459 C 241.667 867.298,242.253 866.239,242.969 865.104 C 243.685 863.970,244.271 862.685,244.271 862.250 C 244.271 861.815,244.505 861.458,244.792 861.458 C 245.078 861.458,245.313 860.990,245.313 860.417 C 245.313 859.844,245.547 859.375,245.833 859.375 C 246.120 859.375,246.354 858.906,246.354 858.333 C 246.354 857.760,246.589 857.292,246.875 857.292 C 247.161 857.292,247.396 856.940,247.396 856.510 C 247.396 856.081,247.630 855.729,247.917 855.729 C 248.203 855.729,248.438 855.280,248.438 854.731 C 248.438 854.182,248.613 853.655,248.828 853.559 C 249.317 853.342,251.008 850.567,251.395 849.349 C 251.554 848.848,251.891 848.438,252.144 848.438 C 252.397 848.438,252.604 848.076,252.604 847.634 C 252.604 847.193,253.073 846.328,253.646 845.713 C 254.219 845.098,254.688 844.288,254.688 843.912 C 254.688 843.537,254.911 843.229,255.185 843.229 C 255.458 843.229,255.836 842.409,256.024 841.406 C 256.212 840.404,256.574 839.583,256.829 839.583 C 257.083 839.583,257.292 839.115,257.292 838.542 C 257.292 837.969,257.526 837.500,257.813 837.500 C 258.099 837.500,258.333 836.694,258.333 835.708 C 258.333 834.722,258.568 833.771,258.854 833.594 C 259.141 833.417,259.375 832.629,259.375 831.844 C 259.375 830.286,260.443 827.615,261.068 827.608 C 261.283 827.606,261.458 826.901,261.458 826.042 C 261.458 825.182,261.693 824.479,261.979 824.479 C 262.266 824.479,262.500 823.673,262.500 822.687 C 262.500 821.701,262.734 820.750,263.021 820.573 C 263.307 820.396,263.542 819.569,263.542 818.735 C 263.542 817.901,264.010 816.385,264.583 815.365 C 265.156 814.345,265.625 812.814,265.625 811.963 C 265.625 811.113,265.898 810.417,266.233 810.417 C 266.567 810.417,266.696 810.272,266.520 810.096 C 266.344 809.920,266.890 808.481,267.735 806.898 C 268.580 805.315,269.271 803.701,269.271 803.312 C 269.271 802.923,269.505 802.604,269.792 802.604 C 270.078 802.604,270.313 802.008,270.313 801.280 C 270.313 800.552,270.781 799.453,271.354 798.838 C 271.927 798.223,272.396 797.413,272.396 797.037 C 272.396 796.662,272.630 796.354,272.917 796.354 C 273.203 796.354,273.438 795.937,273.438 795.427 C 273.438 794.918,273.906 794.163,274.479 793.750 C 275.052 793.337,275.521 792.699,275.521 792.333 C 275.521 791.966,275.755 791.667,276.042 791.667 C 276.328 791.667,276.563 791.231,276.563 790.698 C 276.563 790.165,277.141 788.876,277.849 787.833 C 278.556 786.791,278.967 785.934,278.760 785.930 C 278.554 785.925,278.646 785.749,278.964 785.539 C 279.745 785.022,281.250 782.024,281.250 780.985 C 281.250 780.524,281.484 780.292,281.771 780.469 C 282.057 780.646,282.292 780.469,282.292 780.077 C 282.292 779.684,282.760 778.860,283.333 778.245 C 283.906 777.630,284.375 776.880,284.375 776.577 C 284.375 775.870,285.425 774.037,286.589 772.715 C 287.090 772.145,287.500 771.371,287.500 770.996 C 287.500 770.620,287.734 770.313,288.021 770.313 C 288.307 770.313,288.542 770.065,288.542 769.763 C 288.542 769.461,289.244 768.465,290.102 767.550 C 290.960 766.634,291.663 765.592,291.664 765.234 C 291.666 764.876,291.897 764.583,292.178 764.583 C 292.459 764.583,292.836 763.997,293.015 763.281 C 293.195 762.565,293.551 761.979,293.806 761.979 C 294.062 761.979,294.271 761.740,294.271 761.447 C 294.271 761.154,295.566 759.619,297.150 758.036 C 298.734 756.452,299.902 754.951,299.747 754.699 C 299.591 754.447,299.913 754.099,300.461 753.925 C 301.010 753.751,301.604 753.032,301.780 752.328 C 301.957 751.624,302.377 751.105,302.713 751.175 C 303.049 751.245,303.417 750.833,303.531 750.260 C 303.646 749.688,304.246 748.822,304.864 748.337 C 305.483 747.852,306.000 747.149,306.013 746.775 C 306.026 746.400,306.378 746.169,306.795 746.261 C 307.436 746.403,307.443 746.323,306.836 745.740 C 306.410 745.331,306.041 745.263,305.925 745.573 C 305.798 745.913,297.655 746.040,282.506 745.938 C 266.292 745.830,259.076 745.954,258.598 746.351 C 258.103 746.762,257.860 746.758,257.720 746.337 C 257.598 745.972,256.984 745.891,256.076 746.119 C 255.169 746.346,254.725 746.742,254.890 747.173 C 255.036 747.553,254.733 747.997,254.216 748.161 C 253.699 748.325,252.172 749.626,250.822 751.053 C 249.471 752.479,248.134 753.646,247.850 753.646 C 247.567 753.646,247.468 753.861,247.630 754.125 C 248.016 754.748,246.415 756.349,245.791 755.964 C 245.528 755.801,245.313 755.933,245.313 756.256 C 245.313 757.003,244.002 758.333,243.266 758.333 C 242.959 758.333,242.767 758.539,242.839 758.791 C 242.910 759.043,242.324 759.853,241.536 760.589 C 240.749 761.326,240.104 761.807,240.104 761.657 C 240.104 761.222,238.875 762.605,237.504 764.583 C 236.810 765.586,235.259 767.344,234.059 768.490 C 232.859 769.635,231.591 771.137,231.241 771.827 C 230.195 773.887,227.505 776.563,226.479 776.563 C 225.952 776.563,225.521 776.797,225.521 777.083 C 225.521 777.372,224.142 777.604,222.427 777.604 C 220.725 777.604,219.187 777.839,219.010 778.125 C 218.833 778.411,217.544 778.646,216.146 778.646 C 214.747 778.646,213.458 778.411,213.281 778.125 C 213.104 777.839,212.167 777.604,211.198 777.604 C 210.229 777.604,209.322 777.419,209.182 777.192 C 209.042 776.966,208.032 776.721,206.938 776.649 C 205.843 776.576,204.870 776.293,204.774 776.019 C 204.679 775.745,203.448 775.521,202.040 775.521 C 200.632 775.521,199.479 775.317,199.479 775.067 C 199.479 774.343,182.345 774.307,181.475 775.030 C 181.071 775.365,180.869 775.847,181.026 776.101 C 181.183 776.355,180.960 776.563,180.530 776.563 C 180.101 776.563,179.604 776.328,179.427 776.042 C 179.250 775.755,178.636 775.521,178.064 775.521 C 177.491 775.521,177.167 775.286,177.344 775.000 C 177.521 774.714,177.183 774.479,176.593 774.479 C 176.003 774.479,175.521 774.245,175.521 773.958 C 175.521 773.672,175.052 773.438,174.479 773.438 C 173.906 773.438,173.438 773.203,173.438 772.917 C 173.438 772.630,172.969 772.396,172.396 772.396 C 171.823 772.396,171.354 772.148,171.354 771.844 C 171.354 771.541,171.139 771.426,170.875 771.589 C 170.612 771.751,170.028 771.516,169.577 771.065 C 169.127 770.615,168.542 770.380,168.278 770.543 C 168.013 770.706,167.714 770.591,167.613 770.287 C 167.512 769.984,167.082 769.660,166.657 769.569 C 163.440 768.879,162.500 768.561,162.500 768.164 C 162.500 767.913,162.031 767.708,161.458 767.708 C 160.885 767.708,160.417 767.474,160.417 767.188 C 160.417 766.901,159.828 766.667,159.108 766.667 C 157.959 766.667,155.976 765.872,155.208 765.104 C 155.065 764.961,154.479 764.764,153.906 764.666 C 153.333 764.568,152.786 764.275,152.691 764.015 C 152.595 763.755,152.082 763.542,151.550 763.542 C 151.018 763.542,150.437 763.307,150.260 763.021 C 150.083 762.734,149.210 762.500,148.320 762.500 C 147.430 762.500,146.857 762.344,147.048 762.154 C 147.379 761.823,143.221 760.083,140.755 759.521 C 140.111 759.374,139.583 759.047,139.583 758.793 C 139.583 758.540,138.997 758.333,138.281 758.333 C 137.565 758.333,136.979 758.099,136.979 757.813 C 136.979 757.526,136.499 757.292,135.912 757.292 C 135.324 757.292,134.182 756.949,133.374 756.531 C 132.565 756.113,131.762 755.912,131.589 756.085 C 131.416 756.258,131.127 756.014,130.946 755.543 C 130.765 755.073,130.174 754.688,129.632 754.688 C 129.090 754.688,128.646 754.453,128.646 754.167 C 128.646 753.880,128.177 753.646,127.604 753.646 C 127.031 753.646,126.563 753.411,126.563 753.125 C 126.563 752.839,126.107 752.604,125.550 752.604 C 124.994 752.604,124.192 752.110,123.769 751.506 C 123.346 750.902,122.761 750.555,122.469 750.736 C 122.178 750.916,121.733 750.696,121.482 750.246 C 121.230 749.797,120.529 749.391,119.923 749.346 C 119.318 749.300,118.864 749.019,118.916 748.720 C 118.968 748.421,118.717 748.236,118.359 748.307 C 118.001 748.379,117.679 748.203,117.643 747.917 C 117.607 747.630,117.549 747.103,117.513 746.745 C 117.462 746.239,113.863 746.094,101.432 746.094 C 84.529 746.094,85.080 746.170,85.378 743.880 C 85.470 743.166,85.074 743.000,84.759 743.620 M257.099 744.681 C 256.922 744.969,257.120 745.335,257.538 745.496 C 258.331 745.800,259.192 744.956,258.646 744.410 C 258.474 744.238,258.330 744.429,258.325 744.835 C 258.319 745.448,258.241 745.453,257.870 744.866 C 257.594 744.432,257.298 744.361,257.099 744.681 M215.625 1067.686 C 215.625 1069.672,215.128 1069.676,213.021 1067.708 C 212.101 1066.849,211.607 1066.146,211.924 1066.146 C 212.241 1066.146,212.500 1065.716,212.500 1065.191 C 212.500 1063.583,213.167 1063.450,214.425 1064.806 C 215.131 1065.568,215.625 1066.752,215.625 1067.686 "
                  stroke="none"
                  fill="#e2e2e2"
                  fill-rule="evenodd"
                ></path>
                <path
                  id="path1"
                  d="M310.156 616.668 C 308.438 616.891,304.994 617.100,302.505 617.131 C 300.015 617.162,297.833 617.422,297.656 617.708 C 297.479 617.995,296.543 618.229,295.576 618.229 C 293.101 618.229,291.092 619.103,290.774 620.319 C 290.398 621.759,105.208 621.982,105.208 620.542 C 105.208 620.096,104.990 619.865,104.723 620.030 C 104.457 620.195,104.124 620.143,103.983 619.916 C 103.843 619.689,102.443 619.509,100.872 619.517 C 99.301 619.525,98.113 619.375,98.231 619.184 C 98.836 618.205,37.370 617.854,31.221 618.801 C 29.089 619.130,26.699 619.428,25.911 619.464 C 25.124 619.500,24.479 619.705,24.479 619.921 C 24.479 620.136,23.907 620.313,23.208 620.313 C 22.509 620.313,21.792 620.547,21.615 620.833 C 21.417 621.153,17.182 621.354,10.646 621.354 L 0.000 621.354 0.000 623.958 L 0.000 626.563 9.952 626.563 C 17.987 626.563,19.852 626.695,19.639 627.251 C 19.494 627.630,19.820 628.217,20.364 628.557 C 20.909 628.897,21.354 629.518,21.354 629.936 C 21.354 630.398,21.661 630.579,22.135 630.397 C 22.565 630.232,22.917 630.356,22.917 630.673 C 22.917 630.991,23.271 631.250,23.705 631.250 C 24.139 631.250,24.900 631.465,25.398 631.727 C 26.718 632.424,29.769 633.684,31.120 634.092 C 31.764 634.286,32.292 634.613,32.292 634.817 C 32.292 635.022,32.936 635.239,33.724 635.299 C 34.512 635.359,35.545 635.879,36.021 636.454 C 36.497 637.029,37.493 637.500,38.235 637.500 C 38.976 637.500,39.583 637.759,39.583 638.077 C 39.583 638.394,39.923 638.523,40.338 638.363 C 40.810 638.182,40.997 638.324,40.837 638.742 C 40.652 639.223,41.024 639.344,42.165 639.177 C 43.121 639.037,43.750 639.174,43.750 639.524 C 43.750 639.843,43.506 640.104,43.209 640.104 C 42.894 640.104,42.949 640.419,43.339 640.854 C 43.923 641.506,44.085 641.506,44.589 640.854 C 45.327 639.897,45.885 639.884,45.521 640.833 C 45.367 641.233,45.528 641.738,45.878 641.955 C 46.263 642.193,46.381 642.132,46.177 641.802 C 45.991 641.501,46.182 641.123,46.601 640.963 C 47.020 640.802,47.523 640.931,47.720 641.249 C 47.917 641.567,47.846 641.685,47.563 641.510 C 47.280 641.335,47.049 641.501,47.049 641.879 C 47.049 642.257,47.537 642.870,48.134 643.242 C 49.108 643.849,49.148 643.832,48.523 643.075 C 46.990 641.221,48.026 641.146,75.249 641.146 C 101.324 641.146,103.964 641.041,103.338 640.027 C 103.171 639.758,103.390 638.996,103.824 638.334 C 104.258 637.672,104.544 636.510,104.461 635.753 C 104.378 634.995,104.487 634.375,104.703 634.375 C 105.037 634.375,105.286 633.756,106.012 631.120 C 106.071 630.905,106.149 629.792,106.185 628.646 L 106.250 626.563 198.251 626.563 L 290.252 626.563 291.745 628.125 C 292.566 628.984,293.574 629.688,293.984 629.688 C 294.394 629.688,294.861 629.900,295.022 630.159 C 295.182 630.419,295.819 630.499,296.436 630.338 C 297.054 630.176,297.428 630.257,297.268 630.517 C 297.107 630.777,297.714 631.043,298.615 631.109 C 299.516 631.174,300.333 631.467,300.430 631.760 C 300.528 632.052,300.896 632.292,301.248 632.292 C 302.142 632.292,306.115 634.256,306.508 634.892 C 306.686 635.181,307.310 635.417,307.895 635.417 C 308.479 635.417,309.637 636.145,310.469 637.035 C 311.300 637.925,312.294 638.532,312.678 638.385 C 313.062 638.238,313.706 638.326,314.110 638.582 C 314.686 638.946,314.619 639.056,313.802 639.091 L 312.760 639.136 313.802 639.583 C 315.236 640.199,315.745 640.199,315.365 639.583 C 315.188 639.297,315.190 639.063,315.371 639.063 C 315.882 639.063,316.882 640.236,317.590 641.667 C 318.233 642.965,318.234 642.965,317.911 641.718 C 317.644 640.682,317.744 640.527,318.496 640.816 C 319.146 641.065,359.461 641.305,374.740 641.150 C 375.047 641.147,375.318 638.755,375.400 635.311 C 375.482 631.890,375.770 629.335,376.096 629.133 C 376.401 628.944,376.631 628.640,376.607 628.457 C 376.350 626.538,376.198 626.563,388.281 626.563 L 400.000 626.563 400.000 623.958 L 400.000 621.354 388.151 621.292 C 381.634 621.259,376.126 621.259,375.911 621.292 C 375.697 621.326,375.521 620.773,375.521 620.062 C 375.521 618.544,374.993 618.375,369.010 617.974 C 366.719 617.821,361.914 617.462,358.333 617.176 C 349.990 616.510,314.259 616.133,310.156 616.668 M320.124 643.867 C 320.267 644.098,320.617 644.144,320.902 643.968 C 321.187 643.792,321.932 644.081,322.559 644.610 L 323.698 645.573 322.738 644.437 C 321.862 643.399,319.520 642.888,320.124 643.867 "
                  stroke="none"
                  fill="#605e60"
                  fill-rule="evenodd"
                ></path>
                <path
                  id="path2"
                  d="M310.293 616.514 C 310.940 616.639,311.878 616.634,312.376 616.504 C 312.874 616.373,312.344 616.271,311.198 616.277 C 310.052 616.283,309.645 616.390,310.293 616.514 M303.525 617.044 C 304.461 617.160,305.867 617.158,306.650 617.039 C 307.433 616.920,306.667 616.825,304.948 616.828 C 303.229 616.831,302.589 616.928,303.525 617.044 M353.516 617.034 C 354.160 617.158,355.215 617.158,355.859 617.034 C 356.504 616.910,355.977 616.809,354.688 616.809 C 353.398 616.809,352.871 616.910,353.516 617.034 M365.104 617.685 C 365.534 617.975,366.335 618.217,366.884 618.221 C 368.216 618.232,367.800 617.934,365.885 617.505 C 364.744 617.250,364.534 617.298,365.104 617.685 M103.640 638.552 C 103.330 639.131,103.204 639.810,103.358 640.060 C 103.969 641.048,48.501 641.904,47.519 640.922 C 47.376 640.779,46.785 640.915,46.207 641.225 C 45.327 641.696,45.207 641.650,45.478 640.946 C 45.655 640.483,45.599 640.104,45.352 640.104 C 44.391 640.104,44.428 641.514,45.405 642.125 C 46.230 642.639,46.603 642.632,47.274 642.087 C 47.995 641.501,48.063 641.537,47.760 642.345 C 47.566 642.861,47.613 643.156,47.864 643.002 C 48.114 642.847,48.585 643.039,48.909 643.430 C 49.233 643.821,50.069 644.141,50.765 644.141 C 51.548 644.141,52.870 644.961,54.224 646.289 C 55.429 647.471,56.678 648.438,56.999 648.438 C 57.320 648.438,57.920 648.906,58.333 649.479 C 58.746 650.052,59.384 650.521,59.750 650.521 C 60.117 650.521,60.417 650.755,60.417 651.042 C 60.417 651.328,60.592 651.537,60.807 651.506 C 61.474 651.410,63.542 652.187,63.544 652.535 C 63.545 652.716,64.249 653.614,65.107 654.529 C 65.965 655.444,66.667 656.441,66.667 656.743 C 66.667 657.045,66.901 657.292,67.188 657.292 C 67.474 657.292,67.708 657.657,67.708 658.104 C 67.708 658.550,67.894 658.801,68.121 658.661 C 68.348 658.520,68.572 658.914,68.619 659.535 C 68.699 660.597,69.839 663.721,70.887 665.748 C 71.144 666.246,71.354 667.007,71.354 667.441 C 71.354 667.874,71.589 668.229,71.875 668.229 C 72.161 668.229,72.396 668.932,72.396 669.792 C 72.396 670.651,72.588 671.354,72.823 671.354 C 73.057 671.354,73.568 672.526,73.958 673.958 C 74.348 675.391,74.859 676.563,75.094 676.563 C 75.329 676.563,75.521 677.135,75.521 677.834 C 75.521 678.533,75.755 679.250,76.042 679.427 C 76.328 679.604,76.563 680.321,76.563 681.020 C 76.563 681.720,76.797 682.292,77.083 682.292 C 77.370 682.292,77.604 682.760,77.604 683.333 C 77.604 683.906,77.839 684.375,78.125 684.375 C 78.411 684.375,78.646 685.078,78.646 685.938 C 78.646 686.797,78.880 687.500,79.167 687.500 C 79.489 687.500,79.688 690.278,79.688 694.792 C 79.688 699.306,79.886 702.083,80.208 702.083 C 80.512 702.083,80.729 703.819,80.729 706.250 C 80.729 708.542,80.931 710.417,81.178 710.417 C 81.425 710.417,81.554 711.061,81.465 711.849 C 81.375 712.637,81.519 714.831,81.785 716.725 C 82.050 718.619,82.305 721.431,82.351 722.975 C 82.397 724.518,82.636 726.174,82.881 726.653 C 83.127 727.133,83.433 729.242,83.562 731.341 C 83.690 733.439,83.937 735.742,84.111 736.458 C 84.284 737.174,84.419 739.119,84.412 740.779 C 84.404 742.615,84.598 743.674,84.907 743.482 C 85.188 743.309,85.417 743.402,85.417 743.689 C 85.417 743.975,85.182 744.354,84.896 744.531 C 84.609 744.708,84.379 745.132,84.383 745.473 C 84.388 745.846,84.592 745.782,84.896 745.313 C 85.345 744.618,85.402 744.618,85.409 745.313 C 85.416 745.990,87.547 746.094,101.432 746.094 C 113.863 746.094,117.462 746.239,117.513 746.745 C 117.549 747.103,117.607 747.669,117.643 748.003 C 117.679 748.338,117.848 748.472,118.018 748.301 C 118.659 747.660,117.657 744.844,116.892 745.138 C 116.482 745.295,116.146 745.164,116.146 744.847 C 116.146 744.530,116.497 744.271,116.927 744.271 C 117.824 744.271,117.970 743.453,117.162 742.953 C 116.829 742.747,116.799 742.380,117.086 742.011 C 117.740 741.170,117.827 720.447,117.178 720.046 C 116.897 719.872,116.667 718.676,116.667 717.386 C 116.667 715.957,116.464 715.168,116.146 715.365 C 115.838 715.555,115.625 714.971,115.625 713.937 C 115.625 712.975,115.376 711.938,115.071 711.634 C 114.767 711.329,114.497 710.345,114.471 709.446 C 114.446 708.548,114.226 707.813,113.983 707.813 C 113.740 707.813,113.542 707.109,113.542 706.250 C 113.542 705.391,113.307 704.688,113.021 704.688 C 112.734 704.688,112.500 704.115,112.500 703.416 C 112.500 702.717,112.266 702.000,111.979 701.823 C 111.693 701.646,111.458 701.046,111.458 700.490 C 111.458 699.934,111.224 699.479,110.938 699.479 C 110.651 699.479,110.417 698.907,110.417 698.208 C 110.417 697.509,110.182 696.792,109.896 696.615 C 109.609 696.438,109.375 695.824,109.375 695.251 C 109.375 694.678,109.141 694.354,108.854 694.531 C 108.550 694.719,108.333 694.189,108.333 693.260 C 108.333 692.384,108.099 691.667,107.813 691.667 C 107.526 691.667,107.292 691.120,107.292 690.451 C 107.292 689.783,107.144 689.088,106.962 688.907 C 106.332 688.277,103.675 679.939,103.660 678.546 C 103.652 677.776,103.411 677.000,103.125 676.823 C 102.839 676.646,102.604 675.577,102.604 674.448 C 102.604 673.320,102.370 672.396,102.083 672.396 C 101.797 672.396,101.563 671.472,101.563 670.343 C 101.563 669.214,101.328 668.146,101.042 667.969 C 100.755 667.792,100.521 666.854,100.521 665.885 C 100.521 664.917,100.286 663.979,100.000 663.802 C 99.714 663.625,99.479 662.674,99.479 661.688 C 99.479 660.702,99.270 659.896,99.015 659.896 C 98.232 659.896,98.074 656.235,98.797 654.842 C 99.172 654.118,99.479 653.188,99.479 652.774 C 99.479 652.360,99.711 652.165,99.994 652.340 C 100.289 652.522,100.377 652.314,100.200 651.854 C 100.015 651.372,100.243 650.916,100.771 650.713 C 101.470 650.445,101.508 650.286,100.955 649.935 C 100.435 649.606,100.424 649.493,100.911 649.487 C 101.270 649.483,101.563 649.114,101.563 648.667 C 101.563 648.221,101.797 648.000,102.083 648.177 C 102.535 648.456,102.876 646.949,102.653 645.664 C 102.612 645.428,102.794 645.368,103.057 645.531 C 103.692 645.924,104.279 643.605,104.395 640.234 C 104.501 637.182,104.443 637.053,103.640 638.552 M41.490 639.874 C 41.661 640.320,42.142 640.554,42.558 640.395 C 42.974 640.235,43.412 640.104,43.532 640.104 C 43.652 640.104,43.750 639.870,43.750 639.583 C 43.750 639.297,43.171 639.063,42.464 639.063 C 41.514 639.063,41.260 639.274,41.490 639.874 M315.337 639.539 C 315.499 639.801,315.337 640.134,314.977 640.279 C 314.617 640.424,314.831 640.561,315.451 640.584 C 316.072 640.606,316.698 640.918,316.843 641.276 C 317.043 641.773,317.115 641.764,317.146 641.239 C 317.169 640.860,316.853 640.216,316.443 639.807 C 315.614 638.977,314.880 638.800,315.337 639.539 M317.708 641.106 C 317.708 641.433,318.118 641.852,318.620 642.039 C 319.121 642.226,319.838 642.805,320.212 643.325 C 320.586 643.845,321.172 644.267,321.514 644.263 C 321.889 644.258,321.826 644.055,321.354 643.750 C 320.924 643.472,320.837 643.242,321.160 643.237 C 321.994 643.226,322.982 644.544,322.522 645.053 C 322.309 645.288,322.430 645.310,322.790 645.103 C 323.173 644.882,323.575 645.064,323.757 645.540 C 323.929 645.988,324.527 646.354,325.086 646.354 C 325.646 646.354,325.958 646.589,325.781 646.875 C 325.604 647.161,325.890 647.396,326.417 647.396 C 326.943 647.396,327.712 647.865,328.125 648.438 C 328.538 649.010,329.293 649.479,329.802 649.479 C 330.312 649.479,330.729 649.714,330.729 650.000 C 330.729 650.286,330.979 650.521,331.285 650.521 C 332.421 650.521,335.417 653.276,335.417 654.322 C 335.417 654.912,335.684 656.135,336.012 657.041 C 336.618 658.716,335.364 660.839,330.725 665.997 C 330.154 666.631,329.688 667.416,329.688 667.741 C 329.688 668.066,328.984 668.989,328.125 669.792 C 327.266 670.594,326.563 671.394,326.563 671.568 C 326.563 671.742,325.859 672.620,325.000 673.519 C 324.141 674.419,323.438 675.385,323.438 675.667 C 323.438 675.949,323.020 676.559,322.510 677.022 C 322.000 677.486,320.674 679.154,319.565 680.729 C 318.455 682.305,317.349 683.672,317.107 683.767 C 316.865 683.863,316.667 684.158,316.667 684.423 C 316.667 684.688,315.964 685.641,315.104 686.540 C 314.245 687.440,313.542 688.398,313.542 688.670 C 313.542 688.943,312.850 689.812,312.004 690.602 C 311.158 691.392,310.397 692.353,310.311 692.737 C 310.226 693.121,309.503 694.003,308.705 694.697 C 307.907 695.390,306.903 696.637,306.473 697.468 C 306.043 698.299,304.647 700.070,303.370 701.402 C 302.093 702.735,301.141 703.919,301.254 704.032 C 301.368 704.146,300.077 705.674,298.387 707.429 C 296.696 709.184,295.313 710.782,295.313 710.980 C 295.313 711.178,294.023 712.714,292.448 714.393 C 290.872 716.073,289.583 717.779,289.583 718.185 C 289.583 718.591,289.440 718.780,289.264 718.604 C 288.959 718.299,283.936 721.777,282.291 723.432 C 280.964 724.766,278.204 726.563,277.480 726.563 C 277.102 726.563,276.455 727.031,276.042 727.604 C 275.629 728.177,274.999 728.646,274.643 728.646 C 274.287 728.646,273.760 729.084,273.474 729.620 C 273.187 730.155,272.157 730.971,271.184 731.433 C 270.210 731.895,269.099 732.653,268.713 733.118 C 268.327 733.582,267.475 734.167,266.818 734.416 C 266.162 734.666,265.621 735.286,265.617 735.794 C 265.611 736.525,265.513 736.568,265.153 735.999 C 264.792 735.428,264.628 735.496,264.365 736.326 C 264.182 736.902,263.467 738.031,262.775 738.836 C 262.084 739.641,261.634 740.487,261.775 740.717 C 261.917 740.946,261.679 740.998,261.246 740.832 C 260.658 740.606,260.514 740.818,260.677 741.665 C 260.853 742.582,260.757 742.686,260.176 742.204 C 259.595 741.722,259.511 741.813,259.737 742.679 C 259.955 743.511,259.771 743.750,258.915 743.750 C 258.282 743.750,257.813 744.083,257.813 744.531 C 257.813 744.961,257.475 745.313,257.062 745.313 C 256.649 745.313,256.180 745.525,256.020 745.785 C 255.859 746.045,256.197 746.134,256.770 745.984 C 257.423 745.814,257.813 745.968,257.813 746.398 C 257.813 746.931,257.951 746.944,258.438 746.458 C 259.716 745.180,306.217 745.664,305.424 746.947 C 305.266 747.203,304.882 747.256,304.571 747.063 C 304.221 746.847,304.157 746.958,304.402 747.355 C 304.920 748.194,307.436 745.918,307.063 744.947 C 306.920 744.575,307.054 744.271,307.360 744.271 C 307.666 744.271,308.737 743.451,309.740 742.448 C 310.742 741.445,311.773 740.625,312.031 740.625 C 312.289 740.625,312.500 740.260,312.500 739.813 C 312.500 739.366,312.734 739.146,313.021 739.323 C 313.307 739.500,313.542 739.272,313.542 738.816 C 313.542 738.361,313.952 737.844,314.453 737.668 C 315.762 737.208,318.229 734.822,318.229 734.017 C 318.229 733.641,318.491 733.333,318.811 733.333 C 319.131 733.333,320.314 732.337,321.440 731.120 C 322.567 729.902,323.681 728.701,323.917 728.449 C 324.154 728.198,325.672 726.701,327.293 725.122 C 328.913 723.544,330.129 722.143,329.994 722.008 C 329.738 721.752,330.219 721.086,332.161 719.009 C 332.806 718.320,333.333 717.511,333.333 717.211 C 333.333 716.912,333.511 716.667,333.729 716.667 C 333.946 716.667,334.432 716.173,334.809 715.570 C 335.376 714.663,335.375 714.535,334.804 714.829 C 334.425 715.024,334.642 714.718,335.286 714.149 C 335.931 713.580,336.458 712.742,336.458 712.286 C 336.458 711.831,336.693 711.458,336.979 711.458 C 337.266 711.458,337.500 711.009,337.500 710.460 C 337.500 709.911,337.676 709.384,337.891 709.288 C 338.453 709.038,340.625 704.724,340.625 703.857 C 340.625 703.454,340.802 703.125,341.019 703.125 C 341.235 703.125,341.733 702.363,342.125 701.432 C 342.517 700.501,343.160 699.059,343.554 698.227 C 343.948 697.396,344.271 696.451,344.271 696.129 C 344.271 695.806,344.740 695.205,345.313 694.792 C 345.885 694.379,346.354 693.741,346.354 693.375 C 346.354 693.008,346.549 692.708,346.787 692.708 C 347.025 692.708,347.552 692.068,347.959 691.285 C 348.365 690.502,349.342 689.178,350.130 688.343 C 350.918 687.508,351.563 686.508,351.563 686.121 C 351.563 685.733,351.797 685.417,352.083 685.417 C 352.370 685.417,352.604 685.205,352.604 684.946 C 352.604 684.687,353.424 683.024,354.427 681.250 C 355.430 679.476,356.250 677.696,356.250 677.294 C 356.250 676.892,356.484 676.563,356.771 676.563 C 357.057 676.563,357.292 676.094,357.292 675.521 C 357.292 674.948,357.526 674.479,357.813 674.479 C 358.099 674.479,358.333 674.010,358.333 673.438 C 358.333 672.865,358.534 672.396,358.779 672.396 C 359.379 672.396,363.551 664.049,363.546 662.860 C 363.544 662.342,363.776 662.063,364.063 662.240 C 364.349 662.417,364.583 662.116,364.583 661.572 C 364.583 661.028,365.872 659.208,367.448 657.529 C 369.023 655.849,370.313 654.171,370.313 653.800 C 370.313 653.429,370.488 653.123,370.703 653.121 C 371.232 653.115,372.396 650.539,372.396 649.375 C 372.396 648.860,372.630 648.438,372.917 648.438 C 373.203 648.438,373.438 648.072,373.438 647.626 C 373.438 647.179,373.672 646.958,373.958 647.135 C 374.273 647.330,374.479 646.610,374.479 645.313 C 374.479 644.025,374.686 643.295,374.997 643.487 C 375.296 643.673,375.468 643.250,375.405 642.486 L 375.295 641.164 347.350 641.164 C 331.980 641.165,319.023 641.018,318.557 640.839 C 318.079 640.656,317.708 640.773,317.708 641.106 "
                  stroke="none"
                  fill="#8c8c8c"
                  fill-rule="evenodd"
                ></path>
                <path
                  id="path3"
                  d="M177.604 151.042 C 177.604 151.328,176.901 151.563,176.042 151.563 C 175.182 151.563,174.479 151.797,174.479 152.083 C 174.479 152.370,174.167 152.604,173.786 152.604 C 173.134 152.604,165.815 156.178,163.070 157.836 C 162.380 158.253,161.005 159.473,160.014 160.547 C 159.023 161.621,157.766 162.500,157.220 162.500 C 156.042 162.500,150.521 167.857,150.521 168.999 C 150.521 169.435,150.286 169.792,150.000 169.792 C 149.706 169.792,149.479 171.267,149.479 173.177 C 149.479 175.087,149.706 176.563,150.000 176.563 C 150.322 176.563,150.521 179.253,150.521 183.594 C 150.521 187.934,150.720 190.625,151.042 190.625 C 151.328 190.625,151.563 191.080,151.563 191.636 C 151.563 192.192,151.797 192.792,152.083 192.969 C 152.370 193.146,152.604 193.746,152.604 194.302 C 152.604 194.858,152.839 195.313,153.125 195.313 C 153.411 195.313,153.646 195.781,153.646 196.354 C 153.646 196.927,153.880 197.396,154.167 197.396 C 154.453 197.396,154.688 197.865,154.688 198.438 C 154.688 199.010,154.453 199.479,154.167 199.479 C 153.880 199.479,153.646 199.834,153.646 200.267 C 153.646 200.701,153.411 201.521,153.125 202.090 C 152.839 202.659,152.370 203.591,152.083 204.160 C 151.797 204.729,151.563 205.549,151.563 205.983 C 151.563 206.416,151.328 206.771,151.042 206.771 C 150.755 206.771,150.521 207.719,150.521 208.878 C 150.521 211.521,152.316 213.542,154.664 213.542 C 156.073 213.542,156.250 213.713,156.250 215.080 C 156.250 216.795,157.222 219.271,157.896 219.271 C 158.137 219.271,158.333 219.974,158.333 220.833 C 158.333 221.907,158.590 222.396,159.152 222.396 C 160.204 222.396,161.458 223.650,161.458 224.702 C 161.458 225.153,161.693 225.521,161.979 225.521 C 162.266 225.521,162.500 225.990,162.500 226.563 C 162.500 227.135,162.734 227.604,163.021 227.604 C 163.307 227.604,163.542 227.988,163.542 228.458 C 163.542 229.933,165.225 230.695,168.516 230.713 C 171.497 230.728,174.466 229.893,174.475 229.036 C 174.477 228.822,174.896 228.646,175.406 228.646 C 175.916 228.646,176.670 228.177,177.083 227.604 C 178.065 226.242,179.475 226.282,180.604 227.704 C 181.103 228.332,182.155 229.522,182.943 230.348 C 183.730 231.175,184.375 232.184,184.375 232.592 C 184.375 233.000,184.609 233.333,184.896 233.333 C 185.182 233.333,185.417 233.872,185.417 234.531 C 185.417 235.190,185.670 235.983,185.980 236.293 C 186.588 236.900,185.956 238.361,184.245 240.306 C 183.743 240.876,183.333 241.650,183.333 242.025 C 183.333 242.401,183.158 242.710,182.943 242.712 C 182.419 242.716,180.729 245.727,180.729 246.657 C 180.729 247.063,180.495 247.396,180.208 247.396 C 179.922 247.396,179.688 247.727,179.688 248.132 C 179.688 248.536,178.340 250.243,176.693 251.925 C 175.046 253.606,173.346 255.677,172.917 256.527 C 171.992 258.356,171.097 259.375,170.413 259.375 C 170.141 259.375,169.627 260.078,169.271 260.938 C 168.915 261.797,168.418 262.500,168.166 262.500 C 167.914 262.500,167.708 262.917,167.708 263.427 C 167.708 263.936,167.240 264.691,166.667 265.104 C 166.094 265.517,165.625 266.272,165.625 266.782 C 165.625 267.291,165.391 267.708,165.104 267.708 C 164.818 267.708,164.583 267.953,164.583 268.251 C 164.583 268.549,164.115 269.297,163.542 269.912 C 162.969 270.527,162.500 271.337,162.500 271.713 C 162.500 272.088,162.266 272.396,161.979 272.396 C 161.693 272.396,161.458 272.865,161.458 273.438 C 161.458 274.010,161.224 274.479,160.938 274.479 C 160.651 274.479,160.417 274.948,160.417 275.521 C 160.417 276.094,160.182 276.563,159.896 276.563 C 159.609 276.563,159.375 276.873,159.375 277.251 C 159.375 277.630,158.661 279.415,157.787 281.218 C 156.914 283.020,156.064 285.176,155.897 286.008 C 155.731 286.841,155.391 287.648,155.141 287.802 C 154.892 287.956,154.688 288.654,154.688 289.354 C 154.688 290.053,154.453 290.625,154.167 290.625 C 153.880 290.625,153.646 291.328,153.646 292.188 C 153.646 293.047,153.411 293.750,153.125 293.750 C 152.839 293.750,152.604 294.570,152.604 295.573 C 152.604 296.576,152.370 297.396,152.083 297.396 C 151.780 297.396,151.563 299.132,151.563 301.563 C 151.563 303.993,151.780 305.729,152.083 305.729 C 152.370 305.729,152.604 306.315,152.604 307.031 C 152.604 307.747,152.839 308.333,153.125 308.333 C 153.411 308.333,153.646 308.802,153.646 309.375 C 153.646 309.948,153.880 310.417,154.167 310.417 C 154.453 310.417,154.688 310.885,154.688 311.458 C 154.688 312.031,154.876 312.500,155.105 312.500 C 156.395 312.500,157.411 317.833,157.021 322.554 C 156.229 332.130,156.981 369.802,158.080 375.651 C 158.325 376.955,158.255 377.604,157.869 377.604 C 157.485 377.604,157.292 379.336,157.292 382.779 C 157.292 385.625,157.034 388.613,156.720 389.419 C 156.186 390.786,155.877 404.428,156.316 407.236 C 156.467 408.202,156.126 408.699,154.802 409.447 C 152.661 410.658,149.479 413.804,149.479 414.711 C 149.479 415.087,149.010 415.733,148.438 416.146 C 147.865 416.559,147.390 417.138,147.383 417.433 C 147.362 418.292,143.266 422.396,142.429 422.396 C 142.010 422.396,141.667 422.630,141.667 422.917 C 141.667 423.203,141.198 423.438,140.625 423.438 C 139.815 423.438,139.583 423.785,139.583 425.000 C 139.583 426.151,139.339 426.563,138.657 426.563 C 138.147 426.563,137.392 427.031,136.979 427.604 C 136.566 428.177,135.811 428.646,135.302 428.646 C 134.792 428.646,134.375 428.880,134.375 429.167 C 134.375 429.453,134.023 429.688,133.594 429.688 C 133.164 429.688,132.813 429.886,132.813 430.129 C 132.813 430.372,131.875 430.994,130.729 431.510 C 129.583 432.027,128.646 432.649,128.646 432.892 C 128.646 433.135,128.353 433.334,127.995 433.334 C 127.637 433.334,126.663 433.920,125.830 434.636 C 124.998 435.352,124.130 435.938,123.901 435.938 C 123.672 435.938,122.899 436.523,122.183 437.240 C 121.467 437.956,120.638 438.542,120.341 438.542 C 120.044 438.542,119.508 439.010,119.150 439.583 C 118.792 440.156,118.181 440.625,117.792 440.625 C 117.403 440.625,116.428 441.328,115.625 442.188 C 114.822 443.047,113.847 443.750,113.458 443.750 C 113.068 443.750,112.118 444.336,111.346 445.052 C 110.573 445.768,109.755 446.354,109.528 446.355 C 109.118 446.355,107.319 447.768,104.548 450.264 C 103.756 450.978,102.854 451.563,102.544 451.563 C 102.234 451.562,101.324 452.266,100.521 453.125 C 99.718 453.984,98.687 454.687,98.229 454.688 C 97.771 454.688,97.394 454.863,97.392 455.078 C 97.390 455.293,96.526 456.055,95.471 456.771 C 92.642 458.691,87.500 463.880,87.500 464.815 C 87.500 465.260,87.266 465.625,86.979 465.625 C 86.693 465.625,86.458 466.080,86.458 466.636 C 86.458 467.192,86.224 467.792,85.938 467.969 C 85.651 468.146,85.417 469.083,85.417 470.052 C 85.417 471.021,85.182 471.958,84.896 472.135 C 84.571 472.336,84.375 477.401,84.375 485.604 C 84.375 493.002,84.163 498.966,83.891 499.245 C 83.625 499.517,83.286 501.732,83.139 504.167 C 82.886 508.354,82.507 511.953,81.304 521.615 C 81.019 523.906,80.773 527.363,80.757 529.297 C 80.741 531.275,80.501 532.813,80.208 532.813 C 79.884 532.813,79.688 535.764,79.688 540.625 C 79.688 545.486,79.491 548.438,79.167 548.438 C 78.880 548.438,78.646 549.141,78.646 550.000 C 78.646 550.859,78.411 551.563,78.125 551.563 C 77.839 551.563,77.604 552.031,77.604 552.604 C 77.604 553.177,77.370 553.646,77.083 553.646 C 76.797 553.646,76.563 554.349,76.563 555.208 C 76.563 556.068,76.328 556.771,76.042 556.771 C 75.755 556.771,75.521 557.357,75.521 558.073 C 75.521 558.789,75.286 559.375,75.000 559.375 C 74.714 559.375,74.479 559.947,74.479 560.646 C 74.479 561.346,74.245 562.063,73.958 562.240 C 73.672 562.417,73.437 563.016,73.438 563.572 C 73.438 564.128,73.203 564.583,72.917 564.583 C 72.630 564.583,72.396 565.286,72.396 566.146 C 72.396 567.005,72.161 567.708,71.875 567.708 C 71.589 567.708,71.354 568.063,71.354 568.497 C 71.354 568.930,71.139 569.692,70.877 570.189 C 69.712 572.399,68.750 574.977,68.750 575.892 C 68.750 576.439,68.281 577.390,67.708 578.005 C 67.135 578.620,66.665 579.426,66.662 579.796 C 66.659 580.166,65.915 581.055,65.008 581.771 C 64.101 582.487,63.065 583.366,62.706 583.724 C 62.347 584.082,61.705 584.375,61.279 584.375 C 60.852 584.375,60.425 584.551,60.330 584.766 C 60.072 585.345,55.860 588.542,55.354 588.542 C 55.114 588.542,54.580 589.010,54.167 589.583 C 53.754 590.156,52.999 590.625,52.489 590.625 C 51.980 590.625,51.563 590.859,51.563 591.146 C 51.563 591.432,51.094 591.667,50.521 591.667 C 49.948 591.667,49.479 591.901,49.479 592.188 C 49.479 592.474,49.010 592.708,48.438 592.708 C 47.865 592.708,47.396 592.917,47.396 593.171 C 47.396 593.426,46.576 593.788,45.573 593.976 C 44.570 594.164,43.750 594.542,43.750 594.815 C 43.750 595.089,43.333 595.313,42.823 595.313 C 42.314 595.313,41.559 595.781,41.146 596.354 C 40.733 596.927,39.978 597.396,39.468 597.396 C 38.959 597.396,38.542 597.630,38.542 597.917 C 38.542 598.203,38.073 598.438,37.500 598.438 C 36.927 598.438,36.458 598.672,36.458 598.958 C 36.458 599.245,35.990 599.479,35.417 599.479 C 34.844 599.479,34.375 599.670,34.375 599.903 C 34.375 600.136,33.555 600.648,32.552 601.042 C 31.549 601.435,30.729 601.948,30.729 602.181 C 30.729 602.414,30.026 602.604,29.167 602.604 C 28.307 602.604,27.604 602.839,27.604 603.125 C 27.604 603.411,27.018 603.646,26.302 603.646 C 25.586 603.646,25.000 603.880,25.000 604.167 C 25.000 604.453,24.504 604.688,23.898 604.688 C 23.292 604.688,22.003 605.554,21.034 606.612 C 17.986 609.940,18.789 615.625,22.307 615.625 C 22.929 615.625,23.438 615.859,23.438 616.146 C 23.438 616.432,24.273 616.667,25.295 616.667 C 26.316 616.667,27.604 616.909,28.156 617.204 C 29.545 617.947,98.098 617.944,98.346 617.201 C 98.444 616.907,100.000 616.667,101.803 616.667 C 104.095 616.667,105.278 616.429,105.735 615.878 C 106.559 614.885,106.197 602.890,105.293 601.200 C 104.960 600.578,104.687 598.309,104.688 596.159 C 104.688 594.008,104.453 592.104,104.167 591.927 C 103.880 591.750,103.646 591.150,103.646 590.594 C 103.646 590.038,103.411 589.583,103.125 589.583 C 102.839 589.583,102.604 589.115,102.604 588.542 C 102.604 587.969,102.370 587.500,102.083 587.500 C 101.797 587.500,101.563 587.031,101.563 586.458 C 101.563 585.885,101.328 585.417,101.042 585.417 C 100.755 585.417,100.521 584.948,100.521 584.375 C 100.521 583.802,100.286 583.333,100.000 583.333 C 99.714 583.333,99.479 582.982,99.479 582.552 C 99.479 582.122,99.245 581.771,98.958 581.771 C 98.672 581.771,98.438 580.599,98.438 579.167 C 98.438 577.734,98.672 576.563,98.958 576.563 C 99.245 576.563,99.479 575.625,99.479 574.479 C 99.479 573.333,99.714 572.396,100.000 572.396 C 100.286 572.396,100.521 571.458,100.521 570.313 C 100.521 569.167,100.755 568.229,101.042 568.229 C 101.328 568.229,101.563 567.423,101.563 566.437 C 101.562 565.451,101.797 564.500,102.083 564.323 C 102.370 564.146,102.604 563.091,102.604 561.979 C 102.604 560.867,102.839 559.812,103.125 559.635 C 103.411 559.458,103.646 558.390,103.646 557.261 C 103.646 556.132,103.880 555.208,104.167 555.208 C 104.453 555.208,104.688 554.766,104.688 554.226 C 104.688 553.686,105.038 552.573,105.466 551.752 C 105.893 550.932,106.245 549.616,106.247 548.828 C 106.249 548.040,106.484 547.396,106.771 547.396 C 107.057 547.396,107.292 546.693,107.292 545.833 C 107.292 544.974,107.526 544.271,107.813 544.271 C 108.099 544.271,108.333 543.802,108.333 543.229 C 108.333 542.656,108.568 542.188,108.854 542.188 C 109.141 542.188,109.375 541.602,109.375 540.885 C 109.375 540.169,109.609 539.583,109.896 539.583 C 110.182 539.583,110.417 538.880,110.417 538.021 C 110.417 537.161,110.651 536.458,110.938 536.458 C 111.224 536.458,111.458 535.990,111.458 535.417 C 111.458 534.844,111.693 534.375,111.979 534.375 C 112.266 534.375,112.500 533.672,112.500 532.813 C 112.500 531.953,112.734 531.250,113.021 531.250 C 113.307 531.250,113.542 530.664,113.542 529.948 C 113.542 529.232,113.776 528.646,114.063 528.646 C 114.349 528.646,114.583 527.957,114.583 527.114 C 114.583 526.272,114.818 525.437,115.104 525.260 C 115.391 525.083,115.625 524.132,115.625 523.146 C 115.625 522.161,115.836 521.354,116.093 521.354 C 116.899 521.354,117.273 516.859,117.628 502.865 C 117.964 489.646,118.221 487.500,119.472 487.500 C 119.808 487.500,120.420 487.031,120.833 486.458 C 121.246 485.885,122.001 485.417,122.511 485.417 C 123.020 485.417,123.438 485.182,123.438 484.896 C 123.438 484.609,123.906 484.375,124.479 484.375 C 125.052 484.375,125.521 484.168,125.521 483.915 C 125.521 483.509,129.082 481.648,132.813 480.105 C 133.529 479.808,134.522 479.359,135.019 479.106 C 135.516 478.853,136.278 478.646,136.712 478.646 C 137.145 478.646,137.500 478.411,137.500 478.125 C 137.500 477.839,138.072 477.604,138.771 477.604 C 139.471 477.604,140.188 477.370,140.365 477.083 C 140.542 476.797,141.141 476.563,141.697 476.563 C 142.253 476.563,142.708 476.328,142.708 476.042 C 142.708 475.755,143.294 475.521,144.010 475.521 C 144.727 475.521,145.313 475.286,145.313 475.000 C 145.313 474.714,145.781 474.479,146.354 474.479 C 146.927 474.479,147.396 474.245,147.396 473.958 C 147.396 473.672,148.099 473.438,148.958 473.438 C 149.818 473.438,150.521 473.203,150.521 472.917 C 150.521 472.630,150.990 472.396,151.563 472.396 C 152.135 472.396,152.604 472.161,152.604 471.875 C 152.604 471.589,153.066 471.354,153.630 471.354 C 154.194 471.354,155.490 470.885,156.510 470.313 C 157.530 469.740,158.768 469.269,159.261 469.268 C 159.753 469.266,160.828 468.914,161.648 468.486 C 162.469 468.058,163.443 467.708,163.812 467.708 C 164.636 467.708,168.943 465.515,169.184 464.974 C 169.280 464.759,169.807 464.583,170.356 464.583 C 170.905 464.583,171.354 464.349,171.354 464.063 C 171.354 463.776,171.823 463.542,172.396 463.542 C 172.969 463.542,173.438 463.307,173.438 463.021 C 173.438 462.734,173.906 462.500,174.479 462.500 C 175.052 462.500,175.521 462.266,175.521 461.979 C 175.521 461.693,175.990 461.458,176.563 461.458 C 177.135 461.458,177.604 461.224,177.604 460.938 C 177.604 460.651,178.073 460.417,178.646 460.417 C 179.219 460.417,179.688 460.182,179.688 459.896 C 179.688 458.963,180.650 459.348,180.990 460.417 C 181.361 461.587,200.521 462.098,200.521 460.938 C 200.521 460.651,201.576 460.417,202.865 460.417 C 204.154 460.417,205.208 460.182,205.208 459.896 C 205.208 459.609,206.146 459.375,207.292 459.375 C 208.438 459.375,209.375 459.141,209.375 458.854 C 209.375 458.562,210.816 458.333,212.656 458.333 C 214.566 458.333,216.226 458.061,216.628 457.682 C 217.180 457.161,217.365 457.161,217.556 457.682 C 217.714 458.111,218.938 458.333,221.137 458.333 C 223.018 458.333,224.479 458.561,224.479 458.854 C 224.479 459.141,225.092 459.375,225.841 459.375 C 227.136 459.375,230.729 462.540,230.729 463.681 C 230.729 463.932,231.022 464.437,231.380 464.804 C 231.738 465.171,232.969 466.614,234.115 468.012 C 235.260 469.410,242.116 476.485,249.349 483.735 C 256.582 490.986,262.500 497.148,262.500 497.431 C 262.500 498.194,267.052 502.604,267.840 502.604 C 268.214 502.604,268.858 503.073,269.271 503.646 C 269.684 504.219,270.263 504.692,270.558 504.697 C 270.853 504.703,272.029 505.523,273.171 506.520 C 274.314 507.518,275.493 508.333,275.791 508.333 C 276.089 508.333,276.670 508.802,277.083 509.375 C 277.496 509.948,278.199 510.417,278.646 510.417 C 279.092 510.417,279.795 510.885,280.208 511.458 C 280.621 512.031,281.259 512.500,281.625 512.500 C 281.992 512.500,282.292 512.684,282.292 512.909 C 282.292 513.133,282.953 513.707,283.760 514.185 C 286.838 516.002,292.989 521.887,294.927 524.866 C 296.338 527.035,298.060 529.032,302.474 533.613 C 303.691 534.876,304.688 536.161,304.688 536.468 C 304.688 536.775,305.215 537.572,305.859 538.239 C 306.504 538.906,307.500 540.112,308.073 540.917 C 308.646 541.723,309.876 543.151,310.807 544.091 C 311.738 545.030,312.500 546.006,312.500 546.260 C 312.500 546.513,313.203 547.456,314.063 548.356 C 314.922 549.255,315.625 550.227,315.625 550.516 C 315.625 550.805,315.859 551.042,316.146 551.042 C 316.432 551.042,316.667 551.287,316.667 551.586 C 316.667 551.886,317.253 552.717,317.969 553.433 C 318.685 554.149,319.271 554.924,319.271 555.155 C 319.271 555.386,319.974 556.310,320.833 557.210 C 321.693 558.109,322.396 559.046,322.396 559.293 C 322.396 559.540,323.099 560.477,323.958 561.376 C 324.818 562.276,325.521 563.202,325.521 563.435 C 325.521 563.668,326.283 564.691,327.214 565.707 C 328.145 566.724,329.375 568.202,329.948 568.992 C 330.521 569.782,331.283 570.737,331.641 571.114 C 331.999 571.492,332.292 572.014,332.292 572.276 C 332.292 572.537,333.353 573.874,334.650 575.247 C 336.903 577.633,336.972 577.797,336.212 578.958 C 335.775 579.625,335.417 580.826,335.417 581.625 C 335.417 582.718,335.053 583.240,333.952 583.727 C 333.146 584.084,331.984 584.844,331.370 585.417 C 330.755 585.990,329.942 586.458,329.564 586.458 C 329.185 586.458,328.538 586.927,328.125 587.500 C 327.712 588.073,327.009 588.542,326.562 588.542 C 326.116 588.542,325.413 589.010,325.000 589.583 C 324.587 590.156,323.832 590.625,323.323 590.625 C 322.813 590.625,322.396 590.859,322.396 591.146 C 322.396 591.432,322.044 591.667,321.615 591.667 C 321.185 591.667,320.833 591.901,320.833 592.188 C 320.833 592.474,320.482 592.708,320.052 592.708 C 319.622 592.708,319.271 592.943,319.271 593.229 C 319.271 593.516,318.936 593.750,318.527 593.750 C 318.118 593.750,317.473 594.043,317.094 594.401 C 316.716 594.759,315.762 595.385,314.974 595.791 C 314.186 596.198,313.542 596.725,313.542 596.963 C 313.542 597.201,313.125 597.396,312.615 597.396 C 312.105 597.396,311.350 597.865,310.938 598.438 C 310.525 599.010,309.770 599.479,309.260 599.479 C 308.750 599.479,308.333 599.714,308.333 600.000 C 308.333 600.286,307.982 600.521,307.552 600.521 C 307.122 600.521,306.771 600.755,306.771 601.042 C 306.771 601.328,306.302 601.563,305.729 601.563 C 305.156 601.563,304.688 601.797,304.688 602.083 C 304.688 602.370,304.219 602.604,303.646 602.604 C 303.073 602.604,302.604 602.839,302.604 603.125 C 302.604 603.411,302.032 603.646,301.333 603.646 C 300.634 603.646,299.917 603.880,299.740 604.167 C 299.563 604.453,298.963 604.688,298.407 604.688 C 297.851 604.688,297.396 604.922,297.396 605.208 C 297.396 605.495,296.745 605.729,295.949 605.729 C 294.598 605.729,292.798 606.660,291.276 608.145 C 290.918 608.494,290.625 609.486,290.625 610.349 C 290.625 611.212,290.391 612.063,290.104 612.240 C 289.245 612.770,289.513 614.584,290.695 616.244 C 291.939 617.991,292.315 618.003,299.219 616.508 C 302.941 615.702,325.069 614.770,334.896 615.005 C 343.590 615.212,360.018 616.148,364.323 616.681 C 366.615 616.965,369.980 617.382,371.802 617.608 C 374.577 617.952,375.153 617.887,375.355 617.212 C 375.488 616.769,375.814 615.999,376.080 615.502 C 376.735 614.273,376.703 606.771,376.042 606.771 C 375.718 606.771,375.521 603.906,375.521 599.219 C 375.521 594.531,375.323 591.667,375.000 591.667 C 374.714 591.667,374.479 591.015,374.479 590.219 C 374.479 589.369,374.049 588.462,373.438 588.021 C 372.865 587.608,372.396 586.726,372.396 586.061 C 372.396 585.396,371.927 584.349,371.354 583.734 C 370.781 583.119,370.313 582.283,370.313 581.876 C 370.313 581.469,369.023 579.826,367.448 578.226 C 365.872 576.625,364.583 574.893,364.583 574.376 C 364.583 573.860,364.349 573.438,364.063 573.438 C 363.776 573.438,363.542 572.871,363.542 572.179 C 363.542 571.487,363.366 570.842,363.151 570.747 C 362.800 570.590,361.227 567.852,359.688 564.718 C 359.373 564.075,358.939 563.548,358.724 563.546 C 358.509 563.543,358.333 563.073,358.333 562.500 C 358.333 561.927,358.099 561.458,357.813 561.458 C 357.526 561.458,357.292 560.990,357.292 560.417 C 357.292 559.844,357.057 559.375,356.771 559.375 C 356.484 559.375,356.250 559.053,356.250 558.659 C 356.250 557.805,353.618 552.939,353.021 552.691 C 352.792 552.595,352.604 552.068,352.604 551.519 C 352.604 550.970,352.370 550.521,352.083 550.521 C 351.797 550.521,351.563 550.204,351.563 549.817 C 351.563 549.430,350.859 548.377,350.000 547.478 C 349.141 546.579,348.438 545.658,348.438 545.432 C 348.438 545.206,347.969 544.684,347.396 544.271 C 346.823 543.858,346.354 543.155,346.354 542.708 C 346.354 542.262,345.885 541.559,345.313 541.146 C 344.740 540.733,344.271 540.092,344.271 539.722 C 344.271 538.830,340.535 531.038,340.001 530.816 C 339.771 530.720,339.583 530.193,339.583 529.644 C 339.583 529.095,339.349 528.646,339.063 528.646 C 338.776 528.646,338.542 528.177,338.542 527.604 C 338.542 527.031,338.307 526.563,338.021 526.563 C 337.734 526.563,337.500 526.094,337.500 525.521 C 337.500 524.948,337.266 524.479,336.979 524.479 C 336.693 524.479,336.458 524.010,336.458 523.438 C 336.458 522.865,336.224 522.396,335.938 522.396 C 335.651 522.396,335.417 522.044,335.417 521.615 C 335.417 521.185,335.182 520.833,334.896 520.833 C 334.609 520.833,334.375 520.482,334.375 520.052 C 334.375 519.622,334.141 519.271,333.854 519.271 C 333.568 519.271,333.333 519.005,333.333 518.681 C 333.333 518.356,332.920 517.712,332.415 517.249 C 331.909 516.785,330.849 515.407,330.059 514.185 C 328.888 512.376,318.949 502.225,308.203 491.862 C 307.129 490.826,306.250 489.762,306.250 489.498 C 306.250 489.235,306.011 488.735,305.720 488.389 C 303.670 485.959,302.931 484.984,302.186 483.724 C 301.719 482.936,301.154 482.292,300.929 482.292 C 300.705 482.292,300.521 482.053,300.521 481.761 C 300.521 481.469,299.056 479.736,297.266 477.909 C 295.475 476.082,293.448 473.645,292.762 472.494 C 292.075 471.343,290.845 469.619,290.029 468.664 C 289.212 467.709,288.544 466.742,288.543 466.515 C 288.542 466.288,288.073 465.599,287.500 464.984 C 286.927 464.369,286.458 463.559,286.458 463.183 C 286.458 462.807,286.224 462.500,285.938 462.500 C 285.651 462.500,285.417 462.031,285.417 461.458 C 285.417 460.885,285.182 460.417,284.896 460.417 C 284.609 460.417,284.375 460.109,284.375 459.734 C 284.375 459.358,283.906 458.547,283.333 457.932 C 282.760 457.318,282.292 456.570,282.292 456.272 C 282.292 455.973,282.057 455.729,281.771 455.729 C 281.484 455.729,281.250 455.386,281.250 454.966 C 281.250 453.908,279.589 450.521,279.070 450.521 C 278.837 450.521,278.646 450.052,278.646 449.479 C 278.646 448.906,278.411 448.438,278.125 448.438 C 277.839 448.438,277.604 447.969,277.604 447.396 C 277.604 446.823,277.370 446.354,277.083 446.354 C 276.797 446.354,276.563 446.003,276.563 445.573 C 276.563 445.143,276.357 444.792,276.105 444.792 C 275.853 444.792,275.356 444.089,275.000 443.229 C 274.644 442.370,274.147 441.667,273.895 441.667 C 273.643 441.667,273.438 441.250,273.438 440.740 C 273.438 440.230,272.969 439.475,272.396 439.063 C 271.823 438.650,271.354 437.895,271.354 437.385 C 271.354 436.875,271.120 436.458,270.833 436.458 C 270.547 436.458,270.313 435.755,270.313 434.896 C 270.313 434.036,270.078 433.333,269.792 433.333 C 269.505 433.333,269.271 433.105,269.271 432.826 C 269.271 432.547,268.451 430.634,267.448 428.574 C 266.445 426.513,265.625 424.294,265.625 423.643 C 265.625 422.991,265.391 422.312,265.104 422.135 C 264.818 421.958,264.583 421.359,264.583 420.803 C 264.583 420.247,264.349 419.792,264.063 419.792 C 263.776 419.792,263.542 418.854,263.542 417.708 C 263.542 416.563,263.307 415.625,263.021 415.625 C 262.734 415.625,262.500 414.688,262.500 413.542 C 262.500 412.396,262.266 411.458,261.979 411.458 C 261.693 411.458,261.453 410.931,261.447 410.286 C 261.440 409.642,260.977 408.529,260.417 407.813 C 259.826 407.058,259.393 405.689,259.387 404.557 C 259.380 403.483,259.141 402.604,258.854 402.604 C 258.568 402.604,258.333 401.667,258.333 400.521 C 258.333 399.375,258.099 398.438,257.813 398.438 C 257.526 398.438,257.292 397.969,257.292 397.396 C 257.292 396.823,257.057 396.354,256.771 396.354 C 256.484 396.354,256.250 395.986,256.250 395.535 C 256.250 394.632,253.665 389.946,253.014 389.670 C 252.789 389.575,252.604 389.155,252.604 388.737 C 252.604 388.319,252.135 387.474,251.563 386.859 C 250.990 386.244,250.521 385.434,250.521 385.058 C 250.521 384.682,250.286 384.375,250.000 384.375 C 249.714 384.375,249.479 383.906,249.479 383.333 C 249.479 382.760,249.245 382.292,248.958 382.292 C 248.672 382.292,248.438 381.940,248.438 381.510 C 248.438 381.081,248.203 380.729,247.917 380.729 C 247.630 380.729,247.396 380.260,247.396 379.688 C 247.396 379.115,247.161 378.646,246.875 378.646 C 246.589 378.646,246.354 378.177,246.354 377.604 C 246.354 377.031,246.120 376.563,245.833 376.563 C 245.547 376.563,245.313 376.113,245.313 375.564 C 245.313 375.015,245.137 374.488,244.922 374.392 C 244.707 374.297,243.830 372.813,242.974 371.094 C 242.118 369.375,241.004 367.590,240.500 367.126 C 239.996 366.663,239.583 365.953,239.583 365.549 C 239.583 365.144,239.115 364.475,238.542 364.063 C 237.969 363.650,237.500 362.984,237.500 362.584 C 237.500 361.894,234.489 358.880,233.783 358.862 C 233.601 358.858,231.992 357.448,230.208 355.729 C 228.424 354.010,226.752 352.604,226.492 352.604 C 225.756 352.604,220.313 346.981,220.313 346.220 C 220.313 345.847,220.781 345.205,221.354 344.792 C 221.927 344.379,222.396 343.624,222.396 343.114 C 222.396 342.605,222.630 342.188,222.917 342.188 C 223.203 342.188,223.438 341.836,223.438 341.406 C 223.438 340.977,223.672 340.625,223.958 340.625 C 224.245 340.625,224.479 340.208,224.479 339.698 C 224.479 339.189,224.948 338.434,225.521 338.021 C 226.094 337.608,226.563 336.905,226.563 336.458 C 226.563 336.012,227.031 335.309,227.604 334.896 C 228.177 334.483,228.646 333.728,228.646 333.218 C 228.646 332.709,228.828 332.292,229.050 332.292 C 229.272 332.292,229.917 331.239,230.482 329.953 C 231.048 328.667,231.686 327.612,231.901 327.609 C 232.116 327.606,232.292 327.135,232.292 326.563 C 232.292 325.990,232.526 325.521,232.813 325.521 C 233.099 325.521,233.333 325.052,233.333 324.479 C 233.333 323.906,233.568 323.438,233.854 323.438 C 234.141 323.438,234.375 322.969,234.375 322.396 C 234.375 321.823,234.609 321.354,234.896 321.354 C 235.182 321.354,235.417 320.905,235.417 320.356 C 235.417 319.807,235.603 319.280,235.830 319.184 C 236.250 319.008,242.015 307.392,243.214 304.306 C 244.062 302.126,243.243 291.667,242.225 291.667 C 242.021 291.667,241.536 290.495,241.146 289.063 C 240.756 287.630,240.245 286.458,240.010 286.458 C 239.775 286.458,239.583 285.755,239.583 284.896 C 239.583 284.036,239.349 283.333,239.063 283.333 C 238.776 283.333,238.542 282.644,238.542 281.802 C 238.542 280.959,238.307 280.125,238.021 279.948 C 237.734 279.771,237.500 278.937,237.500 278.094 C 237.500 277.252,237.266 276.563,236.979 276.563 C 236.693 276.563,236.458 275.859,236.458 275.000 C 236.458 274.141,236.224 273.438,235.938 273.438 C 235.651 273.438,235.417 272.852,235.417 272.135 C 235.417 271.419,235.182 270.833,234.896 270.833 C 234.609 270.833,234.375 270.365,234.375 269.792 C 234.375 269.219,234.141 268.750,233.854 268.750 C 233.568 268.750,233.333 268.047,233.333 267.188 C 233.333 266.328,233.099 265.625,232.813 265.625 C 232.486 265.625,232.292 262.413,232.292 257.031 C 232.292 252.305,232.088 248.438,231.839 248.438 C 231.591 248.438,231.254 247.446,231.092 246.235 C 230.929 245.024,230.547 243.950,230.242 243.848 C 229.937 243.746,229.688 243.214,229.688 242.665 C 229.688 242.116,229.453 241.667,229.167 241.667 C 228.880 241.667,228.646 241.350,228.646 240.963 C 228.646 240.575,227.943 239.523,227.083 238.624 C 226.224 237.724,225.521 236.780,225.521 236.526 C 225.521 236.271,224.589 235.156,223.449 234.047 C 216.670 227.451,215.625 226.285,215.625 225.322 C 215.625 224.906,215.449 224.488,215.234 224.392 C 214.590 224.106,211.458 217.638,211.458 216.594 C 211.458 216.061,211.224 215.625,210.938 215.625 C 210.651 215.625,210.417 214.688,210.417 213.542 C 210.417 212.396,210.182 211.458,209.896 211.458 C 209.598 211.458,209.375 209.896,209.375 207.813 C 209.375 205.729,209.598 204.167,209.896 204.167 C 210.182 204.167,210.417 203.815,210.417 203.385 C 210.417 202.956,210.651 202.604,210.938 202.604 C 211.224 202.604,211.458 201.798,211.458 200.812 C 211.458 199.826,211.693 198.875,211.979 198.698 C 212.266 198.521,212.500 197.687,212.500 196.844 C 212.500 196.002,212.720 195.313,212.988 195.313 C 213.256 195.313,213.549 194.551,213.639 193.620 C 213.813 191.819,218.044 190.753,219.448 192.156 C 219.751 192.460,220.949 192.712,222.109 192.716 C 223.862 192.723,226.879 193.709,225.260 193.746 C 224.762 193.758,223.438 196.107,223.438 196.979 C 223.438 197.208,224.141 197.396,225.000 197.396 C 225.859 197.396,226.563 197.161,226.563 196.875 C 226.563 196.589,226.797 196.354,227.083 196.354 C 227.373 196.354,227.604 197.743,227.604 199.479 C 227.604 203.407,229.063 203.991,230.208 200.521 C 230.586 199.375,231.210 198.438,231.594 198.438 C 231.978 198.438,232.292 198.203,232.292 197.917 C 232.292 196.761,234.050 197.514,235.938 199.479 C 238.376 202.017,239.583 202.190,239.583 200.000 C 239.583 199.141,239.349 198.438,239.063 198.438 C 238.776 198.438,238.542 197.969,238.542 197.396 C 238.542 196.823,238.307 196.354,238.021 196.354 C 237.734 196.354,237.500 195.531,237.500 194.524 C 237.500 193.518,237.266 192.229,236.979 191.660 C 236.693 191.091,236.224 190.159,235.938 189.590 C 235.651 189.021,235.417 185.389,235.417 181.517 C 235.417 177.172,235.217 174.479,234.896 174.479 C 234.609 174.479,234.375 173.421,234.375 172.128 C 234.375 170.835,234.082 169.281,233.724 168.675 C 233.203 167.793,233.203 167.525,233.724 167.336 C 234.496 167.057,234.605 165.625,233.854 165.625 C 233.568 165.625,233.333 164.922,233.333 164.063 C 233.333 163.203,233.099 162.500,232.813 162.500 C 232.526 162.500,232.292 162.031,232.292 161.458 C 232.292 160.885,232.057 160.417,231.771 160.417 C 231.484 160.417,231.250 159.960,231.250 159.402 C 231.250 158.385,228.296 155.729,227.164 155.729 C 226.833 155.729,226.563 155.495,226.563 155.208 C 226.563 154.922,225.960 154.688,225.223 154.688 C 223.711 154.688,222.071 153.387,222.921 152.862 C 223.214 152.681,223.320 152.314,223.155 152.047 C 222.751 151.393,218.750 151.426,218.750 152.083 C 218.750 152.370,218.047 152.604,217.188 152.604 C 216.328 152.604,215.625 152.839,215.625 153.125 C 215.625 153.411,215.156 153.646,214.583 153.646 C 214.010 153.646,213.542 153.880,213.542 154.167 C 213.542 154.453,213.180 154.688,212.739 154.688 C 212.297 154.688,211.451 155.139,210.858 155.692 C 209.783 156.693,207.292 156.297,207.292 155.125 C 207.292 154.127,204.070 154.684,203.797 155.729 C 203.440 157.091,203.289 157.056,201.563 155.208 C 200.760 154.349,199.728 153.646,199.270 153.646 C 198.812 153.646,198.438 153.411,198.438 153.125 C 198.438 152.839,197.969 152.604,197.396 152.604 C 196.823 152.604,196.354 152.370,196.354 152.083 C 196.354 151.797,195.651 151.563,194.792 151.563 C 193.932 151.563,193.229 151.328,193.229 151.042 C 193.229 150.718,190.278 150.521,185.417 150.521 C 180.556 150.521,177.604 150.718,177.604 151.042 M215.724 168.490 C 215.607 169.492,215.302 170.313,215.047 170.313 C 214.792 170.313,214.583 170.664,214.583 171.094 C 214.583 171.523,214.485 171.875,214.366 171.875 C 214.246 171.875,213.777 172.017,213.324 172.191 C 212.740 172.415,212.500 172.200,212.500 171.453 C 212.500 170.874,212.207 170.287,211.849 170.150 C 211.415 169.983,211.595 169.607,212.390 169.021 C 213.046 168.537,213.866 167.819,214.213 167.424 C 215.330 166.153,215.946 166.588,215.724 168.490 "
                  stroke="none"
                  fill="var(--purple)"
                  fill-rule="evenodd"
                  class="svg__color"
                ></path>
                <path
                  id="path4"
                  d="M321.354 615.631 C 315.239 615.855,317.629 615.953,331.207 616.036 C 341.066 616.097,349.034 616.061,348.915 615.958 C 348.472 615.574,329.156 615.345,321.354 615.631 M299.740 616.679 C 298.594 616.891,300.234 616.943,303.385 616.794 C 306.536 616.646,309.212 616.439,309.332 616.335 C 309.716 616.000,301.894 616.281,299.740 616.679 M354.427 616.687 C 356.146 616.900,359.310 617.064,361.458 617.050 L 365.365 617.026 360.938 616.638 C 358.503 616.424,355.339 616.260,353.906 616.274 L 351.302 616.299 354.427 616.687 M295.052 617.708 C 293.611 618.075,293.590 618.110,294.792 618.160 C 295.508 618.189,296.445 617.986,296.875 617.708 C 297.761 617.135,297.303 617.135,295.052 617.708 M366.667 617.712 C 367.955 618.121,373.292 618.404,372.873 618.041 C 372.754 617.938,371.016 617.729,369.010 617.577 C 366.891 617.415,365.910 617.472,366.667 617.712 M51.208 618.099 C 58.031 618.181,69.046 618.181,75.687 618.098 C 82.327 618.016,76.745 617.949,63.281 617.949 C 49.818 617.949,44.385 618.016,51.208 618.099 "
                  stroke="none"
                  fill="var(--purple)"
                  fill-rule="evenodd"
                  class="svg__color"
                ></path>
                <path
                  id="path5"
                  d="M331.120 614.951 C 331.764 615.075,332.819 615.075,333.464 614.951 C 334.108 614.827,333.581 614.725,332.292 614.725 C 331.003 614.725,330.475 614.827,331.120 614.951 M322.786 615.486 C 324.004 615.595,325.996 615.595,327.214 615.486 C 328.431 615.376,327.435 615.286,325.000 615.286 C 322.565 615.286,321.569 615.376,322.786 615.486 M337.630 615.487 C 338.991 615.594,341.217 615.594,342.578 615.487 C 343.939 615.380,342.826 615.292,340.104 615.292 C 337.383 615.292,336.270 615.380,337.630 615.487 M300.521 616.096 C 299.278 616.446,311.399 616.273,313.021 615.917 C 313.451 615.823,311.107 615.742,307.813 615.737 C 304.518 615.733,301.237 615.894,300.521 616.096 M350.911 616.006 C 352.129 616.116,354.121 616.116,355.339 616.006 C 356.556 615.897,355.560 615.807,353.125 615.807 C 350.690 615.807,349.694 615.897,350.911 616.006 M358.730 616.514 C 359.378 616.639,360.315 616.634,360.813 616.504 C 361.311 616.373,360.781 616.271,359.635 616.277 C 358.490 616.283,358.082 616.390,358.730 616.514 M365.148 616.858 C 365.267 616.963,366.302 617.192,367.448 617.367 C 368.900 617.588,369.216 617.541,368.490 617.212 C 367.490 616.759,364.700 616.463,365.148 616.858 M35.026 618.081 C 35.814 618.201,37.103 618.201,37.891 618.081 C 38.678 617.962,38.034 617.864,36.458 617.864 C 34.883 617.864,34.238 617.962,35.026 618.081 M88.151 618.067 C 88.652 618.198,89.473 618.198,89.974 618.067 C 90.475 617.936,90.065 617.829,89.063 617.829 C 88.060 617.829,87.650 617.936,88.151 618.067 "
                  stroke="none"
                  fill="var(--purple)"
                  fill-rule="evenodd"
                  class="svg__color"
                ></path>
              </g>
            </svg>