<?xml version="1.0" encoding="iso-8859-1"?>
<!-- Generator: Adobe Illustrator 19.0.0, SVG Export Plug-In . SVG Version: 6.00 Build 0)  -->
<svg version="1.1" id="Layer_1" xmlns="http://www.w3.org/2000/svg" xmlns:xlink="http://www.w3.org/1999/xlink" x="0px" y="0px"
	 viewBox="0 0 408.761 408.761" style="enable-background:new 0 0 408.761 408.761;" xml:space="preserve">
<g>
	<path style="fill:#FFBE00;" d="M204.385,408.761c-58.121,0-113.675-24.868-152.418-68.227
		C18.46,303.059,0.005,254.703,0.005,204.381C0.005,91.685,91.689,0,204.385,0c50.317,0,98.674,18.455,136.163,51.964
		c43.348,38.762,68.207,94.316,68.207,152.417C408.755,317.076,317.075,408.761,204.385,408.761"/>
	<path style="fill:#F4502A;" d="M377.759,204.379c0,18.08-2.77,35.521-7.911,51.901c-0.849,2.72-1.769,5.409-2.759,8.07
		c-16.511,44.83-51.031,80.96-94.791,99.59c-15.779,6.729-32.759,11.18-50.529,12.95c-5.721,0.58-11.51,0.87-17.38,0.87
		c-51.39,0-97.561-22.361-129.301-57.881c-0.26-0.29-0.519-0.589-0.79-0.879c-26.95-30.562-43.289-70.681-43.289-114.622
		c0-95.749,77.619-173.38,173.38-173.38c43.95,0,84.069,16.35,114.629,43.291c0.29,0.27,0.591,0.53,0.881,0.79
		C355.409,106.84,377.759,152.989,377.759,204.379"/>
	<path style="fill:#C29100;" d="M74.354,319.061c3.691,4.18,7.58,8.181,11.653,11.988c-3.805-3.558-7.447-7.283-10.918-11.168
		C74.846,319.61,74.605,319.332,74.354,319.061 M64.213,306.438c0.014,0.019,0.031,0.042,0.045,0.062
		C64.243,306.479,64.228,306.458,64.213,306.438 M63.885,305.987c0.062,0.085,0.125,0.173,0.187,0.258
		C64.009,306.158,63.948,306.074,63.885,305.987 M63.606,305.601c0.063,0.088,0.128,0.177,0.191,0.265
		C63.733,305.777,63.671,305.69,63.606,305.601 M63.304,305.18c0.086,0.12,0.172,0.241,0.259,0.361
		C63.476,305.421,63.389,305.299,63.304,305.18 M163.353,35.884C87.403,54.315,31.004,122.757,31.004,204.371
		c0,37.592,11.957,72.385,32.283,100.785c-20.323-28.403-32.278-63.193-32.278-100.777C31.009,122.766,87.402,54.317,163.353,35.884
		"/>
	<path style="fill:#BA3D20;" d="M204.383,31.001c-14.138,0-27.875,1.691-41.03,4.883C87.402,54.317,31.009,122.766,31.009,204.379
		c0,37.584,11.955,72.375,32.278,100.778c0.005,0.007,0.011,0.016,0.016,0.023c0.086,0.12,0.173,0.241,0.259,0.361
		c0.014,0.02,0.03,0.042,0.044,0.061c0.064,0.089,0.127,0.176,0.191,0.265c0.03,0.042,0.057,0.08,0.088,0.121
		c0.063,0.087,0.124,0.171,0.187,0.258c0.048,0.066,0.093,0.127,0.141,0.193c0.015,0.02,0.03,0.041,0.045,0.062
		c3.172,4.344,6.542,8.536,10.096,12.561c0.251,0.271,0.492,0.549,0.735,0.819c3.472,3.885,7.114,7.61,10.918,11.168
		c2.105,1.967,4.258,3.882,6.458,5.743c-25.531-30.2-40.921-69.241-40.921-111.88c0-95.751,77.621-173.37,173.381-173.37
		c42.629,0,81.68,15.39,111.869,40.919C305.004,54.871,257.485,31.001,204.383,31.001"/>
	<path style="fill:#BA3D20;" d="M296.129,193.38l-146.18,12.269v35.941l122.35,122.35c43.76-18.63,78.28-54.76,94.791-99.59
		L296.129,193.38"/>
	<polygon style="fill:#FFFFFF;" points="112.634,204.381 149.945,167.169 149.945,193.381 296.125,193.381 296.125,215.381 
		149.945,215.381 149.945,241.593 	"/>
</g>
<g>
</g>
<g>
</g>
<g>
</g>
<g>
</g>
<g>
</g>
<g>
</g>
<g>
</g>
<g>
</g>
<g>
</g>
<g>
</g>
<g>
</g>
<g>
</g>
<g>
</g>
<g>
</g>
<g>
</g>
</svg>
