<?xml version="1.0" standalone="no"?>
<!DOCTYPE svg PUBLIC "-//W3C//DTD SVG 20010904//EN"
 "http://www.w3.org/TR/2001/REC-SVG-20010904/DTD/svg10.dtd">
<svg version="1.0" xmlns="http://www.w3.org/2000/svg"
 width="1280.000000pt" height="640.000000pt" viewBox="0 0 1280.000000 640.000000"
 preserveAspectRatio="xMidYMid meet">
<metadata>
Created by potrace 1.15, written by Peter Selinger 2001-2017
</metadata>
<g transform="translate(0.000000,640.000000) scale(0.100000,-0.100000)"
fill="#000000" stroke="none">
<path d="M3090 6135 c-25 -7 -83 -36 -130 -65 -115 -70 -219 -117 -452 -206
-194 -73 -199 -74 -290 -74 -55 0 -132 -9 -188 -20 -198 -43 -249 -51 -380
-65 -74 -8 -208 -15 -298 -15 -157 0 -167 1 -259 32 -89 29 -98 35 -127 77
-45 67 -146 166 -195 191 -71 36 -99 31 -146 -25 -93 -112 -130 -146 -160
-148 -23 -2 -31 -8 -33 -25 -2 -13 -14 -27 -28 -32 -13 -5 -24 -18 -24 -28 0
-10 -6 -26 -13 -35 -10 -14 -19 -15 -57 -6 -25 6 -64 8 -86 4 l-42 -6 -4 -202
-5 -202 -46 -79 c-80 -137 -120 -292 -116 -451 1 -44 -2 -116 -6 -160 -22
-235 142 -447 487 -624 194 -100 351 -116 553 -56 50 15 97 29 106 32 11 3 20
-5 28 -25 7 -17 23 -40 36 -52 l23 -21 -24 -71 c-65 -190 -94 -365 -94 -559 0
-272 65 -487 217 -717 l55 -83 -7 -92 c-10 -144 -25 -184 -99 -263 -35 -38
-97 -94 -139 -124 -42 -30 -75 -59 -73 -65 5 -17 64 -6 131 24 l65 30 0 -27
c0 -41 -25 -149 -60 -262 -25 -82 -29 -104 -19 -111 16 -10 52 44 115 170 l42
84 7 -48 c4 -26 5 -79 2 -116 -5 -55 -3 -69 8 -69 8 0 19 18 25 43 11 44 24
74 64 144 l23 41 6 -64 c9 -94 26 -144 49 -144 18 0 19 5 13 41 -7 39 3 284
11 276 8 -8 34 -400 34 -515 0 -112 2 -123 18 -120 20 4 34 92 52 338 10 133
34 269 45 258 6 -5 -14 -257 -23 -310 -9 -44 -3 -58 22 -58 2 0 9 18 16 40 7
22 15 39 17 37 2 -2 -10 -73 -26 -158 -19 -96 -26 -158 -20 -164 6 -6 12 -6
18 0 4 6 32 97 62 202 48 172 69 225 69 178 0 -18 47 -134 62 -152 5 -6 15
-10 22 -7 11 4 10 18 -5 65 -11 34 -18 77 -18 97 2 31 3 32 6 9 4 -26 33 -40
33 -15 0 6 3 9 6 5 16 -15 34 -221 34 -385 1 -190 -4 -224 -45 -316 -23 -52
-27 -56 -76 -71 -29 -8 -81 -15 -117 -15 -64 0 -187 -26 -255 -55 -20 -8 -54
-15 -76 -15 -30 0 -43 -5 -51 -19 -16 -31 -12 -59 13 -75 26 -16 161 -6 241
18 40 12 51 12 74 0 15 -8 42 -14 60 -14 l34 0 -26 -31 c-15 -17 -33 -44 -41
-59 -14 -27 -14 -27 -157 -34 -202 -10 -282 -28 -418 -91 -63 -29 -134 -56
-157 -60 -57 -9 -93 -38 -93 -77 l0 -30 140 3 c126 3 141 1 161 -17 33 -30
102 -25 140 12 26 24 39 29 87 31 145 3 652 15 692 16 25 0 101 -3 170 -8 74
-4 146 -3 177 2 38 7 68 6 115 -4 34 -8 114 -15 175 -16 95 -1 115 1 130 16
13 13 15 23 7 44 -13 38 -63 63 -147 74 -102 13 -181 54 -233 121 -37 48 -42
60 -46 125 l-5 72 44 7 c59 9 120 -2 168 -30 63 -37 141 -56 230 -56 86 0 125
15 125 49 0 34 -25 52 -95 68 -85 19 -126 39 -226 109 l-76 53 -22 138 c-39
242 -46 375 -33 608 17 289 45 570 83 825 39 265 44 496 12 642 -18 81 -18 96
-5 210 10 93 12 207 8 468 -4 190 -9 375 -12 411 l-6 66 53 14 c38 10 116 14
259 14 214 -1 323 -15 525 -67 73 -18 98 -20 280 -14 340 11 658 -20 827 -80
103 -37 143 -59 196 -107 54 -50 282 -351 282 -373 0 -24 73 -176 111 -231
182 -265 508 -407 1019 -443 80 -5 179 -10 220 -10 159 0 375 -78 554 -198
222 -150 348 -219 769 -422 418 -202 512 -263 902 -590 367 -308 490 -394 688
-483 136 -61 564 -203 982 -327 340 -101 355 -109 461 -216 72 -72 110 -144
127 -240 23 -121 63 -132 417 -118 378 15 860 11 965 -8 50 -9 131 -20 180
-24 50 -4 100 -10 113 -15 12 -5 56 -6 97 -2 90 7 125 33 125 90 0 46 -33 77
-106 97 -87 24 -136 49 -192 99 -176 157 -459 339 -787 507 -157 80 -165 82
-520 168 -245 60 -268 71 -520 262 -455 344 -897 641 -1288 865 -105 60 -122
74 -158 127 -61 90 -154 184 -327 329 -225 190 -305 270 -377 379 -150 228
-366 464 -590 643 -133 107 -375 270 -545 367 -221 127 -554 284 -730 345
-366 127 -478 182 -585 285 -75 72 -112 93 -186 104 -33 5 -61 19 -105 55 -94
76 -186 117 -469 207 -391 125 -538 191 -684 308 -73 59 -103 76 -203 113
-160 59 -288 90 -427 103 -174 17 -182 20 -280 113 -147 139 -291 198 -485
196 -56 0 -121 -7 -146 -14z"/>
</g>
</svg>
