<?xml version="1.0" standalone="no"?>
<!DOCTYPE svg PUBLIC "-//W3C//DTD SVG 20010904//EN"
 "http://www.w3.org/TR/2001/REC-SVG-20010904/DTD/svg10.dtd">
<svg version="1.0" xmlns="http://www.w3.org/2000/svg"
 width="652.000000pt" height="1280.000000pt" viewBox="0 0 652.000000 1280.000000"
 preserveAspectRatio="xMidYMid meet">
<metadata>
Created by potrace 1.15, written by Peter Selinger 2001-2017
</metadata>
<g transform="translate(0.000000,1280.000000) scale(0.100000,-0.100000)"
fill="#000000" stroke="none">
<path d="M6349 12783 c-15 -9 -36 -39 -49 -69 -12 -29 -39 -73 -61 -97 -38
-44 -89 -138 -89 -166 0 -8 -19 -44 -43 -80 -24 -36 -61 -94 -83 -129 -21 -35
-89 -129 -149 -210 -61 -81 -127 -181 -147 -222 -156 -321 -237 -484 -301
-600 -41 -74 -107 -196 -147 -270 -87 -162 -246 -406 -361 -551 -118 -150
-280 -349 -304 -374 -11 -11 -45 -49 -75 -84 -30 -36 -60 -69 -65 -75 -26 -28
-230 -293 -244 -318 -9 -15 -22 -28 -30 -28 -11 0 -78 -64 -149 -142 -4 -5
-39 -38 -77 -75 -39 -38 -95 -96 -124 -131 -46 -53 -61 -64 -109 -78 -77 -23
-155 -58 -195 -88 -19 -14 -38 -26 -43 -26 -13 0 -177 -160 -199 -192 -9 -16
-25 -28 -35 -28 -9 0 -29 -9 -42 -20 l-25 -19 -34 47 c-18 26 -37 49 -41 50
-4 2 -8 9 -8 15 0 7 -48 62 -108 122 -59 61 -120 129 -136 150 -35 47 -63 74
-91 86 -11 5 -38 20 -60 34 -22 14 -56 32 -75 42 -19 9 -45 25 -57 36 -23 20
-23 23 -22 296 0 293 -1 301 -61 561 -11 47 -25 110 -30 140 -18 95 -100 231
-206 340 -75 77 -92 100 -87 118 4 17 -1 24 -21 32 -33 12 -33 25 5 146 28 93
30 105 23 204 -16 253 -109 454 -289 629 -118 115 -282 177 -503 191 -202 13
-292 -7 -478 -106 -100 -54 -105 -58 -158 -137 -47 -70 -56 -92 -62 -142 -3
-33 -15 -105 -26 -160 -11 -55 -24 -126 -28 -159 -5 -32 -16 -66 -24 -75 -9
-10 -16 -28 -16 -42 0 -13 1 -35 1 -49 0 -14 -3 -42 -7 -63 -5 -30 -2 -40 15
-55 31 -26 43 -106 29 -198 -19 -120 21 -415 68 -505 8 -16 14 -54 14 -85 0
-82 24 -117 92 -133 29 -6 85 -12 123 -14 l70 -2 0 -120 0 -121 -35 -49 c-31
-42 -42 -50 -87 -60 -29 -7 -68 -24 -88 -39 -19 -15 -50 -32 -68 -38 -17 -6
-44 -19 -59 -30 -14 -10 -30 -18 -34 -18 -4 0 -26 -8 -48 -19 -23 -10 -60 -23
-83 -30 -23 -6 -73 -36 -111 -65 -38 -30 -103 -71 -143 -91 -120 -60 -177
-110 -218 -190 -35 -68 -36 -74 -36 -180 l0 -110 63 -140 c35 -77 80 -169 99
-205 47 -86 72 -182 80 -310 5 -89 11 -119 44 -202 40 -102 47 -167 33 -288
-4 -41 -1 -73 15 -125 11 -39 25 -106 31 -150 18 -130 59 -337 74 -375 23 -56
47 -235 51 -381 5 -164 21 -343 34 -387 7 -22 7 -52 1 -83 -6 -30 -6 -69 0
-101 5 -29 17 -98 26 -153 9 -55 23 -118 31 -139 7 -22 20 -69 29 -105 14 -63
53 -137 100 -194 13 -15 26 -44 30 -63 5 -25 14 -38 31 -45 20 -7 22 -12 13
-28 -13 -26 -13 -57 2 -84 6 -12 13 -42 15 -67 9 -138 12 -182 21 -245 5 -38
15 -83 21 -98 6 -16 11 -48 11 -72 0 -46 16 -114 49 -205 11 -30 29 -89 42
-130 12 -41 32 -106 44 -145 12 -38 42 -133 65 -210 50 -164 101 -318 142
-430 61 -165 80 -251 84 -385 1 -36 7 -110 14 -166 10 -86 9 -112 -4 -177 -20
-94 -20 -180 -1 -322 9 -63 12 -136 9 -171 -10 -100 15 -166 88 -236 71 -67
65 -54 250 -543 16 -44 68 -154 115 -245 l85 -165 2 -145 c3 -144 2 -146 -37
-273 -38 -124 -96 -239 -165 -325 -55 -69 -63 -89 -71 -179 -8 -101 -6 -126
18 -147 35 -32 67 -65 101 -105 19 -22 40 -41 46 -41 6 0 17 -7 24 -15 7 -8
23 -15 36 -15 12 0 26 -4 29 -10 3 -5 25 -10 48 -10 23 0 55 -7 71 -15 38 -20
139 -20 156 0 7 8 17 15 22 15 21 0 59 59 78 122 11 37 31 80 44 95 41 49 46
69 45 167 0 52 2 100 6 105 14 24 37 131 44 209 7 84 -4 204 -34 352 -8 42
-15 85 -15 96 0 11 -18 54 -39 95 -70 132 -75 164 -76 514 -1 171 -5 377 -10
458 l-8 148 30 32 c17 18 51 61 77 96 38 52 46 71 46 106 0 42 -67 261 -108
357 -16 37 -20 66 -19 131 1 55 -3 89 -11 99 -32 39 -68 562 -45 668 6 30 12
94 12 141 1 47 5 110 10 140 5 30 14 92 20 139 7 47 25 180 41 295 16 116 31
251 35 300 13 190 41 289 123 432 59 103 80 123 143 142 24 7 51 17 59 22 8 5
26 14 40 20 32 13 107 76 244 202 203 187 251 242 403 472 112 168 285 457
333 553 44 90 46 92 100 113 87 35 317 151 405 204 160 97 265 202 265 262 0
34 -31 106 -61 144 -16 20 -36 53 -44 71 -7 19 -21 40 -29 48 -9 7 -16 18 -16
24 0 10 -44 100 -86 176 -10 19 -38 61 -61 93 -41 55 -54 99 -33 112 6 3 10
21 10 39 0 41 44 122 73 137 12 6 36 26 53 44 21 22 43 34 73 39 85 13 153 62
347 249 112 108 148 150 177 204 38 72 48 86 168 234 96 119 119 159 273 464
69 138 138 273 153 301 16 28 55 111 88 185 112 252 253 523 312 604 124 168
171 199 378 256 140 38 202 87 229 181 33 116 19 279 -45 493 l-29 101 14 174
c16 184 30 245 84 360 31 66 72 224 72 280 0 17 14 56 30 87 27 50 30 65 29
142 0 126 -11 177 -44 211 -33 35 -83 40 -126 13z m-3521 -4643 c28 -22 53
-46 55 -53 5 -14 -28 -73 -57 -102 -41 -41 -145 -161 -178 -205 -42 -57 -108
-157 -108 -164 0 -3 -13 -27 -28 -53 -16 -27 -37 -73 -47 -103 -33 -100 -75
-144 -121 -126 -13 5 -15 13 -9 39 5 17 8 44 7 60 -5 108 6 168 44 243 15 29
24 65 24 92 0 26 7 54 18 70 10 15 27 47 36 72 11 28 37 62 69 91 117 104 213
179 228 179 9 0 39 -18 67 -40z"/>
</g>
</svg>
