<?xml version="1.0" encoding="iso-8859-1"?>
<!-- Generator: Adobe Illustrator 19.0.0, SVG Export Plug-In . SVG Version: 6.00 Build 0)  -->
<svg version="1.1" id="Layer_1" x="0px" y="0px" xmlns="http://www.w3.org/2000/svg"
	 viewBox="0 0 497.4 497.4" style="enable-background:new 0 0 497.4 497.4;" xml:space="preserve">
<path style="fill:#ED2100;" d="M418.149,62.4l-168-9.6c-8-0.8-15.2,2.4-20.8,8L16.549,260c-10.4,10.4-16.8,35.2-6.4,46.4
	l183.2,183.2c10.4,10.4,28,10.4,39.2,0l212.8-212.8c5.6-5.6,8.8-12.8,8-20.8l-9.6-171.2C442.949,71.2,431.749,63.2,418.149,62.4z"/>
<path style="fill:#FF5B00;" d="M418.149,48.8l-168-9.6c-8-0.8-15.2,2.4-20.8,8L16.549,260c-10.4,10.4-10.4,28,0,39.2l176.8,176.8
	c10.4,10.4,28,10.4,39.2,0l212.8-212.8c5.6-5.6,8.8-12.8,8-20.8l-9.6-167.2C442.949,60.8,431.749,49.6,418.149,48.8z"/>
<path style="fill:#EA5206;" d="M193.349,476c10.4,10.4,28,10.4,39.2,0l212.8-212.8c5.6-5.6,8.8-12.8,8-20.8l-9.6-167.2
	c-0.8-13.6-12-24.8-25.6-25.6l-168-10.4c-8-0.8-15.2,2.4-20.8,8"/>
<path style="fill:#DD4503;" d="M407.749,129.6c0,24.8-20,58.4-45.6,58.4c-24.8,0-45.6-33.6-45.6-58.4s20-45.6,45.6-45.6
	C387.749,84,407.749,104.8,407.749,129.6z"/>
<circle style="fill:#DB2305;" cx="362.949" cy="129.6" r="45.6"/>
<path style="fill:#BF1200;" d="M330.949,97.6c17.6-17.6,46.4-17.6,64,0s17.6,46.4,0,64"/>
<circle style="fill:#EBF0F2;" cx="362.949" cy="129.6" r="27.2"/>
<path style="fill:#CADFE5;" d="M382.149,110.4c10.4,10.4,10.4,27.2,0,37.6s-27.2,10.4-37.6,0"/>
<g>
	<path style="opacity:0.3;fill:#435956;enable-background:new    ;" d="M490.149,12.8c3.2-3.2,3.2-7.2,0-10.4l0,0
		c-3.2-3.2-7.2-3.2-10.4,0l-122.4,122.4c-3.2,3.2-3.2,7.2,0,10.4l0,0c3.2,3.2,12.8,8.8,16,5.6L490.149,12.8z"/>
	<path style="fill:#435956;" d="M490.149,12.8c3.2-3.2,3.2-7.2,0-10.4l0,0c-3.2-3.2-7.2-3.2-10.4,0l-122.4,122.4
		c-3.2,3.2-3.2,7.2,0,10.4l0,0c3.2,3.2,7.2,3.2,10.4,0L490.149,12.8z"/>
</g>
<path style="fill:#314441;" d="M357.349,135.2L357.349,135.2c3.2,3.2,7.2,3.2,10.4,0l122.4-122.4c3.2-3.2,3.2-7.2,0-10.4l0,0"/>
<path style="fill:#EBF0F2;" d="M338.949,307.2c4.8,4.8,4.8,12,0,16.8l-117.6,117.6c-4.8,4.8-12,4.8-16.8,0L50.949,288
	c-4.8-4.8-4.8-12,0-16.8l117.6-117.6c4.8-4.8,12-4.8,16.8,0L338.949,307.2z"/>
<path style="fill:#CADFE5;" d="M338.949,307.2l-121.6-120.8l-20.8,248l8,8c4.8,4.8,12,4.8,16.8,0l117.6-117.6
	C343.749,319.2,343.749,312,338.949,307.2z"/>
</svg>
