<?xml version='1.0' encoding='utf-8'?>
<svg xmlns="http://www.w3.org/2000/svg" version="1.1" width="600px" height="976px" viewBox="0 0 600 976"> <g id="layer1"> <g style="fill:rgb(0,0,0); fill-opacity:1.0; stroke-linejoin: miter"> <path d="M208.218,246.06775C208.08855,246.1972,206.01762,246.48846,203.62312,246.68256C201.22865,246.87671,199.12535,247.16797,198.9312,247.32977C198.73705,247.49152,196.925,247.71802,194.91878,247.84747C192.91255,247.97693,191.19756,248.20343,191.10051,248.36517C191.00343,248.52704,189.15901,248.65643,186.99104,248.65643C183.75523,248.68878,182.81682,248.78589,181.74901,249.30359C181.0371,249.65955,180.13106,249.91833,179.74278,249.9508C179.32213,249.9508,178.99852,250.0802,178.99852,250.27435C178.99852,250.63031,177.12178,251.01855,175.37444,251.0509C174.72728,251.08325,173.98302,251.2774,173.75648,251.47162C173.53001,251.73047,172.5269,251.89221,171.32967,251.89221C170.19713,251.89221,169.29109,252.02173,169.29109,252.18347C169.29109,252.63647,167.70555,252.92773,164.98744,252.89539C163.59605,252.89539,162.26936,253.02478,162.07521,253.18658C160.7809,254.28674,159.90724,255.12805,160.06902,255.12805C160.16606,255.12805,160.10136,255.41925,159.90724,255.80762C159.68071,256.1635,159.45418,256.39008,159.35713,256.2929C159.26006,256.19586,158.96883,256.32526,158.70995,256.58417C158.45113,256.84302,157.96571,257.06958,157.57744,257.06958C156.76848,257.06958,154.7299,258.7522,151.52644,262.08508C146.15498,267.6183,145.99321,267.8125,145.99321,269.17157L145.99321,270.43347L147.51402,270.23932C148.35533,270.14227,149.19667,269.851,149.3908,269.5598C149.61732,269.26862,149.8762,269.04205,150.00563,269.04205C150.23213,269.04205,151.55879,267.90955,154.05037,265.54736C156.57433,263.12054,157.31859,262.76465,158.32167,263.4765C159.19536,264.09125,161.29863,264.15594,168.87044,263.80005C174.792,263.5412,176.73347,262.82935,179.6457,259.94946L181.78136,257.81384L184.75829,257.42548C187.31462,257.10193,188.64128,257.13428,194.27162,257.71667C197.8957,258.10504,203.1054,258.7522,205.85585,259.1728C214.23659,260.46716,217.796,260.92017,222.03493,261.2437C226.72685,261.59973,229.80092,262.50574,229.80092,263.57355C229.80092,263.8971,229.93031,264.1883,230.09215,264.1883C230.22154,264.1883,230.83632,265.25616,231.41878,266.51813C233.5868,271.3719,235.10765,274.41357,236.01366,275.6432C236.49907,276.3227,236.9197,277.0993,236.9197,277.35815C236.9197,277.5846,237.04915,277.7788,237.21089,277.7788C237.56685,277.7788,242.097,283.44153,242.097,283.89447C242.097,284.08862,242.22646,284.25043,242.42058,284.25043C242.90596,284.25043,243.58546,286.15955,243.812,288.13342C244.07088,290.2367,244.16792,290.81915,244.81508,293.63434C245.07393,294.76678,245.23576,295.83466,245.13869,295.9317C245.07393,296.06116,245.10628,296.2229,245.23576,296.28772C245.49464,296.38477,246.62715,301.30322,246.88603,303.40643C246.98311,304.34485,246.88603,304.63605,246.33592,304.95966C245.527,305.3803,245.62404,305.54205,244.718,301.72382C244.3621,300.203,243.71492,298.32623,243.29424,297.51727C242.84123,296.7083,242.1617,295.44635,241.74107,294.66974C241.35277,293.92554,240.89977,293.31067,240.73793,293.31067C240.60854,293.31067,240.47911,293.14893,240.47911,292.95477C240.47911,292.76068,239.79958,291.72516,238.95824,290.65735C236.62846,287.74512,236.07835,286.8067,235.81953,285.48004C235.69008,284.83282,235.49593,284.25043,235.3665,284.18573C235.23708,284.12097,234.39577,283.21497,233.52208,282.14716C231.35408,279.59082,231.15996,279.39673,229.47734,278.2965C228.66838,277.7788,227.05043,276.35504,225.88554,275.12543C224.62358,273.7987,223.62047,273.02216,223.52339,273.21625C223.26451,273.6046,223.394,273.70166,220.67589,271.3719L218.79912,269.78632L214.85143,269.91577C210.6772,270.07758,206.30885,270.72473,205.11159,271.3719C203.9467,271.98663,199.57835,275.6432,198.12224,277.19635C196.925,278.52307,195.95424,279.9792,194.78935,282.30896C194.49812,282.89142,194.40102,284.67108,194.43336,288.29517C194.46577,292.7282,194.5952,293.92554,195.33943,296.7083C196.27785,300.23535,196.27785,302.33862,195.33943,304.9273C194.7246,306.67462,194.7246,308.68085,195.33943,311.59308C195.59828,312.8227,195.82478,314.18176,195.82478,314.57C195.82478,314.95837,195.95424,315.31427,196.14836,315.37897C196.56908,315.50848,196.9897,318.0,197.2809,321.8506L197.50743,324.98938L196.40724,326.86615C194.7246,329.71368,193.10674,337.67383,194.04509,338.45038C194.27162,338.61218,194.5305,339.48584,194.6599,340.32715C194.75697,341.16846,195.0482,342.26862,195.30705,342.75403C195.76009,343.59534,195.79243,343.4983,195.82478,340.87726C195.82478,339.12994,195.98662,337.93268,196.27785,337.5443C197.31328,336.18536,197.57213,337.51196,196.89262,340.78015C196.43959,343.01288,196.40724,343.7248,196.73082,344.92206C197.34563,347.25183,197.2162,348.31958,195.98662,350.2611C195.37178,351.2318,194.85408,352.20264,194.85408,352.42914C194.85408,352.65564,194.5952,353.3028,194.27162,353.88525C193.9804,354.4677,193.52736,355.53552,193.26848,356.24738C192.55663,358.3507,191.61827,360.29218,191.32704,360.29218C191.1652,360.29218,190.9387,360.64813,190.84163,361.10107C190.74458,361.5218,190.35625,362.0395,190.00032,362.23364C188.86778,362.84845,184.30528,368.57587,181.0371,373.46198C177.73659,378.44513,174.82436,381.6809,170.77956,384.8844C169.54997,385.8551,168.22328,387.02002,167.86732,387.44067C167.47905,387.86133,166.44356,389.02625,165.53752,390.0293C163.07832,392.7151,162.43117,393.4593,161.52513,394.5918C159.87486,396.72748,159.38948,397.40698,157.83629,399.67206C156.9626,400.96637,156.12132,402.03424,155.95952,402.03424C155.8301,402.03424,155.70067,402.16364,155.70067,402.32544C155.70067,402.5196,154.85936,403.91095,153.8239,405.49652C152.78844,407.04974,151.07344,409.80017,150.03798,411.57986C147.93468,415.17163,144.43999,420.38132,142.98387,422.06393C141.72194,423.5524,139.03618,425.5586,137.25648,426.3352C136.44753,426.69116,135.50914,427.11182,135.15321,427.2736C134.79726,427.4354,133.11464,428.01782,131.43202,428.60028C129.7494,429.1504,128.22856,429.73282,128.03441,429.86227C127.872604,429.9917,127.09602,430.18582,126.31944,430.28293C125.54283,430.37997,124.02199,430.99478,122.92183,431.64197C121.10976,432.74213,117.8416,433.7452,116.061874,433.7452C115.70595,433.7452,115.05879,433.97174,114.60576,434.23062C114.152725,434.48944,112.98784,435.10428,112.017136,435.5573C111.04637,436.04266,109.97856,436.6251,109.68733,436.88397C108.58714,437.82236,102.69797,435.33078,99.72099,432.64505C94.44661,427.8884,88.395645,421.28735,86.84245,418.6016C86.22763,417.50143,85.4834,415.20398,85.4834,414.33032C85.4834,413.87732,85.2569,413.1331,85.030396,412.64767C84.771515,412.12997,84.44794,411.06216,84.35086,410.22086C84.02728,407.82632,83.89784,407.59982,82.92711,407.3733C81.21211,407.0174,79.36771,408.21463,78.23517,410.4797C77.94394,411.06216,77.71744,411.83875,77.71744,412.19467C77.71744,412.58298,77.49092,413.29486,77.19971,413.84497C76.87613,414.45975,76.843765,414.84808,77.03792,414.91278C77.49092,415.07455,77.5233,416.5954,77.07027,416.5954C76.90848,416.5954,76.68198,417.14548,76.5849,417.79266C76.455475,418.47217,76.00246,419.73413,75.54942,420.64017C74.80519,422.0316,74.675766,422.74347,74.57869,425.88217C74.51398,428.11493,74.61105,429.57104,74.80519,429.70047C74.999344,429.82986,75.06407,430.0564,74.96698,430.2182C74.83757,430.37997,74.93463,430.5094,75.09642,430.5094C75.29057,430.5094,75.45236,430.80063,75.45236,431.1566C75.45236,431.48016,75.87302,432.2244,76.39075,432.74213C76.90848,433.2922,77.42621,434.0041,77.55565,434.36005C77.65271,434.68362,77.94394,435.0719,78.202805,435.16898C78.46167,435.26608,78.68819,435.5573,78.68819,435.8485C78.68819,436.1074,78.81761,436.3339,78.979416,436.3339C79.141205,436.3339,79.43242,436.75455,79.62656,437.30463C79.78836,437.82236,80.11194,438.27536,80.27373,438.27536C80.46788,438.27536,80.62967,438.5019,80.62967,438.76077C80.62967,439.05197,80.85617,439.3432,81.11505,439.44025C81.3739,439.5697,81.60043,439.8933,81.60043,440.2169C81.60043,440.54044,81.794556,441.02582,82.05344,441.25232C82.27994,441.5112,82.603516,442.02893,82.70061,442.41724C82.83002,442.80554,83.0889,443.12912,83.25069,443.12912C83.412476,443.12912,83.5419,443.3556,83.5419,443.61447C83.5419,443.87335,83.70369,444.09982,83.89784,444.09982C84.05963,444.09982,84.12436,444.22928,84.02728,444.42343C83.93022,444.58524,83.99492,444.747,84.15672,444.747C84.35086,444.747,84.512665,445.10294,84.512665,445.49124C84.512665,445.91193,84.80388,446.59143,85.159805,447.0121C85.51575,447.43274,85.80698,448.14462,85.80698,448.66235C85.80698,449.14774,85.96878,449.60074,86.16292,449.66547C86.35707,449.73016,86.61592,450.53915,86.71301,451.4775C86.77774,452.41592,86.97186,453.16016,87.13368,453.16016C87.26309,453.16016,87.55432,453.9691,87.78082,454.93985C88.00734,455.9106,88.29857,456.71954,88.46036,456.71954C88.5898,456.71954,88.71921,456.94608,88.71921,457.2049C88.71921,457.49612,88.945724,457.78735,89.20459,457.88443C89.46347,458.01385,89.68997,458.36978,89.68997,458.6934C89.68997,459.01697,89.85176,459.3082,90.04591,459.3082C90.2077,459.3082,90.272415,459.43762,90.17532,459.63177C90.07826,459.79355,90.11061,459.95535,90.272415,459.95535C90.434204,459.95535,90.660706,460.24658,90.75778,460.5702C91.081375,461.86447,99.20328,461.86447,101.79193,460.5702C102.53616,460.21423,103.73343,459.59943,104.51001,459.17877C105.64256,458.5963,106.87215,458.36978,111.467026,458.0462C114.54106,457.78735,118.26222,457.62555,119.783066,457.65796C122.6953,457.72266,131.3673,457.26962,136.77113,456.71954C138.55083,456.55774,142.91917,456.26654,146.47856,456.0724C154.3416,455.65173,162.88417,454.87512,164.43736,454.48685C165.9582,454.06616,168.54686,453.61316,171.87975,453.16016C173.40059,452.93362,174.8567,452.67474,175.11555,452.5777C175.37444,452.48062,176.05394,452.38354,176.57167,452.3512C177.12178,452.31882,178.70729,452.02762,180.13106,451.7364C183.62575,450.99216,191.9095,449.98904,196.47194,449.73016C198.51051,449.6331,200.45201,449.4066,200.74324,449.2448C201.03447,449.083,202.87886,448.88885,204.78804,448.82416C206.69716,448.72705,208.3474,448.63,208.4445,448.59763C208.54158,448.56528,211.87444,448.50058,215.88689,448.4682C221.7437,448.43585,223.49104,448.3064,224.78539,447.8534C226.2415,447.36804,227.85939,447.3357,241.61162,447.49747C249.99239,447.5945,258.43787,447.82104,260.3794,447.98282C262.3532,448.14462,265.6214,448.37112,267.65997,448.4682C269.69855,448.56528,272.12537,448.6947,272.99908,448.7918C273.9051,448.8565,276.13782,449.01828,278.0146,449.14774C279.89136,449.2448,282.44763,449.43893,283.6773,449.5684C285.61877,449.73016,288.2398,449.37424,302.76855,446.94736C322.8954,443.54977,323.63965,443.42035,325.90472,442.41724C328.7522,441.21997,332.11743,439.24612,333.3471,438.1136C333.9619,437.53113,334.83557,436.94867,335.28857,436.81924C335.74158,436.68985,336.61523,436.2368,337.23004,435.81616C337.8449,435.3955,338.492,435.03955,338.68616,435.03955C339.5598,435.03955,342.34265,431.73904,343.6046,429.18274C345.4167,425.59094,346.16095,423.19647,346.6463,419.6047C347.22876,414.91278,346.45215,412.77713,342.9251,409.54132C339.72168,406.66144,334.609,404.62286,328.65515,403.94336C326.77838,403.71686,325.2575,403.4256,325.2575,403.2962C325.2575,402.94025,315.5177,402.94025,315.0971,403.2962C314.70874,403.61975,311.0523,404.62286,310.2757,404.62286C309.6609,404.62286,309.07843,400.83698,309.07843,396.79218C309.07843,395.1419,308.94904,393.0063,308.75488,392.03552C308.59302,391.0324,308.26947,389.1233,308.07532,387.79663C307.65466,385.2403,306.26324,379.15698,305.3896,376.14764C304.51593,373.20306,303.86877,370.90564,303.41577,369.02887C300.82715,358.38306,299.88873,355.63257,296.32928,348.15784C295.19678,345.82806,293.96716,343.07758,293.57892,342.00983C293.1582,340.94196,291.89624,337.93268,290.76373,335.31165C289.63116,332.69067,288.6928,330.49023,288.6928,330.3932C288.6928,330.3285,288.11035,329.32538,287.39844,328.22516C286.68658,327.09265,285.78058,325.50708,285.42462,324.69812C285.06866,323.88922,284.51862,322.7243,284.2597,322.1095C283.9685,321.4947,283.4831,320.78284,283.15955,320.49158C282.83594,320.23273,281.8329,318.93835,280.95917,317.6117C280.0855,316.28503,278.7265,314.5053,277.98224,313.63165C274.71405,309.781,273.29028,307.48358,271.187,302.59747C270.08685,300.0736,268.98663,297.77618,268.76013,297.48492C268.50128,297.22607,268.30713,296.80536,268.30713,296.61127C268.30713,296.38477,267.98358,295.6729,267.56293,294.99335C267.1422,294.3462,266.6245,293.27832,266.3656,292.6635C266.10675,292.04877,265.81555,291.4663,265.6861,291.36926C265.07135,290.9162,262.2885,285.44763,260.70294,281.59705C259.79694,279.36438,258.53497,276.74335,258.27606,276.4845C258.17902,276.3874,257.75836,275.5785,257.30536,274.70477C256.43164,272.95746,256.43164,272.95746,255.20207,271.43658C254.74907,270.85413,254.39311,270.23932,254.39311,270.07758C254.39311,269.88342,254.19896,269.59216,254.00484,269.46277C253.7783,269.3333,253.00172,268.45966,252.28984,267.58594C251.57796,266.67993,250.76903,265.74158,250.4778,265.48267C249.53938,264.57666,247.27434,261.66443,247.27434,261.34088C247.27434,261.14667,247.17723,260.9525,247.01546,260.88782C246.69188,260.75842,244.68565,257.9756,244.68565,257.65198C244.68565,257.49017,244.32976,257.03723,243.8767,256.61652C243.42369,256.19586,243.06773,255.77527,243.06773,255.64581C243.06773,255.5487,242.80888,255.19281,242.51765,254.83679C240.77031,253.02478,240.18788,252.28058,239.70253,251.2774C239.05534,250.0155,237.66396,248.65643,237.04915,248.65643C236.82262,248.65643,236.59612,248.52704,236.53142,248.36517C236.49907,248.20343,235.72243,247.97693,234.81642,247.84747C233.94273,247.75043,233.13377,247.55621,233.03673,247.42682C232.71315,246.97375,231.83946,246.90906,224.52654,246.7149C219.511,246.58551,217.05177,246.39136,216.89,246.13245C216.63112,245.71185,208.67097,245.64716,208.218,246.06775 Z M218.21666,313.79346C219.511,315.05542,222.55266,317.3205,223.49104,317.74115C224.49416,318.12946,224.62358,318.32355,224.62358,319.35907C224.62358,320.65338,223.58812,322.0448,221.71135,323.14496C220.19054,324.0833,217.66658,326.18658,216.27516,327.6751C215.628,328.35468,214.85143,328.90472,214.52782,328.90472C213.84831,328.90472,213.81596,327.93396,214.23659,321.46234C214.49547,317.41754,215.53096,313.85815,216.50166,313.5993C217.47243,313.3404,217.76366,313.37274,218.21666,313.79346 Z M217.2783,360.22742C217.66658,360.51868,218.0225,360.61572,221.03185,361.26294C221.8084,361.45703,223.13512,362.0395,223.97643,362.5572C224.81776,363.1073,225.69142,363.52795,225.95027,363.52795C226.46797,363.52795,234.9782,372.0382,234.9782,372.58832C234.9782,372.7824,235.46355,373.13837,236.07835,373.39722C237.308,373.91492,238.40816,375.274,238.56996,376.47125C238.667,376.9566,239.05534,377.44202,239.60542,377.70087C240.12315,377.95972,240.47911,378.38037,240.47911,378.76868C240.47911,379.12463,240.83507,379.96594,241.25569,380.6131C242.87361,383.20172,243.61781,387.24652,242.64711,388.05548C242.32353,388.34674,242.2588,389.25275,242.32353,391.58252C242.51765,396.0479,242.51765,398.15125,242.35588,399.28375C242.2588,399.8015,242.06465,401.41937,241.93523,402.8108C241.57927,406.53198,241.15865,406.88794,237.01677,406.88794C235.26942,406.88794,232.97203,407.04974,231.90419,407.24387C230.83632,407.40564,229.02428,407.69687,227.85939,407.8587C225.109,408.27933,220.28758,409.34717,216.85759,410.35028C215.33678,410.80328,213.3629,411.3534,212.4569,411.6122C210.96843,412.0329,206.2765,413.84497,199.70778,416.5954C194.85408,418.63397,192.8155,419.15167,189.48259,419.31348C186.76451,419.41055,185.82613,419.6047,183.26982,420.60782C180.42229,421.708,178.48082,422.64636,175.76271,424.29663C172.0092,426.59406,170.97374,426.85294,161.20152,428.08252C157.15678,428.60028,151.62355,429.6034,149.97325,430.1211C148.97014,430.4447,148.90544,430.41232,148.90544,429.73282C148.90544,428.92386,151.46175,426.30286,153.75914,424.74966C154.56813,424.23193,155.73302,423.29355,156.34782,422.74347C156.9626,422.161,158.70995,420.67255,160.23082,419.41055C165.08452,415.33344,168.06151,412.68005,174.95378,406.33783C179.90459,401.77533,183.81993,397.60114,185.79378,394.786C186.05263,394.3977,186.50563,393.81525,186.82921,393.4593C187.15279,393.13568,188.25298,391.58252,189.25609,390.06165C191.19756,387.21417,192.8802,384.7873,196.3749,379.96594C197.50743,378.41272,198.41347,376.989,198.41347,376.82715C198.41347,376.6654,198.51051,376.47125,198.67232,376.40656C199.31947,376.1153,204.59386,369.12598,206.37355,366.2461C207.40904,364.53107,210.09474,361.84534,210.58015,362.0395C210.87138,362.1366,211.03313,361.9748,211.03313,361.5865C211.03313,360.71283,211.58324,360.48633,212.26274,361.13342C212.78047,361.68353,212.81285,361.68353,212.90993,361.06873C213.13643,359.6126,213.2335,359.5479,215.11024,359.74207C216.08104,359.83917,217.08412,360.06567,217.2783,360.22742 Z"/> </g> </g> </svg>