<?xml version='1.0' encoding='utf-8'?>
<svg xmlns="http://www.w3.org/2000/svg" version="1.1" id="Layer_1" x="0px" y="0px" viewBox="0 0 1239.477 1643.317" enable-background="new 0 0 1239.477 1643.317"> <path d="M1219.656,784.627c-4.14-8.692,3.587,2.414-13.224-26.841c-0.955-1.298-1.289-2.903-2.205-4.197 c-0.82-1.235-8.419-10.817-8.419-10.817c-0.479-0.855-4.314-6.614-5.785-7.734c-1.576-1.125-8.329-8.489-8.757-8.903 c-1.957-1.032-3.953-2.06-5.584-3.576c-0.009,0.133-0.021,0.394-0.03,0.527c-2.069-3.208-13.758-10.71-14.067-11.138 c-1.396-1.632-3.486-2.141-5.391-2.856c-2.385-0.865-4.625-2.158-7.181-2.437c-3.353-1.632-6.95-2.664-10.496-3.794 c-2.484-0.835-4.698-2.235-7.113-3.22c-1.85-1.422-4.03-2.432-6.342-2.788c-1.225-0.707-2.471-1.589-3.927-1.602 c-0.981-0.103-2.008,0.086-2.891-0.372c-1.614-0.891-3.55-0.064-5.199-0.814c-1.263-0.612-2.796-0.158-3.97-0.904 c-2.775,0.116-5.485-0.437-8.243-0.51c-0.766-0.48-1.606-0.805-2.419-1.152c-3.43-0.154-6.869-0.159-10.299-0.017 c-0.844,0.458-1.859,0.505-2.599,1.152c-1.837-0.034-3.486,0.835-5.194,1.34c-2.021-0.056-4.042,0.111-5.952,0.788 c-3.544,0.163-5.136-0.465-9.669,3.469c-2.261,0.659-4.072,2.873-6.612,2.668c-0.544,0.244-1.083,0.497-1.589,0.775 c-0.266,0-0.797-0.004-1.058-0.009c-0.484,0.428-0.951,0.869-1.405,1.323c-0.647,0.009-1.289,0.017-1.91,0.039 c-1.507,0.861-3.049,1.67-4.548,2.535c-1.58,1.242-2.959,2.741-4.706,3.764c-7.714,1.477-5.925,1.213-9.853,5.211 c-0.951-0.026-1.82,0.27-2.514,0.908c-0.719,0.745-1.635-0.115-2.462-0.103c-2.084,0.031-7.318-13.303-8.57-15.176 c-3.922-5.864-8.681-9.411-16.018-8.362c-14.501,2.075-15.17,10.23-21.682,12.309c-1.22,0.39-2.244-0.578-3.297-1.002 c-1.426-0.629-1.537-2.595-2.989-3.16c-1.131-0.344-3.452-0.705-4.364-1.139c-4.448-0.671-7.976,1.953-10.123,0.064 c-1.824-1.165-3.314-2.758-5.117-3.935c-2.047-1.46-3.944-3.306-4.822-5.713c-1.816-4.835-2.526-2.128-9.1-6.025 c-0.852-0.698-1.413-1.661-2.107-2.492c-0.471-2.214-0.625-4.479-1.396-6.616c0.128-2.201-0.527-4.317-0.458-6.501 c-0.128,0.454-0.24,0.925-0.338,1.396c-0.272-3.279-1.898-3.173-2.321-7.755c-1.537-3.349,0.231-7.263-1.323-10.641 c-1.023-1.34-2.004-2.779-2.586-4.359c-0.858-3.468-2.591-3.614-8.993-11.155c-1.019-1.169-0.942-2.822-1.173-4.252 c-0.492-1.781-1.777-3.207-2.287-4.976c-0.856-2.15-2.454-3.88-3.55-5.88c-0.274-1.957,0.133-3.94-0.133-5.888 c-0.698-2.227-2.972-3.417-3.82-5.55c-5.76-14.488-18.439-26.758-24.898-60.54c-2.66-13.914-0.99-22.838-8.29-36.542 c-5.196-9.756-8.666-18.173-13.147-37.487c0-0.001-4.289-16.191-4.29-16.192c-0.681-1.567-1.58-3.049-1.901-4.74 c-0.218-1.349-1.375-2.278-1.572-3.627c-0.441-2.561-2.869-4.334-2.899-6.997c-0.503-3.779-7.006-13.088-7.571-15.215 c-0.848-2.771-3.314-4.633-4.244-7.353c-0.548-1.43-0.822-2.993-1.734-4.248c-1.002-1.396-1.366-3.1-2.175-4.59 c-0.664-1.31-1.593-2.497-1.966-3.931c-0.001-0.003-0.099-3.5-1.362-7.537c-0.445-3.045-1.709-5.918-2.008-8.98 c-1.963-3.928,0.621-5.752-11.733-25.732c-0.244-2.715-2.728-4.389-3.4-6.924c-0.441-1.452-1.602-2.556-1.918-4.055 c-0.754-2.753-2.355-5.156-3.25-7.854c-1.152-2.411-1.632-5.07-2.557-7.554c-1.729-2.731-7.321-17.159-7.515-17.587 c-1.52-4.901-14.574-29.894-18.249-36.06c-9.626-16.153-21.05-25.076-61.83-104.703c-2.813-5.493-11.968-14.104-11.968-14.104 c-5.242-3.465-13.16-14.787-14.667-16.431c-0.802-0.803-0.812-2.396-1.078-3.46c-4.787-19.212-14.37-24.817-20.907-36.647 c-1.345-2.381-1.379-5.211-2.719-7.588c-1.593-3.019-2.167-6.406-2.689-9.738c-0.617-1.332-0.565-2.929-1.49-4.107 c-3.55-17.378-7.089-17.578-10.569-27.145c-0.861-1.094-2.578-8.186-5.387-11.245c-1.096-1.075-1.233-2.634-1.61-4.034 c-1.263-0.257-2.535-0.107-3.79,0.026c-6.556,5.916,10.778,29.309,6.312,33.003c-0.621-0.021-1.238-0.034-1.841-0.038 c-2.514-1.897-2.655-5.25-4.248-7.751c-0.835-1.948-2.265-3.584-2.925-5.614c-0.381-1.28-1.495-2.133-2-3.349 c-0.835-1.807-2.248-3.216-3.473-4.749c-0.746-1.1-11.413-18.797-17.031-24.079c-0.878-0.899-1.657-1.91-2.18-3.058 c-0.488-1.268-1.696-2.025-2.338-3.195c0.167-0.111-2.565-1.987-4.346-0.985c-1.936,0.587-2.582,2.839-2.368,4.655 c0.283,3.16,2.36,5.721,3.366,8.646c-0.437,0.488-0.856,0.985-1.272,1.482c-5.99-0.845-6.974-6.924-11.909-11.751 c-1.255-2.27-2.441-4.608-4.038-6.659c-0.861-0.278-1.777-0.689-2.685-0.432c-3.985,2.255-2.974,7.9-1.332,12.191 c0.831,2.008-0.968,4.248-2.908,4.625c-2.205,2.445-1.983,6.055-0.998,8.984c6.68,19.159,54.974,75.395,47.858,93.619 c-0.552,2.27-3.618,3.16-5.511,1.995c-7.039-3.163-12.248-13.87-23.976-24.405c-13.391-9.807-21.831-4.528-21.214,0.36 c-0.325,2.295,1.923,3.409,3.195,4.886c4.955,5.845,10.299,11.429,16.418,16.063c11.439,10.157,10.651,15.023,16.474,22.105 c1.511,1.513,21.044,23.257,37.667,24.066c17.713,13.166,15.025,18.664,28.648,35.975c21.036,23.816,53.726,130.03,58.222,137.61 c2.2,7.134,6.276,13.858,9.656,20.475c14.298,27.996,31,92.306,37.874,120.052c21.949,88.604,24.489,97.157,25.582,120.782 c0.254,5.486,1.579,13.419-0.308,18.685c-0.906,2.527,0.159,5.322-0.59,7.868c-1.958,6.661-20.147,5.011-28.957,4.93 c-38.962-0.357-40.963-1.795-47.662-0.258c-1.661,0.124-3.383,0.762-5.014,0.214c-2.912-1.088-6.149-0.621-9.023,0.351 c-1.52,0.651-3.28,0.321-4.736,1.169c-1.948,1.027-4.233,1.302-6.378,0.844c-3.088-0.659,0.231-2.464-9.357-2.666 c-12.09-0.255-84.707,7.177-86.118,7.492c-21.371,4.638-2.249-7.442-43.932-2.621c0,0-17.337-0.86-26.858,0.026 c-2.553,0.481-12.527,1.446-20.152,1.366c-14.467-2.553-17.197,2.738-24.413,2.642c-32.077,1.515-84.727,40.237-101.943,62.542 c-12.788,13.026-31.708,42.439-41.671,57.793c-27.965,45.606-48.756,117.65-67.45,163.299 c-32.592,78.095-40.859,106.555-50.749,124.357c-2.543,5.06-20.018,35.421-20.546,35.872c-1.773,0.801-3.7,1.786-4.359,3.773 c-0.467,1.713-1.726,2.993-2.612,4.484c-1.964,5.373,2.49-0.304-10.718,15.296c-5.528,7.526-19.757,23.424-22.987,28.323 c-0.946,1.362-1.572,2.942-2.659,4.222c-5.503,5.969-8.839,13.57-14.324,19.553c-7.52,8.201-12.174,18.748-17.394,28.452 c0.6-1.676-7.895,11.644-11.39,20.341c-24.005,59.719-27.981,75.171-33.916,103.325c-9.229,34.901-15.684,68.52-16.525,76.991 c-0.047,0.429-1.871,13.173-3.259,16.067c-0.895,1.276-2.222,2.325-2.522,3.953c-0.634,2.749-0.737,5.601-1.306,8.372 c-2.64,10.069-3.348,6.846-1.756,10.603c0.295,1.5-1.455,6.421-2.33,8.851c-0.796,1.512-3.13,0.531-3.948,2.034 c-2.661,3.497-3.552,12.699-4.877,16.174c-0.106,0.428-7.47,16.137-8.213,16.923c-0.278-0.103-0.831-0.308-1.105-0.411 c-0.664-3.957-0.214-8.072-1.306-11.969c-1.592-3.746-2.964-1.153-6.933-0.334c-0.993,0.355-2.235,0.334-2.985,1.182 c0.702,5.104,2.899,9.896,3.413,15.035c0.502,2.786-4.343,3.103-6.196,6.406c-12.551,21.835-13.973,30.65-15.575,41.508 c-0.377,2.347-0.274,4.877-1.452,7.031c-0.497,0.968-1.439,1.615-1.953,2.582c-0.505,1.22,0.685,2.162,0.882,3.293 c-0.128,1.173-1.46,1.614-2.411,2.004c-1.94,0.531-2.698,2.578-3.978,3.931c-0.013,0.98,0.073,1.991-0.103,2.989 c-0.428,1.126-1.259,2.162-1.186,3.447c0.086,1.713-0.373,3.584,0.501,5.173c-1.499,2.798-2.067,8.051,2.419,13.104 c0.938,0.916,0.664,2.544,1.846,3.297c1.799,1.409,2.813,3.837,5.182,4.445c2.567,0.915,3.949,5.343,9.074,5.584 c2.732,0.608,4.509,3.272,7.271,3.824c2.278,0.946,4.843,0.587,7.01,1.854c0.017,0.424,0.039,0.869,0.056,1.34 c4.232,3.221,1.647,1.287,10.492,2.004c6.396,2.239,6.892-1.521,10.847,3.653c6.176,8.971,83.955,7.956,94.073,7.815 c2.458,0.017,4.818-0.891,7.28-0.809c21.461-0.062,18.833-2.044,22.323-3.37c4.778-1.815,10.8-2.73,13.833-7.232 c4.34-6.442,1.02-16.356-5.928-20.376c-0.001,0-14.585-9.737-14.585-9.738c-10.755-7.532-10.572-8.739-13.626-11.138 c-3.385-3.307-15.076-10.842-19.437-12.025c-2.681-0.972-4.325-3.426-6.458-5.164c-0.492,0.009-0.981,0.034-1.469,0.086 c-0.373-0.775-0.809-1.499-1.357-2.128c0.017-0.432,0.034-0.844,0.056-1.229c0.351-0.013,1.053-0.043,1.405-0.056 c-0.788-2.077-2.073-5.049-4.732-4.886c-0.591-0.865-1.165-1.73-1.747-2.582c-0.321,0.013-0.964,0.047-1.285,0.064 c-0.951-0.548-2.068-0.925-2.719-1.841c-0.236-0.882,0.518-1.323,1.113-1.717c-1.409-2.193-3.94-3.233-5.648-5.122 c-1.755-3.424,0.548-11.536,0.788-14.14c0.813-8.491-1.123-9.882-1.353-12.02c-0.064-2.034-1.76-3.79-0.912-5.854 c2.68-0.662,6.527,5.252,7.948,7.601c0.574,0.929-0.844,1.589-0.767,2.518c0.248,1.987,1.045,3.863,1.422,5.837 c1.409,0.39,2.681-0.415,4.038-0.612c1.306-0.12,1.884,1.529,3.195,1.503c0.848-1.156,2.385-0.762,3.426-1.486 c0.3-1.225-0.291-2.822,0.878-3.67c1.94-1.357,4.543-2.167,5.546-4.513c-1.285-1.525-1.289-3.533-1.679-5.361 c-1.535-2.814-13.342-10.253-23.18-11.228c-1.233,0.03-1.619-1.263-2.154-2.111c-1.25-1.76,0.321-3.751,0.518-5.593 c0.193-2.398,1.242-4.595,1.495-6.972c1.686-7.483,0.708-7.513,0.33-9.494c0.18-1.353,1.867-1.619,2.467-2.711 c1.056-1.977,2.785-9.691,3.601-11.365c1.092-0.882,2.18-1.944,2.282-3.422c-0.54-15.963,64.877-114.801,67.647-123.136 c19.548-37.548,29.718-65.042,30.198-67.844c0.929-4.385,4.381-7.678,5.426-12.007c6.094-15.101,7.113-13.417,9.19-15.484 c0.689-1.268-0.021-2.839,0.552-4.137c3.952-7.694,16.782-20.147,21.017-25.728c1.101-1.413,2.304-2.907,4.098-3.417 c1.957-0.677,2.715-2.899,2.732-4.796c-0.17-3.732,7.745-8.285,9.254-12.067c1.513-3.691,8.26-9.154,9.656-10.83 c7.15-9.702,15.493-20.14,24.486-27.312c45.706-38.365,69.717-96.611,110.384-154.675c57.755-76.908,41.259-99.398,78.352-91.854 c4.859,0.818,9.516,3.536,10.277,3.768c14.686,6.551,13.901,15.956,32.579,37.17c74.026,100.635,202.617,254.443,205.951,257.697 c11.131,12.126,37.016,28.504,42.677,36.618c4.886,8.911-1.721,2.292,25.968,47.726c41.663,65.41,85.074,86.291,94.736,96.62 c11.519,11.598,63.782,61.291,63.805,61.309c13.8,13.039,9.342,11.465,11.374,13.845c3.62,4.193,5.341,2.572,7.532,7.721 c0.505,1.289,1.717,2.06,2.719,2.959c-0.004,0.642,0,1.297,0.03,1.983c1.161,1.64,2.716,5.371,6.081,8.269 c2.509,1.977-1.984,4.118,0.043,5.914c0.745,1.178,2.668,1.722,2.535,3.344c-0.325,7.113,0.459,6.267,2.017,9.502 c0.45,1.285-0.702,2.282-1.118,3.4c-2.527,8.907-2.927,22.087-5.301,25.03c-1.336,1.674-2.261,3.606-3.087,5.571 c-0.445,1.105-1.602,1.632-2.501,2.308c0.009,0.621-0.278,1.439,0.433,1.85c-1.34,1.593-2.595,3.344-3.143,5.391 c-2.64,3.995-2.069,13.139-2.03,14.697c1.285,1.272,0.707,3.203,0.929,4.826c1.118,0.835,1.199,2.441,2.458,3.156 c1.426,1.439,3.088,2.676,5.152,3.01c0.013,0.274,0.043,0.827,0.056,1.1c1.747,0.685,3.122,2.081,4.98,2.544 c1.713,0.437,3.302,1.323,5.087,1.499c1.199,0.394,1.532,0.235,3.404,0.848c5.48,2.808,6.452,1.52,9.854,3.267 c1.46,0.116,2.98-0.141,4.406,0.338c4.343,0.172,4.109,1.842,8.933,1.884c1.315,0.711,2.861,0.595,4.231,1.161 c28.478,0.55,11.474-1.063,36.117-1.182c0.099,3.383,3.088,5.614,5.687,7.284c1.743,0.929,2.407,2.968,4.038,4.06 c6.571,4.507,10.087,1.477,14.183,3.503c2.712,0.279,2.379,1.35,8.971,0.677c1.578,0.43,77.028,0.344,77.711,0.272 c6.125-0.649,15.552-6.993,11.64-22.318c-0.74-2.899-2.632-3.802-4.07-6.299c-1.139-1.978-3.511-2.856-4.475-4.912 c-0.338-1.01-0.655-2.064-1.452-2.788c-1.427-1.351-9.521-7.658-9.712-7.781c-1.58-1.22-3.73-1.045-5.387-2.081 c-0.827-0.351-1.704-0.544-2.578-0.557c-0.176,0.141-0.522,0.42-0.694,0.561c-0.677-0.715-1.315-1.447-1.974-2.141 c-0.129-0.736,0.103-1.597-0.493-2.12c-1.426-1.537-3.023-3.006-5.006-3.743c-0.171-0.835-0.578-1.559-1.109-2.171 c-0.809-0.946-0.989-2.21-1.328-3.344c-2.034-2.445-3.978-4.972-6.136-7.301c-1.075-1.25-2.595-2.094-3.366-3.58 c-1.178-1.807-2.06-3.816-3.49-5.43c-3.581-3.435-4.185-6.456-12.033-14.106c-0.874-0.784-0.895-2.107-1.803-2.822 c-0.677-0.608-1.272-1.289-1.691-2.068c-0.197-1.58-1.824-2.282-2.698-3.434c-3.82-4.901-7.58-10.947-7.618-10.997 c-0.237-6.636-5.771-12.338-6.492-13.455c-1.22-1.015-2.081-2.338-3.027-3.571c0.068-2.167,1.726-4.355,0.591-6.475 c-0.266-1.336-0.805-2.586-1.071-3.901c-0.655-1.298-0.719-2.801-1.43-4.055c-0.852-1.619-1.666-3.255-2.287-4.967 c-0.951-2.449-2.745-4.385-4.128-6.573c-8.955-13.312-3.85-10.763-6.783-16.465c-1.964-3.269,0.63-12.731,0.248-15.87 c0.266-2.912-1.464-5.357-2.377-7.969c-8.141-23.317-14.558-71.062-17.25-95.662c0.028,0.956,0.056,1.911,0.084,2.867 c-3.867-35.892-13.195-69.175-20.635-97.579c-16.579-63.295-5.072-16.62-24.005-75.53c-1.241-3.861-1.071-8.028-2.36-11.796 c-6.698-10.249-2.965-19.076-15.392-71.09c-0.49-2.052-0.125-5.651-1.155-7.404c-3.181-5.854-2.027-1.982-1.764-58.102 c0.073-2.441-1.653-4.445-1.743-6.869c-0.856-2.612-0.754-5.43-1.906-7.952c-0.591-2.359-2.073-4.338-2.762-6.655 c-0.985-2.39-1.465-4.955-2.676-7.241c-0.233-0.563-4.046-7.356-1.76-9.716c1.229-1.64,3.721-2.762,5.593-1.512 c2.441,1.889,5.764,1.764,8.654,1.25c3.158-0.641,7.197-6.858,10.68-5.593c1.019,1.092,0.861,2.698,1.319,4.051 c2.395,9.606,11.667,10.901,18.581,5.858c4-3.254,7.027-7.601,11.421-10.389c3.91-2.428,7.344-5.541,11.327-7.862 c1.691-0.754,3.516-1.165,5.259-1.803c2-0.685,4.698-0.784,6.038,1.169c1.126,0.959,0.261,2.441,0.15,3.64 c0.03,3.04,2.625,6.586,5.931,6.098c-0.636-1.485-9.72-7.243,8.325-8.312c4.057,0.215,2.754,3.976,11.652,0.822 c1.482-0.561,3.075-0.454,4.633-0.557c39.26-9.04,28.383-20.14,55.575-35.136c2.15-0.758,3.798-2.621,6.201-2.681 c1.661-1.554,3.323-3.143,4.582-5.053c0.527-1.062,0.831-2.535,2.24-2.715c0.043-0.218,0.129-0.664,0.171-0.886 c0.788-0.912,1.413-2.128,2.685-2.441c2.304-0.891,3.803-3.117,4.582-5.374c1.867-2.728,2.586-6.115,2.432-9.387 c-0.111-1.991,1.704-3.319,1.884-5.224c0.064-0.595,0.343-1.122,0.625-1.623c0.099-1.85,0.004-3.7,0.141-5.537 c1.281-2.219,0.318-6.714,2.574-9.091c1.135-2.184,3.122-3.88,3.914-6.226c2.933-2.518,3.447-6.603,4.672-10.068 c0.184-0.086,0.548-0.266,0.732-0.351c0.039-1.096,0.218-2.167,0.527-3.207c0.176-0.004,0.531-0.009,0.707-0.013 c0.21-2.664,0.638-5.289,0.501-7.969c0.668-1.957,1.071-3.987,1.495-6.004c0.488-2.304-0.295-4.848,0.904-6.984 C1224.875,798.368,1219.782,789.352,1219.656,784.627z M142.46,1499.527c1.812,0.127,8.511,2.265,7.755,4.321 c-1.203,1.173-2.963,1.871-4.633,1.94C141.342,1501.431,141.813,1504.103,142.46,1499.527z M1041.685,1327.586 c4.683,11.688,9.692,31.247,12.153,38.065c1.07,3.971,5.619,16.96,5.297,29.599c0.028,0.994-0.201,16.128-1.272,18.611 c-0.692,1.605-4.983-2.303-5.32-2.725c-0.342-0.428-75.376-133.852-124.018-187.665c-4.462-4.936-50.304-48.028-47.206-46.016 c-4.268-2.773-2.206-6.332-10.534-16.654c-1.066-1.636-2.004-3.396-3.507-4.676c-10.445-8.523-7.006-2.778-24.169-35.845 c-6.009-11.578-10.652-23.19-15.156-35.449c-7.509-20.438-16.99-40.212-25.106-60.462c-1.126-1.482-1.477-3.357-2.544-4.848 c-10.354-31.764-64.892-118.084-70.306-127.975c-1.228-3.009,5.415-3.183,8.269-2.407c1.537,0.201,3.203-0.214,4.672,0.385 c1.623,1.212,2.685,3.002,4.12,4.419c1.229,1.486,10.733,9.363,13.883,10.873c0.428,0.208,9.108,3.362,12.213,7.138 c1.177,1.332,17.936,15.006,29.839,19.771c39.697,17.827,134.453,7.563,160.64,124.331c43.083,173.197,9.399,80.216,39.247,166.443 c1.636,4.102,2.488,8.462,4.102,12.577C1020.385,1279.817,1031.415,1299.492,1041.685,1327.586z"/> </svg>