<?xml version="1.0" encoding="iso-8859-1"?>
<!-- Generator: Adobe Illustrator 16.0.0, SVG Export Plug-In . SVG Version: 6.00 Build 0)  -->
<!DOCTYPE svg PUBLIC "-//W3C//DTD SVG 1.1//EN" "http://www.w3.org/Graphics/SVG/1.1/DTD/svg11.dtd">
<svg x="0px" y="0px" width="477.418px" height="477.419px" viewBox="0 0 477.418 477.419" style="enable-background:new 0 0 477.418 477.419;"
	xml:space="preserve" xmlns="http://www.w3.org/2000/svg">
		<circle cx="249.209" cy="160.576" r="6.448"/>
		<circle cx="220.959" cy="160.576" r="11.75"/>
		<path d="M363.417,113.712H213.609c-21.324,0-38.611,17.287-38.611,38.61v286.485c0,21.325,17.287,38.612,38.611,38.612h149.808
			c21.324,0,38.609-17.287,38.609-38.612V152.322C402.026,130.999,384.741,113.712,363.417,113.712z M245.959,182.826h-26.5
			c-12.288,0-22.25-9.962-22.25-22.25c0-12.288,9.962-22.25,22.25-22.25h26.5c12.287,0,22.25,9.962,22.25,22.25
			C268.209,172.864,258.247,182.826,245.959,182.826z"/>
		<polygon points="116.076,110.817 177.572,102.86 183.627,43.549 221.85,95.55 260.706,74.693 253.958,95.618 271.01,95.618 
			288.512,41.349 226.584,74.589 171.758,0 162.734,88.415 75.393,99.718 136.939,147.624 88.264,212.627 157.947,201.267 
			157.947,184.823 125.383,190.132 159.479,144.601 		"/>
</svg>
