<?xml version="1.0" encoding="iso-8859-1"?>
<!-- Generator: Adobe Illustrator 19.0.0, SVG Export Plug-In . SVG Version: 6.00 Build 0)  -->
<svg x="0px" y="0px" viewBox="0 0 512 512" style="enable-background:new 0 0 512 512;" xml:space="preserve">
		<path d="M497.552,318.828L284.686,128.883c-16.353-14.591-41.019-14.592-57.372,0.001L14.448,318.829
			C0.994,330.833-3.548,349.477,2.876,366.326c6.425,16.848,22.227,27.735,40.258,27.735h425.731
			c18.031,0,33.833-10.886,40.258-27.736C515.547,349.477,511.004,330.833,497.552,318.828z M490.062,359.057
			c-2.692,7.059-9.674,14.603-21.196,14.603H43.133c-11.523,0-18.504-7.543-21.196-14.603c-2.691-7.059-2.505-17.338,6.093-25.009
			l212.866-189.944c4.305-3.842,9.704-5.763,15.104-5.763c5.399,0,10.8,1.922,15.103,5.762l212.866,189.945
			C492.567,341.721,492.754,351.998,490.062,359.057z"/>

		<path d="M139.306,265.794c-3.749-4.201-10.196-4.571-14.402-0.82l-5.234,4.669c-4.202,3.752-4.571,10.199-0.82,14.402
			c2.016,2.258,4.809,3.409,7.615,3.409c2.415,0,4.842-0.854,6.787-2.589l5.234-4.669
			C142.688,276.444,143.056,269.997,139.306,265.794z"/>

		<path d="M261.908,156.392c-3.75-4.201-10.196-4.572-14.401-0.819l-96.307,85.937c-4.202,3.751-4.571,10.198-0.819,14.401
			c2.016,2.258,4.808,3.409,7.614,3.409c2.415,0,4.842-0.854,6.787-2.59l96.307-85.937
			C265.291,167.042,265.659,160.595,261.908,156.392z"/>
</svg>
